<svg width="12" height="12" viewBox="0 0 12 12" fill="current" xmlns="http://www.w3.org/2000/svg">
<g clip-path="url(#clip0_978_1625)">
<path d="M11.5 5.5V6.5H11V7H10.5V7.5H10V8H9.5V8.5H9V9H8.5V9.5H8V10H7.5V10.5H7V11H6.5V11.5H6V11H5.5V10.5H5V10H5.5V9.5H6V9H6.5V8.5H7V8H7.5V7.5H8V7H0.5V5H8V4.5H7.5V4H7V3.5H6.5V3H6V2.5H5.5V2H5V1.5H5.5V1H6V0.5H6.5V1H7V1.5H7.5V2H8V2.5H8.5V3H9V3.5H9.5V4H10V4.5H10.5V5H11V5.5H11.5Z" fill="black"/>
</g>
<defs>
<clipPath id="clip0_978_1625">
<rect width="12" height="12" fill="white"/>
</clipPath>
</defs>
</svg>
