<svg width="40" height="40" viewBox="0 0 40 40" fill="none" xmlns="http://www.w3.org/2000/svg">
<path d="M33.3327 3.33464V36.668H31.666H29.9993V35.0013H28.3327V33.3346H26.666V31.668H24.9993V30.0013H23.3327V28.3346H21.666V26.668H18.3327V28.3346H16.666V30.0013H14.9993V31.668H13.3327V33.3346H11.666V35.0013H9.99935V36.668H8.33268H6.66602V3.33464H8.33268V1.66797H31.666V3.33464H33.3327Z" fill="#192E47"/>
<path d="M22.1 16.7H22.8V17.4H23.5V18.1H24.2V18.8H24.9V19.5H25.6V20.2H26.3V20.9H27V21.6H26.3V22.3H25.6V23H24.9V22.3H24.2V21.6H23.5V20.9H22.8V20.2H22.1V19.5H21.4V18.8H20.7V18.1H19.3V18.8H18.6V19.5H17.9V20.2H17.2V20.9H16.5V21.6H15.8V22.3H15.1V23H14.4V22.3H13.7V21.6H13V20.9H13.7V20.2H14.4V19.5H15.1V18.8H15.8V18.1H16.5V17.4H17.2V16.7H17.9V15.3H17.2V14.6H16.5V13.9H15.8V13.2H15.1V12.5H14.4V11.8H13.7V11.1H13V10.4H13.7V9.7H14.4V9H15.1V9.7H15.8V10.4H16.5V11.1H17.2V11.8H17.9V12.5H18.6V13.2H19.3V13.9H20.7V13.2H21.4V12.5H22.1V11.8H22.8V11.1H23.5V10.4H24.2V9.7H24.9V9H25.6V9.7H26.3V10.4H27V11.1H26.3V11.8H25.6V12.5H24.9V13.2H24.2V13.9H23.5V14.6H22.8V15.3H22.1V16.7Z" fill="white"/>
</svg>
