<svg width="10" height="10" viewBox="0 0 10 10" fill="none" xmlns="http://www.w3.org/2000/svg">
<path d="M9.58268 2.08333V2.5H9.16602V2.91667H8.74935V3.33333H8.33268V3.75H7.91602V4.16667H7.49935V4.58333H7.08268V5H6.66602V5.41667H6.24935V5.83333H5.83268V6.25H5.41602V6.66667H4.99935V7.08333H4.58268V7.5H4.16602V7.91667H3.33268V7.5H2.91602V7.08333H2.49935V6.66667H2.08268V6.25H1.66602V5.83333H1.24935V5.41667H0.832682V5H0.416016V4.58333H0.832682V4.16667H1.24935V3.75H1.66602V4.16667H2.08268V4.58333H2.49935V5H2.91602V5.41667H3.33268V5.83333H4.16602V5.41667H4.58268V5H4.99935V4.58333H5.41602V4.16667H5.83268V3.75H6.24935V3.33333H6.66602V2.91667H7.08268V2.5H7.49935V2.08333H7.91602V1.66667H8.33268V1.25H8.74935V1.66667H9.16602V2.08333H9.58268Z" fill="white"/>
</svg>
