<svg width="16" height="16" viewBox="0 0 16 16" fill="none" xmlns="http://www.w3.org/2000/svg">
<path d="M14.6673 2.66667V4.66667H14.0007V5.33333H13.334V4.66667H12.6673V4H12.0007V3.33333H11.334V2.66667H12.0007V2H14.0007V2.66667H14.6673Z" fill="#363738"/>
<path d="M11.3327 9.33203H11.9993V13.9987H11.3327V14.6654H1.33268V13.9987H0.666016V3.9987H1.33268V3.33203H9.33268V3.9987H8.66602V4.66536H1.99935V13.332H10.666V9.9987H11.3327V9.33203Z" fill="#363738"/>
<path d="M11.9993 5.33333H12.666V6.66667H11.9993V7.33333H11.3327V8H10.666V8.66667H9.99935V9.33333H9.33268V10H8.66602V10.6667H7.99935V11.3333H7.33268V12H4.66602V9.33333H5.33268V8.66667H5.99935V8H6.66602V7.33333H7.33268V6.66667H7.99935V6H8.66602V5.33333H9.33268V4.66667H9.99935V4H11.3327V4.66667H11.9993V5.33333Z" fill="#363738"/>
</svg>
