<svg width="105" height="19" viewBox="0 0 105 19" fill="none" xmlns="http://www.w3.org/2000/svg">
<path d="M0 10.6667V9H8.33333V7.33333H3.33333V5.66667H1.66667V4H0V2.33333H8.33333V0.666666H11.6667V2.33333H18.3333V4H16.6667V5.66667H15V7.33333H11.6667V9H18.3333V10.6667H0ZM13.3333 15.6667V14H5V15.6667H13.3333ZM13.3333 5.66667V4H5V5.66667H13.3333ZM1.66667 19V12.3333H16.6667V19H1.66667ZM20 17.3333V14H38.3333V17.3333H20ZM35 0.666666V2.33333H36.6667V9H35V10.6667H23.3333V9H21.6667V2.33333H23.3333V0.666666H35ZM33.3333 7.33333V4H25V7.33333H33.3333ZM40 17.3333V14H48.3333V12.3333H41.6667V5.66667H53.3333V4H41.6667V0.666666H56.6667V7.33333H45V9H56.6667V12.3333H51.6667V14H58.3333V17.3333H40ZM68.3398 17.3333V14H71.6732V12.3333H73.3398V9H75.0065V4H68.3398V0.666666H78.3398V10.6667H76.6732V14H75.0065V15.6667H73.3398V17.3333H68.3398ZM86.6732 10.6667H85.0065V19H81.6732V0.666666H85.0065V7.33333H86.6732V10.6667ZM88.3398 17.3333V14H91.6732V12.3333H93.3398V9H95.0065V4H88.3398V0.666666H98.3398V10.6667H96.6732V14H95.0065V15.6667H93.3398V17.3333H88.3398ZM101.673 19V0.666666H105.007V19H101.673Z" fill="white"/>
</svg>
