<svg width="12" height="12" viewBox="0 0 12 12" fill="none" xmlns="http://www.w3.org/2000/svg">
<g clip-path="url(#clip0_1356_4261)">
<path d="M11 4.5V3.5H10.5V2.5H10V2H9.5V1.5H8.5V1H7.5V0.5H4.5V1H3.5V1.5H2.5V2H2V2.5H1.5V3.5H1V4.5H0.5V7.5H1V8.5H1.5V9.5H2V10H2.5V10.5H3.5V11H4.5V11.5H7.5V11H8.5V10.5H9.5V10H10V9.5H10.5V8.5H11V7.5H11.5V4.5H11ZM10.5 7.5H10V8.5H9.5V9.5H8.5V10H7.5V10.5H4.5V10H3.5V9.5H2.5V8.5H2V7.5H1.5V4.5H2V3.5H2.5V2.5H3.5V2H4.5V1.5H7.5V2H8.5V2.5H9.5V3.5H10V4.5H10.5V7.5Z" fill="#989898"/>
<path d="M8 7.5V8H7.5V8.5H7V8H6.5V7.5H6V7H5.5V2.5H6.5V6.5H7V7H7.5V7.5H8Z" fill="#989898"/>
</g>
<defs>
<clipPath id="clip0_1356_4261">
<rect width="12" height="12" fill="white"/>
</clipPath>
</defs>
</svg>
