<svg width="12" height="12" viewBox="0 0 12 12" fill="none" xmlns="http://www.w3.org/2000/svg">
<g clip-path="url(#clip0_1356_4264)">
<path d="M7 10.5V11H6.5V11.5H5.5V11H5V10.5H7Z" fill="#989898"/>
<path d="M6.5 2H5.5V2.5H6.5V2Z" fill="#989898"/>
<path d="M5.5 2.5H5V3H5.5V2.5Z" fill="#989898"/>
<path d="M9.5 3.5V2.5H9V2H8.5V1.5H8V1H7V0.5H5V1H4V1.5H3.5V2H3V2.5H2.5V3.5H2V5.5H2.5V6.5H3V7H3.5V7.5H4V8H4.5V10H7.5V8H8V7.5H8.5V7H9V6.5H9.5V5.5H10V3.5H9.5ZM9 5.5H8.5V6.5H8V7H7.5V7.5H7V8H5V7.5H4.5V7H4V6.5H3.5V5.5H3V3.5H3.5V2.5H4V2H5V1.5H7V2H8V2.5H8.5V3.5H9V5.5Z" fill="#989898"/>
<path d="M5 3H4.5V3.5H5V3Z" fill="#989898"/>
<path d="M4.5 3.5H4V4.5H4.5V3.5Z" fill="#989898"/>
<path d="M1.5 0.5H1V1H1.5V0.5Z" fill="#8B8B8B"/>
<path d="M2 1H1.5V1.5H2V1Z" fill="#8B8B8B"/>
<path d="M2.5 1.5H2V2H2.5V1.5Z" fill="#8B8B8B"/>
<path d="M1 8H0.5V8.5H1V8Z" fill="#8B8B8B"/>
<path d="M1.5 7.5H1V8H1.5V7.5Z" fill="#8B8B8B"/>
<path d="M2 7H1.5V7.5H2V7Z" fill="#8B8B8B"/>
<path d="M11.5 8H11V8.5H11.5V8Z" fill="#8B8B8B"/>
<path d="M11 7.5H10.5V8H11V7.5Z" fill="#8B8B8B"/>
<path d="M10.5 7H10V7.5H10.5V7Z" fill="#8B8B8B"/>
<path d="M11 0.5H10.5V1H11V0.5Z" fill="#8B8B8B"/>
<path d="M10.5 1H10V1.5H10.5V1Z" fill="#8B8B8B"/>
<path d="M10 1.5H9.5V2H10V1.5Z" fill="#8B8B8B"/>
<path d="M1.5 4H0.5V4.5H1.5V4Z" fill="#8B8B8B"/>
<path d="M11.5 4H10.5V4.5H11.5V4Z" fill="#8B8B8B"/>
</g>
<defs>
<clipPath id="clip0_1356_4264">
<rect width="12" height="12" fill="white"/>
</clipPath>
</defs>
</svg>
