<svg width="16" height="16" viewBox="0 0 16 16" fill="none" xmlns="http://www.w3.org/2000/svg">
<rect width="16" height="16" fill="#D9D9D9" fill-opacity="0.01"/>
<path d="M8.34404 7.41238C7.69528 7.79179 7.31684 8.16194 7.3021 9.37421V9.42973H8.30472V9.37421C8.31946 8.62001 8.55046 8.28687 9.14024 7.9491C9.76442 7.5882 10.1429 7.09312 10.1429 6.34818C10.1429 5.29323 9.28768 4.57143 8.00983 4.57143C6.84011 4.57143 5.89646 5.21457 5.85714 6.39445H6.91874C6.96298 5.70966 7.47903 5.40428 8.00983 5.40428C8.59961 5.40428 9.07143 5.76981 9.07143 6.34818C9.07143 6.83401 8.75688 7.1764 8.34404 7.41238Z" fill="#BDBDBD"/>
<path d="M7.84273 10.1145C7.45937 10.1145 7.13991 10.4106 7.14482 10.7715C7.13991 11.1324 7.45937 11.4239 7.84273 11.4286C8.22117 11.4239 8.53571 11.1324 8.54063 10.7715C8.53571 10.4106 8.22117 10.1145 7.84273 10.1145Z" fill="#BDBDBD"/>
<path fill-rule="evenodd" clip-rule="evenodd" d="M14 8C14 11.3137 11.3137 14 8 14C4.68629 14 2 11.3137 2 8C2 4.68629 4.68629 2 8 2C11.3137 2 14 4.68629 14 8ZM12.9714 8C12.9714 10.7456 10.7456 12.9714 8 12.9714C5.25436 12.9714 3.02857 10.7456 3.02857 8C3.02857 5.25436 5.25436 3.02857 8 3.02857C10.7456 3.02857 12.9714 5.25436 12.9714 8Z" fill="#BDBDBD"/>
</svg>
