<svg width="60" height="60" viewBox="0 0 60 60" fill="none" xmlns="http://www.w3.org/2000/svg">
<rect x="2" y="2" width="56" height="56" rx="28" stroke="#FEFEFE" stroke-width="4"/>
<path d="M34.5 31.5H36V33H37.5V34.5H39V36H40.5V37.5H42V39H43.5V40.5H45V42H43.5V43.5H42V45H40.5V43.5H39V42H37.5V40.5H36V39H34.5V37.5H33V36H31.5V34.5H28.5V36H27V37.5H25.5V39H24V40.5H22.5V42H21V43.5H19.5V45H18V43.5H16.5V42H15V40.5H16.5V39H18V37.5H19.5V36H21V34.5H22.5V33H24V31.5H25.5V28.5H24V27H22.5V25.5H21V24H19.5V22.5H18V21H16.5V19.5H15V18H16.5V16.5H18V15H19.5V16.5H21V18H22.5V19.5H24V21H25.5V22.5H27V24H28.5V25.5H31.5V24H33V22.5H34.5V21H36V19.5H37.5V18H39V16.5H40.5V15H42V16.5H43.5V18H45V19.5H43.5V21H42V22.5H40.5V24H39V25.5H37.5V27H36V28.5H34.5V31.5Z" fill="#FEFEFE"/>
</svg>
