<svg width="23" height="21" viewBox="0 0 23 21" fill="none" xmlns="http://www.w3.org/2000/svg">
<g clip-path="url(#clip0_250_997)">
<path d="M11.4898 0C5.13156 0 0 4.05865 0 8.96539C0 12.1558 2.12622 14.9625 5.336 16.5577L4.25244 20.5558C4.25244 20.5558 4.232 20.6769 4.25244 20.7375C4.25244 20.7981 4.29333 20.8587 4.33422 20.899C4.39556 20.9596 4.47733 20.9798 4.57956 20.9798C4.66133 20.9798 4.72267 20.9394 4.784 20.899L9.44533 17.7894C10.1404 17.8904 10.8356 17.9308 11.5307 17.9308C17.8889 17.9308 23.0204 13.8721 23.0204 8.94519C23.0204 4.01827 17.848 0 11.4898 0Z" fill="#392020"/>
</g>
<defs>
<clipPath id="clip0_250_997">
<rect width="23" height="21" fill="white"/>
</clipPath>
</defs>
</svg>
