<svg width="45" height="43" viewBox="0 0 45 43" fill="none" xmlns="http://www.w3.org/2000/svg">
<rect x="1" width="43" height="43" fill="#D9D9D9" fill-opacity="0.01"/>
<path d="M12.9444 1.43359H15.3333V4.0639H17.7222V9.32451H27.2778V4.0639H29.6667V1.43359H32.0556V4.0639H34.4444V9.32451H36.8333V17.2154H39.2222V19.8457H41.6111V22.476H44V30.3669H41.6111V32.9972H39.2222V35.6276H36.8333V36.9427L32.9719 36.9859V41.5669H12.1686V36.9859H8.16667V35.6276H5.77778V32.9972H3.38889V30.3669H1V22.476H3.38889V19.8457H5.77778V17.2154H8.16667V9.32451H10.5556V4.0639H12.9444V1.43359Z" stroke="black" stroke-dasharray="1 1"/>
<path d="M24.6507 25.8013H25.3673V26.518H26.084V27.2346H26.8007V27.9513H27.5173V28.668H28.234V29.3846H28.9507V30.1013H29.6673V30.818H28.9507V31.5346H28.234V32.2513H27.5173V31.5346H26.8007V30.818H26.084V30.1013H25.3673V29.3846H24.6507V28.668H23.934V27.9513H23.2173V27.2346H21.784V27.9513H21.0673V28.668H20.3507V29.3846H19.634V30.1013H18.9173V30.818H18.2007V31.5346H17.484V32.2513H16.7673V31.5346H16.0507V30.818H15.334V30.1013H16.0507V29.3846H16.7673V28.668H17.484V27.9513H18.2007V27.2346H18.9173V26.518H19.634V25.8013H20.3507V24.368H19.634V23.6513H18.9173V22.9346H18.2007V22.218H17.484V21.5013H16.7673V20.7846H16.0507V20.068H15.334V19.3513H16.0507V18.6346H16.7673V17.918H17.484V18.6346H18.2007V19.3513H18.9173V20.068H19.634V20.7846H20.3507V21.5013H21.0673V22.218H21.784V22.9346H23.2173V22.218H23.934V21.5013H24.6507V20.7846H25.3673V20.068H26.084V19.3513H26.8007V18.6346H27.5173V17.918H28.234V18.6346H28.9507V19.3513H29.6673V20.068H28.9507V20.7846H28.234V21.5013H27.5173V22.218H26.8007V22.9346H26.084V23.6513H25.3673V24.368H24.6507V25.8013Z" fill="#192E47"/>
</svg>
