<svg width="233" height="51" viewBox="0 0 233 51" fill="none" xmlns="http://www.w3.org/2000/svg">
<path d="M0 33V-7.15256e-07H6V27H18V33H0ZM20.9883 30V12H23.9883V9H38.9883V12H41.9883V30H38.9883V33H23.9883V30H20.9883ZM26.9883 27H35.9883V15H26.9883V27ZM45 30V21H48V18H57V15H45V9H60V12H63V33H48V30H45ZM51 27H57V24H51V27ZM65.9883 30V12H68.9883V9H77.9883V12H80.9883V-7.15256e-07H86.9883V33H80.9883V30H77.9883V33H68.9883V30H65.9883ZM71.9883 27H77.9883V24H80.9883V18H77.9883V15H71.9883V27ZM90 33V9H96V33H90ZM90 6V-7.15256e-07H96V6H90ZM99 33V9H105V12H108V9H117V12H120V33H114V15H108V18H105V33H99ZM123.012 27V12H126.012V9H135.012V12H138.012V9H144.012V36H141.012V39H126.012V33H138.012V27H135.012V30H126.012V27H123.012ZM129.012 24H135.012V21H138.012V18H135.012V15H129.012V24Z" fill="#00E46C"/>
<rect x="186" y="26" width="10" height="10" fill="#00BF5A"/>
<rect x="162" y="26" width="10" height="10" fill="#00E46C"/>
<rect x="210" y="26" width="10" height="10" fill="#017337"/>
</svg>
