<svg width="121" height="27" viewBox="0 0 121 27" fill="none" xmlns="http://www.w3.org/2000/svg">
<path d="M100.49 25.6703V5.16016H121V8.09017H106.35V13.9502H118.07V16.8802H106.35V22.7403H121V25.6703H100.49Z" fill="#192E47"/>
<path d="M77.0488 25.6703V5.16016H97.5589V8.09017H82.9089V13.9502H94.6289V16.8802H82.9089V22.7403H97.5589V25.6703H77.0488Z" fill="#192E47"/>
<path d="M53.6074 25.6703V5.16016H68.2575V8.09017H71.1875V11.0202H74.1175V19.8102H71.1875V22.7403H68.2575V25.6703H53.6074ZM59.4675 22.7403H65.3275V19.8102H68.2575V11.0202H65.3275V8.09017H59.4675V22.7403Z" fill="#192E47"/>
<path d="M5.86003 25.6703V22.7403H2.93002V19.8102H0V11.0202H2.93002V8.09017H5.86003V5.16016H17.5801V8.09017H20.5101V11.0202H14.6501V8.09017H8.79005V11.0202H5.86003V19.8102H8.79005V22.7403H14.6501V19.8102H20.5101V22.7403H17.5801V25.6703H5.86003Z" fill="#192E47"/>
<path d="M30.2826 1H31.9649V2.68231H33.6472V6.04692H40.3765V2.68231H42.0588V1H43.7411V2.68231H45.4234V6.04692H47.1057V11.0938H48.788V12.7761H50.4703V14.4584H52.1526V19.5054H50.4703V21.1877H48.788V22.87H47.1057V23.7111L44.3864 23.7388V26.6687H29.7363V23.7388H26.918V22.87H25.2357V21.1877H23.5534V19.5054H21.8711V14.4584H23.5534V12.7761H25.2357V11.0938H26.918V6.04692H28.6003V2.68231H30.2826V1Z" fill="#32CD32"/>
<path d="M32 13H34.8571V14.4286H32V13Z" fill="white"/>
<path d="M39.1429 13H42V14.4286H39.1429V13Z" fill="white"/>
<path d="M37.7143 15.8571H36.2857V17.2857H34.8571V18.7143H33.4286V20.1429H34.8571V18.7143H36.2857V17.2857H37.7143V18.7143H39.1429V20.1429H40.5714V18.7143H39.1429V17.2857H37.7143V15.8571Z" fill="white"/>
</svg>
