<svg width="133" height="15" viewBox="0 0 133 15" fill="none" xmlns="http://www.w3.org/2000/svg">
<path d="M0 13V0.399999H1.4V4.6H5.6V6H1.4V11.6H5.6V13H0ZM5.6 11.6V6H7V11.6H5.6ZM8.39453 11.6V8.8H9.79453V11.6H8.39453ZM8.39453 6V4.6H13.9945V6H8.39453ZM9.79453 11.6H13.9945V8.8H9.79453V7.4H13.9945V6H15.3945V13H9.79453V11.6ZM16.7891 11.6V6H18.1891V11.6H16.7891ZM18.1891 11.6H23.7891V13H18.1891V11.6ZM18.1891 6V4.6H23.7891V6H18.1891ZM25.1836 13V0.399999H26.5836V7.4H27.9836V8.8H26.5836V13H25.1836ZM27.9836 10.2V8.8H29.3836V10.2H27.9836ZM27.9836 7.4V6H29.3836V7.4H27.9836ZM29.3836 10.2H30.7836V13H29.3836V10.2ZM29.3836 6V4.6H30.7836V6H29.3836ZM32.1836 14.4V13H37.7836V14.4H32.1836ZM32.1836 10.2V6H33.5836V10.2H32.1836ZM33.5836 10.2H37.7836V6H33.5836V4.6H39.1836V13H37.7836V11.6H33.5836V10.2ZM40.5781 13V4.6H41.9781V6H43.3781V7.4H41.9781V13H40.5781ZM46.1781 6H43.3781V4.6H46.1781V6ZM47.5781 11.6V6H48.9781V11.6H47.5781ZM53.1781 11.6V13H48.9781V11.6H53.1781ZM53.1781 6H54.5781V11.6H53.1781V6ZM53.1781 4.6V6H48.9781V4.6H53.1781ZM55.9727 11.6V4.6H57.3727V11.6H55.9727ZM61.5727 11.6V4.6H62.9727V13H57.3727V11.6H61.5727ZM64.3672 13V4.6H69.9672V6H65.7672V13H64.3672ZM69.9672 13V6H71.3672V13H69.9672ZM72.7617 11.6V6H74.1617V11.6H72.7617ZM78.3617 11.6V6H74.1617V4.6H78.3617V0.399999H79.7617V13H74.1617V11.6H78.3617ZM86.7617 13V11.6H90.9617V13H86.7617ZM86.7617 7.4V6H88.1617V7.4H86.7617ZM88.1617 6V4.6H92.3617V6H88.1617ZM88.1617 7.4H90.9617V8.8H88.1617V7.4ZM90.9617 11.6V8.8H92.3617V11.6H90.9617ZM93.7617 11.6V4.6H95.1617V11.6H93.7617ZM99.3617 11.6V4.6H100.762V13H95.1617V11.6H99.3617ZM102.156 13V4.6H103.556V6H104.956V7.4H103.556V13H102.156ZM107.756 6H104.956V4.6H107.756V6ZM109.156 7.4V4.6H110.556V7.4H109.156ZM110.556 10.2V7.4H111.956V10.2H110.556ZM111.956 10.2H113.356V13H111.956V10.2ZM113.356 10.2V7.4H114.756V10.2H113.356ZM114.756 7.4V4.6H116.156V7.4H114.756ZM117.551 11.6V6H118.951V7.4H123.151V6H124.551V8.8H118.951V11.6H117.551ZM118.951 11.6H124.551V13H118.951V11.6ZM118.951 6V4.6H123.151V6H118.951ZM125.945 14.4V13H128.745V14.4H125.945ZM125.945 7.4V4.6H127.345V7.4H125.945ZM127.345 10.2V7.4H128.745V10.2H127.345ZM128.745 10.2H130.145V13H128.745V10.2ZM130.145 10.2V7.4H131.545V10.2H130.145ZM131.545 7.4V4.6H132.945V7.4H131.545Z" fill="#222222"/>
</svg>
