<svg width="73" height="18" viewBox="0 0 73 18" fill="none" xmlns="http://www.w3.org/2000/svg">
<path d="M0 15V0.333333H2.66667V3H4V5.66667H5.33333V8.33333H6.66667V5.66667H8V3H9.33333V0.333333H12V15H9.33333V9.66667H8V12.3333H6.66667V15H5.33333V12.3333H4V9.66667H2.66667V15H0ZM13.3281 15H15.9948V11H14.6615V8.33333H13.3281V4.33333H15.9948V7H17.3281V9.66667H18.6615V7H19.9948V4.33333H22.6615V8.33333H21.3281V12.3333H19.9948V15H18.6615V16.3333H17.3281V17.6667H13.3281V15ZM30.6719 13.6667V1.66667H32.0052V0.333333H38.6719V1.66667H40.0052V4.33333H37.3385V3H33.3385V12.3333H37.3385V11H40.0052V13.6667H38.6719V15H32.0052V13.6667H30.6719ZM41.3438 13.6667V5.66667H42.6771V4.33333H49.3438V5.66667H50.6771V13.6667H49.3438V15H42.6771V13.6667H41.3438ZM44.0104 12.3333H48.0104V7H44.0104V12.3333ZM52.0156 13.6667V5.66667H53.349V4.33333H57.349V5.66667H58.6823V0.333333H61.349V15H58.6823V13.6667H57.349V15H53.349V13.6667H52.0156ZM54.6823 12.3333H57.349V11H58.6823V8.33333H57.349V7H54.6823V12.3333ZM62.6875 13.6667V5.66667H64.0208V4.33333H70.6875V5.66667H72.0208V11H65.3542V12.3333H72.0208V15H64.0208V13.6667H62.6875ZM65.3542 8.33333H69.3542V7H65.3542V8.33333Z" fill="white"/>
</svg>
