<svg width="344" height="282" viewBox="0 0 344 282" fill="none" xmlns="http://www.w3.org/2000/svg">
<g filter="url(#filter0_d_834_1992)">
<path d="M39.9419 14.8768C39.1365 15.5109 38.1833 15.859 37.1966 15.859L18.2022 15.859C12.5677 15.859 8.00002 21.2723 8.00002 27.95L8.00002 261.909C8.00002 268.587 12.5677 274 18.2022 274L325.798 274C331.432 274 336 268.587 336 261.909L336 27.9499C336 21.2723 331.432 15.859 325.798 15.859L52.2591 15.859C51.2723 15.859 50.319 15.5108 49.5136 14.8766L44.7279 7.99997L39.9419 14.8768Z" fill="#FAFAFA"/>
</g>
<path d="M31.3945 36.4805V40.5234H29.0508V42.3398C30.0879 42.3281 31.0723 42.2812 32.1797 42.0703L32.3086 43.2891C30.9141 43.5469 29.7188 43.5703 28.3711 43.582H27.6211V39.3398H29.9531V37.6641H27.6094V36.4805H31.3945ZM36.5391 35.4141V46.0781H35.1211V35.4141H36.5391ZM34.3242 35.6133V45.5625H32.9297V40.2656H31.8398V39.0586H32.9297V35.6133H34.3242ZM46.8516 35.4258V40.9336H45.4336V35.4258H46.8516ZM44.6484 35.6016V40.8867H43.2656V38.8477H42.3164V40.582H38.0625V36.0117H39.4805V37.1719H40.9336V36.0117H42.3164V37.6523H43.2656V35.6016H44.6484ZM46.8516 41.3438V44.1797H41.0742V44.8594H47.2148V46.0078H39.5625V43.0898H45.3516V42.4922H39.5508V41.3438H46.8516ZM39.4805 39.4336H40.9336V38.2852H39.4805V39.4336ZM56.5312 36V36.7148C56.5312 37.6055 56.5312 38.8359 56.25 40.5938H57.7852V41.8008H55.4766V46.0781H53.9883V41.8008H51.7734V46.0781H50.2734V41.8008H48.0586V40.5938H54.7383C55.0078 39.1523 55.0547 38.0449 55.0781 37.207H49.2188V36H56.5312ZM67.418 35.4141V41.7422H65.9297V39.2227H64.2656V38.0156H65.9297V35.4141H67.418ZM63.7734 41.9766C66.0469 41.9883 67.4414 42.7383 67.4531 44.0391C67.4414 45.3281 66.0469 46.0898 63.7734 46.0898C61.5 46.0898 60.1055 45.3281 60.1055 44.0391C60.1055 42.7383 61.5 41.9883 63.7734 41.9766ZM63.7734 43.125C62.3555 43.125 61.5938 43.418 61.5938 44.0391C61.5938 44.6484 62.3555 44.9531 63.7734 44.9531C65.1914 44.9531 65.9648 44.6484 65.9648 44.0391C65.9648 43.418 65.1914 43.125 63.7734 43.125ZM64.582 36.0586V37.2539H62.4609C62.4961 38.4961 63.2461 39.75 64.9102 40.3008L64.1719 41.4727C62.9941 41.0918 62.1855 40.3184 61.7227 39.3516C61.248 40.4414 60.3984 41.3203 59.1328 41.7539L58.3594 40.5703C60.1113 39.9844 60.8965 38.5898 60.9375 37.2539H58.793V36.0586H64.582Z" fill="#192E47"/>
<rect x="24" y="90" width="295.728" height="27" fill="#F4F4F4"/>
<rect x="24" y="117" width="295.728" height="135" fill="white"/>
<path d="M24 117H319.728" stroke="#DBDBDB" stroke-width="0.644427"/>
<path d="M24 144H319.728" stroke="#DBDBDB" stroke-width="0.644427"/>
<path d="M24 90H319.529" stroke="#DBDBDB" stroke-width="0.644427"/>
<path d="M24 171H319.728" stroke="#DBDBDB" stroke-width="0.644427"/>
<path d="M24 198L320 197.638" stroke="#DBDBDB" stroke-width="0.644427"/>
<path d="M24 225H319.728" stroke="#DBDBDB" stroke-width="0.644427"/>
<path d="M24 252H319.728" stroke="#DBDBDB" stroke-width="0.644427"/>
<path d="M40.2666 99.6631V102.581H38.3857V104.071C39.2031 104.062 39.981 104.027 40.8818 103.864L40.9609 104.664C39.8931 104.862 38.9966 104.879 37.999 104.884H37.4453V101.808H39.3262V100.445H37.4365V99.6631H40.2666ZM40.6182 102.396V101.597H41.4883V99.0039H42.4111V106.378H41.4883V102.396H40.6182ZM43.1143 106.782V98.8369H44.0459V106.782H43.1143ZM51.7803 98.8457V102.977H50.8486V98.8457H51.7803ZM45.2939 102.669V99.2939H46.2168V100.226H47.5264V99.2939H48.4316V100.551H49.249V98.9951H50.1631V102.933H49.249V101.342H48.4316V102.669H45.2939ZM46.2168 101.913H47.5264V100.955H46.2168V101.913ZM46.4014 104.058V103.302H51.7803V105.332H47.3945V105.956H52.0615V106.712H46.4102V104.611H50.8047V104.058H46.4014Z" fill="#313944"/>
<path d="M38.3066 127.637V134H37.5508V127.637H38.3066ZM41.5146 134.097C40.1348 134.101 39.2822 133.117 39.2822 131.653C39.2822 130.186 40.1479 129.166 41.4443 129.166C42.4463 129.166 43.5054 129.781 43.501 131.548V131.864H40.0381C40.0776 132.875 40.6665 133.429 41.5146 133.429C42.0859 133.429 42.4463 133.178 42.6221 132.884H43.4307C43.2065 133.609 42.499 134.101 41.5146 134.097ZM40.0425 131.223H42.7363C42.7319 130.427 42.231 129.834 41.4443 129.834C40.6182 129.834 40.0952 130.484 40.0425 131.223ZM48.2646 129.228L46.498 134H45.7158L43.958 129.228H44.7842L46.085 133.016H46.1377L47.4385 129.228H48.2646ZM50.9277 134.097C49.5479 134.101 48.6953 133.117 48.6953 131.653C48.6953 130.186 49.561 129.166 50.8574 129.166C51.8594 129.166 52.9185 129.781 52.9141 131.548V131.864H49.4512C49.4907 132.875 50.0796 133.429 50.9277 133.429C51.499 133.429 51.8594 133.178 52.0352 132.884H52.8438C52.6196 133.609 51.9121 134.101 50.9277 134.097ZM49.4556 131.223H52.1494C52.145 130.427 51.644 129.834 50.8574 129.834C50.0312 129.834 49.5083 130.484 49.4556 131.223ZM54.6543 127.637V134H53.8984V127.637H54.6543ZM60.3584 127.637V134H59.5586V128.463H59.5234L57.9766 129.491V128.691L59.5586 127.637H60.3584Z" fill="#383C47"/>
<path d="M104.01 130.933V131.627H101.224V130.933H104.01Z" fill="#383C47"/>
<path d="M175.701 130.933V131.627H172.915V130.933H175.701Z" fill="#383C47"/>
<path d="M255.641 127.241C256.823 127.237 257.609 127.804 257.618 128.683C257.609 129.557 256.823 130.12 255.641 130.124C254.458 130.12 253.663 129.557 253.663 128.683C253.663 127.804 254.458 127.237 255.641 127.241ZM253.048 130.722C254.52 130.726 256.484 130.713 258.172 130.467L258.225 130.977C257.535 131.095 256.814 131.166 256.106 131.214V132.567H255.421V131.249C254.604 131.284 253.826 131.293 253.153 131.293L253.048 130.722ZM254.164 134.545V132.295H254.85V133.965H259.666V134.545H254.164ZM254.322 128.683C254.318 129.228 254.854 129.601 255.641 129.597C256.432 129.601 256.963 129.228 256.968 128.683C256.963 128.133 256.432 127.764 255.641 127.769C254.854 127.764 254.318 128.133 254.322 128.683ZM258.752 132.84V126.898H259.438V132.84H258.752ZM267.128 130.563V131.126H264.711V133.147H267.972V133.728H260.817V133.147H264.034V131.126H261.731V127.54H267.049V128.103H262.426V130.563H267.128ZM275.741 131.381V131.961H272.48V134.712H271.804V131.961H268.587V131.381H275.741ZM269.396 128.938C269.4 127.878 270.503 127.219 272.146 127.215C273.786 127.219 274.897 127.878 274.897 128.938C274.897 129.979 273.786 130.638 272.146 130.634C270.503 130.638 269.4 129.979 269.396 128.938ZM270.107 128.938C270.099 129.632 270.929 130.08 272.146 130.08C273.364 130.08 274.19 129.632 274.194 128.938C274.19 128.23 273.364 127.777 272.146 127.777C270.929 127.777 270.099 128.23 270.107 128.938ZM278.773 127.549C279.868 127.562 281.085 128.221 281.085 130.563C281.085 132.827 280.158 134.088 278.668 134.088C277.547 134.088 276.761 133.402 276.603 132.392H277.385C277.525 132.963 277.96 133.385 278.668 133.385C279.705 133.385 280.338 132.488 280.347 130.941H280.259C279.894 131.469 279.31 131.785 278.633 131.785C277.495 131.785 276.55 130.911 276.55 129.685C276.55 128.498 277.42 127.536 278.773 127.549ZM277.323 129.676C277.319 130.462 277.917 131.091 278.747 131.091C279.578 131.091 280.224 130.405 280.224 129.658C280.224 128.929 279.613 128.243 278.773 128.243C277.943 128.243 277.314 128.889 277.323 129.676ZM284.302 134.088C282.961 134.088 282.039 133.345 282.043 132.312C282.039 131.491 282.61 130.81 283.335 130.695V130.66C282.702 130.515 282.285 129.931 282.289 129.236C282.285 128.265 283.137 127.549 284.302 127.549C285.462 127.549 286.314 128.265 286.323 129.236C286.314 129.931 285.893 130.515 285.269 130.66V130.695C285.989 130.81 286.561 131.491 286.569 132.312C286.561 133.345 285.629 134.088 284.302 134.088ZM282.834 132.269C282.821 132.937 283.388 133.389 284.302 133.394C285.211 133.389 285.778 132.937 285.778 132.269C285.778 131.565 285.159 131.047 284.302 131.047C283.449 131.047 282.821 131.565 282.834 132.269ZM283.054 129.298C283.058 129.939 283.572 130.375 284.302 130.379C285.027 130.375 285.55 129.939 285.55 129.298C285.55 128.661 285.044 128.23 284.302 128.234C283.546 128.23 283.058 128.661 283.054 129.298Z" fill="#383C47"/>
<path d="M255.648 154.225C256.833 154.22 257.621 154.789 257.63 155.67C257.621 156.546 256.833 157.11 255.648 157.115C254.463 157.11 253.665 156.546 253.665 155.67C253.665 154.789 254.463 154.22 255.648 154.225ZM253.049 157.714C254.524 157.718 256.494 157.705 258.185 157.458L258.238 157.969C257.546 158.088 256.824 158.159 256.115 158.207V159.564H255.427V158.242C254.608 158.278 253.828 158.286 253.154 158.286L253.049 157.714ZM254.168 161.546V159.291H254.855V160.965H259.683V161.546H254.168ZM254.326 155.67C254.322 156.216 254.859 156.59 255.648 156.586C256.441 156.59 256.974 156.216 256.978 155.67C256.974 155.119 256.441 154.749 255.648 154.753C254.859 154.749 254.322 155.119 254.326 155.67ZM258.767 159.837V153.881H259.454V159.837H258.767ZM267.163 157.555V158.119H264.74V160.145H268.009V160.727H260.837V160.145H264.062V158.119H261.753V154.524H267.084V155.088H262.449V157.555H267.163ZM275.797 158.374V158.956H272.529V161.714H271.85V158.956H268.626V158.374H275.797ZM269.436 155.925C269.441 154.863 270.546 154.203 272.194 154.198C273.837 154.203 274.952 154.863 274.952 155.925C274.952 156.969 273.837 157.63 272.194 157.626C270.546 157.63 269.441 156.969 269.436 155.925ZM270.15 155.925C270.141 156.621 270.974 157.071 272.194 157.071C273.414 157.071 274.242 156.621 274.247 155.925C274.242 155.216 273.414 154.762 272.194 154.762C270.974 154.762 270.141 155.216 270.15 155.925ZM277.225 154.621L278.846 157.256H278.899L280.529 154.621H281.463L279.463 157.811L281.463 161H280.529L278.899 158.419H278.846L277.216 161H276.282L278.335 157.811L276.282 154.621H277.225ZM282.344 161V154.621H284.511C286.004 154.621 286.687 155.511 286.687 156.648C286.687 157.78 286.004 158.683 284.52 158.683H283.137V161H282.344ZM283.137 157.978H284.485C285.502 157.978 285.899 157.405 285.903 156.648C285.899 155.885 285.502 155.326 284.476 155.326H283.137V157.978Z" fill="#383C47"/>
<path d="M255.137 181.489C256.291 181.493 257.11 182.555 257.119 184.22C257.11 185.89 256.291 186.947 255.137 186.943C253.974 186.947 253.159 185.89 253.163 184.22C253.159 182.555 253.974 181.493 255.137 181.489ZM253.815 184.22C253.82 185.493 254.361 186.33 255.137 186.326C255.921 186.33 256.45 185.493 256.45 184.22C256.45 182.947 255.921 182.11 255.137 182.106C254.361 182.11 253.82 182.947 253.815 184.22ZM258.414 188.714V180.881H259.101V184.009H260.414V184.608H259.101V188.714H258.414ZM267.295 180.881V188.731H266.599V180.881H267.295ZM261.128 184.22C261.132 182.555 261.96 181.493 263.128 181.489C264.291 181.493 265.132 182.555 265.128 184.22C265.132 185.89 264.291 186.947 263.128 186.943C261.96 186.947 261.132 185.89 261.128 184.22ZM261.797 184.22C261.797 185.493 262.344 186.33 263.128 186.326C263.916 186.33 264.458 185.493 264.458 184.22C264.458 182.947 263.916 182.11 263.128 182.106C262.344 182.11 261.797 182.947 261.797 184.22ZM275.286 180.89V185.551H274.626V183.48H273.586V185.498H272.934V181.04H273.586V182.908H274.626V180.89H275.286ZM268.996 184.952V181.56H272.027V184.952H268.996ZM269.648 184.414H271.383V182.106H269.648V184.414ZM270.009 186.546V185.991H275.286V188.714H274.608V186.546H270.009Z" fill="#383C47"/>
<path d="M254.916 208.498C255.868 208.502 256.582 209.15 256.696 210.128H257.542V208.04H258.194V213.52H257.542V210.709H256.692C256.564 211.656 255.855 212.295 254.916 212.286C253.868 212.295 253.124 211.515 253.128 210.401C253.124 209.273 253.868 208.502 254.916 208.498ZM253.753 210.401C253.745 211.163 254.242 211.696 254.916 211.696C255.582 211.696 256.079 211.163 256.088 210.401C256.079 209.643 255.582 209.093 254.916 209.097C254.242 209.093 253.745 209.643 253.753 210.401ZM254.555 215.546V212.991H255.242V214.965H259.93V215.546H254.555ZM259.031 213.749V207.881H259.692V213.749H259.031ZM267.295 207.881V215.731H266.599V207.881H267.295ZM261.295 213.837V208.551H261.983V210.621H264.317V208.551H264.996V213.837H261.295ZM261.983 213.256H264.317V211.176H261.983V213.256ZM275.093 207.881V215.731H274.397V207.881H275.093ZM269.145 213.784V208.63H272.872V209.211H269.841V213.185C271.366 213.185 272.366 213.141 273.542 212.93L273.612 213.511C272.397 213.727 271.366 213.78 269.78 213.784H269.145ZM278.529 208.489C279.683 208.493 280.502 209.555 280.511 211.22C280.502 212.89 279.683 213.947 278.529 213.943C277.366 213.947 276.551 212.89 276.555 211.22C276.551 209.555 277.366 208.493 278.529 208.489ZM277.207 211.22C277.211 212.493 277.753 213.33 278.529 213.326C279.313 213.33 279.841 212.493 279.841 211.22C279.841 209.947 279.313 209.11 278.529 209.106C277.753 209.11 277.211 209.947 277.207 211.22ZM281.806 215.714V207.881H282.493V211.009H283.806V211.608H282.493V215.714H281.806Z" fill="#383C47"/>
<path d="M172.09 154.549C173.185 154.562 174.402 155.221 174.402 157.563C174.402 159.827 173.475 161.088 171.985 161.088C170.864 161.088 170.078 160.402 169.919 159.392H170.702C170.842 159.963 171.277 160.385 171.985 160.385C173.022 160.385 173.655 159.488 173.664 157.941H173.576C173.211 158.469 172.626 158.785 171.95 158.785C170.812 158.785 169.867 157.911 169.867 156.685C169.867 155.498 170.737 154.536 172.09 154.549ZM170.64 156.676C170.636 157.462 171.233 158.091 172.064 158.091C172.895 158.091 173.541 157.405 173.541 156.658C173.541 155.929 172.93 155.243 172.09 155.243C171.26 155.243 170.631 155.889 170.64 156.676ZM177.575 161.088C176.164 161.088 175.347 159.901 175.351 157.818C175.347 155.753 176.173 154.549 177.575 154.549C178.972 154.549 179.798 155.753 179.798 157.818C179.798 159.901 178.985 161.088 177.575 161.088ZM176.116 157.818C176.12 159.466 176.652 160.385 177.575 160.385C178.493 160.385 179.029 159.466 179.025 157.818C179.029 156.17 178.489 155.239 177.575 155.234C176.661 155.239 176.12 156.17 176.116 157.818ZM183.217 161V154.637H187.076V155.34H184.008V157.467H186.874V158.161H184.008V160.297H187.12V161H183.217ZM188.728 154.637L190.345 157.265H190.398L192.024 154.637H192.956L190.96 157.818L192.956 161H192.024L190.398 158.425H190.345L188.719 161H187.788L189.835 157.818L187.788 154.637H188.728ZM193.834 161V154.637H195.997C197.486 154.637 198.167 155.524 198.167 156.658C198.167 157.788 197.486 158.688 196.005 158.688H194.625V161H193.834ZM194.625 157.985H195.97C196.985 157.985 197.381 157.414 197.385 156.658C197.381 155.898 196.985 155.34 195.961 155.34H194.625V157.985Z" fill="#383C47"/>
<path d="M172.222 181.637V188H171.422V182.463H171.387L169.84 183.491V182.691L171.422 181.637H172.222ZM176.133 188.088C175.03 188.075 173.813 187.42 173.813 185.064C173.813 182.81 174.736 181.549 176.23 181.549C177.351 181.549 178.133 182.239 178.295 183.236H177.513C177.368 182.674 176.938 182.252 176.23 182.252C175.184 182.252 174.556 183.144 174.56 184.678H174.639C175.004 184.146 175.588 183.834 176.274 183.834C177.403 183.834 178.348 184.713 178.348 185.943C178.348 187.143 177.474 188.101 176.133 188.088ZM174.666 185.961C174.67 186.708 175.281 187.389 176.133 187.394C176.955 187.389 177.579 186.743 177.583 185.952C177.579 185.17 176.981 184.533 176.151 184.528C175.316 184.533 174.674 185.209 174.666 185.961ZM181.521 188.088C180.11 188.088 179.293 186.901 179.297 184.818C179.293 182.753 180.119 181.549 181.521 181.549C182.918 181.549 183.745 182.753 183.745 184.818C183.745 186.901 182.932 188.088 181.521 188.088ZM180.062 184.818C180.066 186.466 180.598 187.385 181.521 187.385C182.439 187.385 182.976 186.466 182.971 184.818C182.976 183.17 182.435 182.239 181.521 182.234C180.607 182.239 180.066 183.17 180.062 184.818ZM187.164 188V181.637H191.022V182.34H187.955V184.467H190.82V185.161H187.955V187.297H191.066V188H187.164ZM192.674 181.637L194.292 184.265H194.344L195.97 181.637H196.902L194.907 184.818L196.902 188H195.97L194.344 185.425H194.292L192.666 188H191.734L193.782 184.818L191.734 181.637H192.674ZM197.781 188V181.637H199.943C201.433 181.637 202.114 182.524 202.114 183.658C202.114 184.788 201.433 185.688 199.952 185.688H198.572V188H197.781ZM198.572 184.985H199.917C200.932 184.985 201.327 184.414 201.332 183.658C201.327 182.898 200.932 182.34 199.908 182.34H198.572V184.985Z" fill="#383C47"/>
<path d="M169.972 215L169.963 214.42L172.134 212.135C172.886 211.335 173.246 210.904 173.25 210.315C173.246 209.661 172.701 209.239 171.985 209.234C171.225 209.239 170.75 209.718 170.746 210.43H169.999C169.99 209.305 170.86 208.549 172.011 208.549C173.167 208.549 173.984 209.327 173.989 210.315C173.984 211.027 173.655 211.581 172.53 212.741L171.071 214.244V214.297H174.103V215H169.972ZM177.329 215.088C176.182 215.088 175.312 214.38 175.263 213.4H176.028C176.085 213.967 176.639 214.389 177.329 214.394C178.155 214.389 178.752 213.787 178.752 212.987C178.752 212.161 178.133 211.55 177.276 211.546C176.74 211.537 176.322 211.704 176.089 212.117H175.325L175.773 208.637H179.218V209.34H176.432L176.195 211.203H176.256C176.542 210.983 176.968 210.834 177.417 210.834C178.629 210.834 179.521 211.73 179.526 212.97C179.521 214.2 178.599 215.088 177.329 215.088ZM182.708 215.088C181.297 215.088 180.479 213.901 180.484 211.818C180.479 209.753 181.306 208.549 182.708 208.549C184.105 208.549 184.931 209.753 184.931 211.818C184.931 213.901 184.118 215.088 182.708 215.088ZM181.249 211.818C181.253 213.466 181.785 214.385 182.708 214.385C183.626 214.385 184.162 213.466 184.158 211.818C184.162 210.17 183.622 209.239 182.708 209.234C181.793 209.239 181.253 210.17 181.249 211.818ZM188.35 215V208.637H192.208V209.34H189.141V211.467H192.006V212.161H189.141V214.297H192.252V215H188.35ZM193.861 208.637L195.478 211.265H195.531L197.157 208.637H198.088L196.093 211.818L198.088 215H197.157L195.531 212.425H195.478L193.852 215H192.92L194.968 211.818L192.92 208.637H193.861ZM198.967 215V208.637H201.129C202.619 208.637 203.3 209.524 203.3 210.658C203.3 211.788 202.619 212.688 201.138 212.688H199.758V215H198.967ZM199.758 211.985H201.103C202.118 211.985 202.514 211.414 202.518 210.658C202.514 209.898 202.118 209.34 201.094 209.34H199.758V211.985Z" fill="#383C47"/>
<path d="M103.386 154.549C104.48 154.562 105.698 155.221 105.698 157.563C105.698 159.827 104.771 161.088 103.281 161.088C102.16 161.088 101.374 160.402 101.215 159.392H101.998C102.138 159.963 102.573 160.385 103.281 160.385C104.318 160.385 104.951 159.488 104.959 157.941H104.872C104.507 158.469 103.922 158.785 103.246 158.785C102.107 158.785 101.163 157.911 101.163 156.685C101.163 155.498 102.033 154.536 103.386 154.549ZM101.936 156.676C101.932 157.462 102.529 158.091 103.36 158.091C104.19 158.091 104.836 157.405 104.836 156.658C104.836 155.929 104.226 155.243 103.386 155.243C102.556 155.243 101.927 155.889 101.936 156.676ZM113.652 157.897V158.469H110.47V160.068H109.785V158.469H106.498V157.897H113.652ZM107.412 161.545V159.295H108.106V160.965H112.852V161.545H107.412ZM107.429 157.001V154.285H112.72V157.001H107.429ZM108.106 156.447H112.035V154.83H108.106V156.447ZM120.964 153.898V161.712H120.305V153.898H120.964ZM114.188 159.629C115.278 158.979 115.915 157.55 115.911 156.131V155.393H114.408V154.821H118.011V155.393H116.579V156.131C116.579 157.48 117.189 158.829 118.266 159.453L117.844 159.963C117.075 159.501 116.53 158.658 116.258 157.665C115.977 158.741 115.41 159.66 114.627 160.147L114.188 159.629ZM117.414 157.282V156.72H118.732V154.092H119.382V161.308H118.732V157.282H117.414Z" fill="#383C47"/>
<path d="M103.518 181.637V188H102.718V182.463H102.683L101.136 183.491V182.691L102.718 181.637H103.518ZM107.429 188.088C106.326 188.075 105.109 187.42 105.109 185.064C105.109 182.81 106.032 181.549 107.526 181.549C108.646 181.549 109.429 182.239 109.591 183.236H108.809C108.664 182.674 108.233 182.252 107.526 182.252C106.48 182.252 105.852 183.144 105.856 184.678H105.935C106.3 184.146 106.884 183.834 107.57 183.834C108.699 183.834 109.644 184.713 109.644 185.943C109.644 187.143 108.77 188.101 107.429 188.088ZM105.961 185.961C105.966 186.708 106.577 187.389 107.429 187.394C108.251 187.389 108.875 186.743 108.879 185.952C108.875 185.17 108.277 184.533 107.447 184.528C106.612 184.533 105.97 185.209 105.961 185.961ZM117.598 184.897V185.469H114.417V187.068H113.731V185.469H110.444V184.897H117.598ZM111.358 188.545V186.295H112.052V187.965H116.798V188.545H111.358ZM111.375 184.001V181.285H116.667V184.001H111.375ZM112.052 183.447H115.981V181.83H112.052V183.447ZM124.911 180.898V188.712H124.251V180.898H124.911ZM118.134 186.629C119.224 185.979 119.861 184.55 119.857 183.131V182.393H118.354V181.821H121.958V182.393H120.525V183.131C120.525 184.48 121.136 185.829 122.212 186.453L121.791 186.963C121.021 186.501 120.477 185.658 120.204 184.665C119.923 185.741 119.356 186.66 118.574 187.147L118.134 186.629ZM121.36 184.282V183.72H122.678V181.092H123.329V188.308H122.678V184.282H121.36Z" fill="#383C47"/>
<path d="M101.268 215L101.259 214.42L103.43 212.135C104.182 211.335 104.542 210.904 104.546 210.315C104.542 209.661 103.997 209.239 103.281 209.234C102.521 209.239 102.046 209.718 102.042 210.43H101.294C101.286 209.305 102.156 208.549 103.307 208.549C104.463 208.549 105.28 209.327 105.285 210.315C105.28 211.027 104.951 211.581 103.826 212.741L102.367 214.244V214.297H105.399V215H101.268ZM108.625 215.088C107.478 215.088 106.607 214.38 106.559 213.4H107.324C107.381 213.967 107.935 214.389 108.625 214.394C109.451 214.389 110.048 213.787 110.048 212.987C110.048 212.161 109.429 211.55 108.572 211.546C108.036 211.537 107.618 211.704 107.385 212.117H106.621L107.069 208.637H110.514V209.34H107.728L107.491 211.203H107.552C107.838 210.983 108.264 210.834 108.712 210.834C109.925 210.834 110.817 211.73 110.822 212.97C110.817 214.2 109.895 215.088 108.625 215.088ZM118.785 211.897V212.469H115.603V214.068H114.917V212.469H111.63V211.897H118.785ZM112.544 215.545V213.295H113.239V214.965H117.985V215.545H112.544ZM112.562 211.001V208.285H117.853V211.001H112.562ZM113.239 210.447H117.167V208.83H113.239V210.447ZM126.097 207.898V215.712H125.438V207.898H126.097ZM119.321 213.629C120.411 212.979 121.048 211.55 121.043 210.131V209.393H119.541V208.821H123.144V209.393H121.711V210.131C121.711 211.48 122.322 212.829 123.399 213.453L122.977 213.963C122.208 213.501 121.663 212.658 121.391 211.665C121.109 212.741 120.542 213.66 119.76 214.147L119.321 213.629ZM122.546 211.282V210.72H123.865V208.092H124.515V215.308H123.865V211.282H122.546Z" fill="#383C47"/>
<path d="M38.3066 154.637V161H37.5508V154.637H38.3066ZM41.5146 161.097C40.1348 161.101 39.2822 160.117 39.2822 158.653C39.2822 157.186 40.1479 156.166 41.4443 156.166C42.4463 156.166 43.5054 156.781 43.501 158.548V158.864H40.0381C40.0776 159.875 40.6665 160.429 41.5146 160.429C42.0859 160.429 42.4463 160.178 42.6221 159.884H43.4307C43.2065 160.609 42.499 161.101 41.5146 161.097ZM40.0425 158.223H42.7363C42.7319 157.427 42.231 156.834 41.4443 156.834C40.6182 156.834 40.0952 157.484 40.0425 158.223ZM48.2646 156.228L46.498 161H45.7158L43.958 156.228H44.7842L46.085 160.016H46.1377L47.4385 156.228H48.2646ZM50.9277 161.097C49.5479 161.101 48.6953 160.117 48.6953 158.653C48.6953 157.186 49.561 156.166 50.8574 156.166C51.8594 156.166 52.9185 156.781 52.9141 158.548V158.864H49.4512C49.4907 159.875 50.0796 160.429 50.9277 160.429C51.499 160.429 51.8594 160.178 52.0352 159.884H52.8438C52.6196 160.609 51.9121 161.101 50.9277 161.097ZM49.4556 158.223H52.1494C52.145 157.427 51.644 156.834 50.8574 156.834C50.0312 156.834 49.5083 157.484 49.4556 158.223ZM54.6543 154.637V161H53.8984V154.637H54.6543ZM58.1084 161L58.0996 160.42L60.2705 158.135C61.022 157.335 61.3823 156.904 61.3867 156.315C61.3823 155.661 60.8374 155.239 60.1211 155.234C59.3608 155.239 58.8862 155.718 58.8818 156.43H58.1348C58.126 155.305 58.9961 154.549 60.1475 154.549C61.3032 154.549 62.1206 155.327 62.125 156.315C62.1206 157.027 61.791 157.581 60.666 158.741L59.207 160.244V160.297H62.2393V161H58.1084Z" fill="#383C47"/>
<path d="M38.3066 181.637V188H37.5508V181.637H38.3066ZM41.5146 188.097C40.1348 188.101 39.2822 187.117 39.2822 185.653C39.2822 184.186 40.1479 183.166 41.4443 183.166C42.4463 183.166 43.5054 183.781 43.501 185.548V185.864H40.0381C40.0776 186.875 40.6665 187.429 41.5146 187.429C42.0859 187.429 42.4463 187.178 42.6221 186.884H43.4307C43.2065 187.609 42.499 188.101 41.5146 188.097ZM40.0425 185.223H42.7363C42.7319 184.427 42.231 183.834 41.4443 183.834C40.6182 183.834 40.0952 184.484 40.0425 185.223ZM48.2646 183.228L46.498 188H45.7158L43.958 183.228H44.7842L46.085 187.016H46.1377L47.4385 183.228H48.2646ZM50.9277 188.097C49.5479 188.101 48.6953 187.117 48.6953 185.653C48.6953 184.186 49.561 183.166 50.8574 183.166C51.8594 183.166 52.9185 183.781 52.9141 185.548V185.864H49.4512C49.4907 186.875 50.0796 187.429 50.9277 187.429C51.499 187.429 51.8594 187.178 52.0352 186.884H52.8438C52.6196 187.609 51.9121 188.101 50.9277 188.097ZM49.4556 185.223H52.1494C52.145 184.427 51.644 183.834 50.8574 183.834C50.0312 183.834 49.5083 184.484 49.4556 185.223ZM54.6543 181.637V188H53.8984V181.637H54.6543ZM60.3057 188.088C59.04 188.088 58.1304 187.411 58.0908 186.4H58.8906C58.9346 187.007 59.5366 187.385 60.2969 187.385C61.1362 187.385 61.7427 186.932 61.7471 186.269C61.7427 185.574 61.189 185.086 60.2002 185.082H59.6816V184.388H60.2002C60.9736 184.388 61.5142 183.953 61.5098 183.298C61.5142 182.661 61.0483 182.239 60.3232 182.234C59.6421 182.239 59.0225 182.612 58.9873 183.236H58.2227C58.2622 182.226 59.2026 181.549 60.332 181.549C61.5449 181.549 62.2832 182.344 62.2744 183.254C62.2832 183.979 61.8613 184.506 61.1934 184.695V184.739C62.0239 184.867 62.5249 185.46 62.5205 186.269C62.5249 187.314 61.5757 188.088 60.3057 188.088Z" fill="#383C47"/>
<path d="M38.3066 208.637V215H37.5508V208.637H38.3066ZM41.5146 215.097C40.1348 215.101 39.2822 214.117 39.2822 212.653C39.2822 211.186 40.1479 210.166 41.4443 210.166C42.4463 210.166 43.5054 210.781 43.501 212.548V212.864H40.0381C40.0776 213.875 40.6665 214.429 41.5146 214.429C42.0859 214.429 42.4463 214.178 42.6221 213.884H43.4307C43.2065 214.609 42.499 215.101 41.5146 215.097ZM40.0425 212.223H42.7363C42.7319 211.427 42.231 210.834 41.4443 210.834C40.6182 210.834 40.0952 211.484 40.0425 212.223ZM48.2646 210.228L46.498 215H45.7158L43.958 210.228H44.7842L46.085 214.016H46.1377L47.4385 210.228H48.2646ZM50.9277 215.097C49.5479 215.101 48.6953 214.117 48.6953 212.653C48.6953 211.186 49.561 210.166 50.8574 210.166C51.8594 210.166 52.9185 210.781 52.9141 212.548V212.864H49.4512C49.4907 213.875 50.0796 214.429 50.9277 214.429C51.499 214.429 51.8594 214.178 52.0352 213.884H52.8438C52.6196 214.609 51.9121 215.101 50.9277 215.097ZM49.4556 212.223H52.1494C52.145 211.427 51.644 210.834 50.8574 210.834C50.0312 210.834 49.5083 211.484 49.4556 212.223ZM54.6543 208.637V215H53.8984V208.637H54.6543ZM57.9502 213.699V213.049L60.8154 208.637H61.791V213.005H62.6787V213.699H61.791V215H61.0352V213.699H57.9502ZM58.8027 213.005H61.0352V209.639H60.9561L58.8027 212.952V213.005Z" fill="#383C47"/>
<path d="M260.212 241.119V241.709H253.04V241.119H260.212ZM253.674 236.247V235.674H259.524V236.247H258.282V238.987H259.507V239.551H253.692V238.987H254.916V236.247H253.674ZM255.604 238.987H257.604V236.247H255.604V238.987ZM268.009 241.163V241.744H260.837V241.163H264.062V239.683H261.736V237.269H266.423V236.035H261.718V235.463H267.101V237.833H262.423V239.11H267.286V239.683H264.74V241.163H268.009ZM277.586 234.881V242.714H276.908V238.617H275.824V242.326H275.163V235.093H275.824V238.044H276.908V234.881H277.586ZM270.908 240.546C272.727 239.529 273.476 238.097 273.595 236.476H271.207V235.903H274.273C274.264 237.894 273.564 239.775 271.313 241.031L270.908 240.546ZM279.709 235.216V236.344H281.991V235.216H282.678V238.626H279.031V235.216H279.709ZM279.709 238.062H281.991V236.881H279.709V238.062ZM279.824 239.859V239.304H284.819V241.198H280.52V242.062H285.11V242.626H279.841V240.67H284.132V239.859H279.824ZM284.132 238.934V234.881H284.819V236.582H286V237.163H284.819V238.934H284.132ZM289.145 237.286C289.137 238.542 290.044 239.925 291.181 240.467L290.784 241.013C289.903 240.582 289.159 239.656 288.806 238.595C288.445 239.745 287.661 240.758 286.784 241.207L286.361 240.661C287.489 240.11 288.458 238.621 288.467 237.286V236.264H286.643V235.692H290.907V236.264H289.145V237.286ZM291.868 242.714V234.881H292.555V238.053H293.868V238.643H292.555V242.714H291.868Z" fill="#383C47"/>
<path d="M172.169 242.088C170.904 242.088 169.994 241.411 169.955 240.4H170.754C170.798 241.007 171.4 241.385 172.161 241.385C173 241.385 173.606 240.932 173.611 240.269C173.606 239.574 173.053 239.086 172.064 239.082H171.545V238.388H172.064C172.837 238.388 173.378 237.953 173.374 237.298C173.378 236.661 172.912 236.239 172.187 236.234C171.506 236.239 170.886 236.612 170.851 237.236H170.086C170.126 236.226 171.066 235.549 172.196 235.549C173.409 235.549 174.147 236.344 174.138 237.254C174.147 237.979 173.725 238.506 173.057 238.695V238.739C173.888 238.867 174.389 239.46 174.384 240.269C174.389 241.314 173.439 242.088 172.169 242.088ZM177.742 242.088C176.639 242.075 175.421 241.42 175.421 239.064C175.421 236.81 176.344 235.549 177.838 235.549C178.959 235.549 179.741 236.239 179.904 237.236H179.122C178.977 236.674 178.546 236.252 177.838 236.252C176.792 236.252 176.164 237.144 176.168 238.678H176.248C176.612 238.146 177.197 237.834 177.882 237.834C179.012 237.834 179.957 238.713 179.957 239.943C179.957 241.143 179.082 242.101 177.742 242.088ZM176.274 239.961C176.278 240.708 176.889 241.389 177.742 241.394C178.563 241.389 179.188 240.743 179.192 239.952C179.188 239.17 178.59 238.533 177.759 238.528C176.924 238.533 176.283 239.209 176.274 239.961ZM183.129 242.088C181.719 242.088 180.901 240.901 180.906 238.818C180.901 236.753 181.728 235.549 183.129 235.549C184.527 235.549 185.353 236.753 185.353 238.818C185.353 240.901 184.54 242.088 183.129 242.088ZM181.67 238.818C181.675 240.466 182.207 241.385 183.129 241.385C184.048 241.385 184.584 240.466 184.58 238.818C184.584 237.17 184.043 236.239 183.129 236.234C182.215 236.239 181.675 237.17 181.67 238.818ZM188.772 242V235.637H192.63V236.34H189.563V238.467H192.428V239.161H189.563V241.297H192.674V242H188.772ZM194.283 235.637L195.9 238.265H195.953L197.579 235.637H198.51L196.515 238.818L198.51 242H197.579L195.953 239.425H195.9L194.274 242H193.342L195.39 238.818L193.342 235.637H194.283ZM199.389 242V235.637H201.551C203.041 235.637 203.722 236.524 203.722 237.658C203.722 238.788 203.041 239.688 201.56 239.688H200.18V242H199.389ZM200.18 238.985H201.525C202.54 238.985 202.936 238.414 202.94 237.658C202.936 236.898 202.54 236.34 201.516 236.34H200.18V238.985Z" fill="#383C47"/>
<path d="M103.465 242.088C102.2 242.088 101.29 241.411 101.25 240.4H102.05C102.094 241.007 102.696 241.385 103.457 241.385C104.296 241.385 104.902 240.932 104.907 240.269C104.902 239.574 104.349 239.086 103.36 239.082H102.841V238.388H103.36C104.133 238.388 104.674 237.953 104.669 237.298C104.674 236.661 104.208 236.239 103.483 236.234C102.802 236.239 102.182 236.612 102.147 237.236H101.382C101.422 236.226 102.362 235.549 103.492 235.549C104.705 235.549 105.443 236.344 105.434 237.254C105.443 237.979 105.021 238.506 104.353 238.695V238.739C105.184 238.867 105.685 239.46 105.68 240.269C105.685 241.314 104.735 242.088 103.465 242.088ZM109.038 242.088C107.935 242.075 106.717 241.42 106.717 239.064C106.717 236.81 107.64 235.549 109.134 235.549C110.255 235.549 111.037 236.239 111.2 237.236H110.417C110.272 236.674 109.842 236.252 109.134 236.252C108.088 236.252 107.46 237.144 107.464 238.678H107.543C107.908 238.146 108.493 237.834 109.178 237.834C110.308 237.834 111.252 238.713 111.252 239.943C111.252 241.143 110.378 242.101 109.038 242.088ZM107.57 239.961C107.574 240.708 108.185 241.389 109.038 241.394C109.859 241.389 110.483 240.743 110.488 239.952C110.483 239.17 109.886 238.533 109.055 238.528C108.22 238.533 107.579 239.209 107.57 239.961ZM119.207 238.897V239.469H116.025V241.068H115.339V239.469H112.052V238.897H119.207ZM112.966 242.545V240.295H113.661V241.965H118.407V242.545H112.966ZM112.984 238.001V235.285H118.275V238.001H112.984ZM113.661 237.447H117.589V235.83H113.661V237.447ZM126.519 234.898V242.712H125.86V234.898H126.519ZM119.743 240.629C120.833 239.979 121.47 238.55 121.465 237.131V236.393H119.962V235.821H123.566V236.393H122.133V237.131C122.133 238.48 122.744 239.829 123.821 240.453L123.399 240.963C122.63 240.501 122.085 239.658 121.812 238.665C121.531 239.741 120.964 240.66 120.182 241.147L119.743 240.629ZM122.968 238.282V237.72H124.287V235.092H124.937V242.308H124.287V238.282H122.968Z" fill="#383C47"/>
<path d="M38.3066 235.637V242H37.5508V235.637H38.3066ZM41.5146 242.097C40.1348 242.101 39.2822 241.117 39.2822 239.653C39.2822 238.186 40.1479 237.166 41.4443 237.166C42.4463 237.166 43.5054 237.781 43.501 239.548V239.864H40.0381C40.0776 240.875 40.6665 241.429 41.5146 241.429C42.0859 241.429 42.4463 241.178 42.6221 240.884H43.4307C43.2065 241.609 42.499 242.101 41.5146 242.097ZM40.0425 239.223H42.7363C42.7319 238.427 42.231 237.834 41.4443 237.834C40.6182 237.834 40.0952 238.484 40.0425 239.223ZM48.2646 237.228L46.498 242H45.7158L43.958 237.228H44.7842L46.085 241.016H46.1377L47.4385 237.228H48.2646ZM50.9277 242.097C49.5479 242.101 48.6953 241.117 48.6953 239.653C48.6953 238.186 49.561 237.166 50.8574 237.166C51.8594 237.166 52.9185 237.781 52.9141 239.548V239.864H49.4512C49.4907 240.875 50.0796 241.429 50.9277 241.429C51.499 241.429 51.8594 241.178 52.0352 240.884H52.8438C52.6196 241.609 51.9121 242.101 50.9277 242.097ZM49.4556 239.223H52.1494C52.145 238.427 51.644 237.834 50.8574 237.834C50.0312 237.834 49.5083 238.484 49.4556 239.223ZM54.6543 235.637V242H53.8984V235.637H54.6543ZM60.1826 242.088C59.0356 242.088 58.1655 241.38 58.1172 240.4H58.8818C58.939 240.967 59.4927 241.389 60.1826 241.394C61.0088 241.389 61.6064 240.787 61.6064 239.987C61.6064 239.161 60.9868 238.55 60.1299 238.546C59.5938 238.537 59.1763 238.704 58.9434 239.117H58.1787L58.627 235.637H62.0723V236.34H59.2861L59.0488 238.203H59.1104C59.396 237.983 59.8223 237.834 60.2705 237.834C61.4834 237.834 62.3755 238.73 62.3799 239.97C62.3755 241.2 61.4526 242.088 60.1826 242.088Z" fill="#383C47"/>
<path d="M108.185 102.81V103.592H105.118V105.051H104.151V103.592H100.925V102.81H108.185ZM101.804 106.624V104.321H102.78V105.833H107.385V106.624H101.804ZM101.848 102.071V99.1973H107.253V102.071H101.848ZM102.797 101.307H106.287V99.9619H102.797V101.307ZM115.55 98.8369V106.782H114.619V98.8369H115.55ZM108.572 104.523C109.719 103.825 110.224 102.392 110.224 101.008V100.48H108.844V99.6895H112.448V100.48H111.165V101.008C111.165 102.348 111.644 103.693 112.782 104.348L112.202 105.068C111.468 104.633 110.98 103.877 110.703 102.972C110.422 103.952 109.917 104.787 109.169 105.253L108.572 104.523ZM111.868 102.396V101.605H113.01V98.9863H113.933V106.396H113.01V102.396H111.868ZM122.766 99.4961C122.762 100.494 123.882 101.509 125.579 101.729L125.192 102.52C123.843 102.317 122.771 101.654 122.252 100.757C121.733 101.654 120.666 102.317 119.33 102.52L118.943 101.729C120.622 101.509 121.738 100.502 121.738 99.4961V99.0918H122.766V99.4961ZM118.626 104.014V103.205H125.869V104.014H122.713V106.782H121.747V104.014H118.626Z" fill="#313944"/>
<path d="M176.292 98.8457V103.486H175.316V102.607H173.426V101.816H175.316V100.964H173.501C173 102.225 171.84 103.108 170.113 103.592L169.717 102.818C171.576 102.317 172.569 101.373 172.719 100.19H170.139V99.3994H173.787C173.787 99.6763 173.765 99.9399 173.721 100.19H175.316V98.8457H176.292ZM170.965 105.156C170.965 104.181 172.033 103.579 173.664 103.574C175.272 103.579 176.344 104.181 176.344 105.156C176.344 106.132 175.272 106.743 173.664 106.738C172.033 106.743 170.965 106.132 170.965 105.156ZM171.941 105.156C171.941 105.679 172.596 105.965 173.664 105.965C174.714 105.965 175.364 105.679 175.369 105.156C175.364 104.625 174.714 104.339 173.664 104.339C172.596 104.339 171.941 104.625 171.941 105.156ZM184.07 98.8369V103.645H183.094V102.001H181.96V101.192H183.094V98.8369H184.07ZM177.434 100.366V99.5752H179.28V98.7754H180.247V99.5752H182.092V100.366H177.434ZM177.882 102.098C177.878 101.263 178.665 100.674 179.763 100.674C180.871 100.674 181.648 101.263 181.653 102.098C181.648 102.955 180.871 103.521 179.763 103.521C178.665 103.521 177.878 102.955 177.882 102.098ZM178.788 106.686V104.005H184.07V106.686H178.788ZM178.814 102.098C178.814 102.537 179.192 102.792 179.763 102.792C180.33 102.792 180.712 102.537 180.712 102.098C180.712 101.671 180.33 101.412 179.763 101.412C179.192 101.412 178.814 101.671 178.814 102.098ZM179.763 105.895H183.112V104.778H179.763V105.895ZM191.795 98.8369V106.782H190.82V98.8369H191.795ZM185.274 104.523C186.54 103.965 187.269 102.629 187.269 101.359V100.946H185.52V100.164H187.269V99.0039H188.236V100.164H189.95V100.946H188.245V101.359C188.24 102.568 188.983 103.864 190.266 104.4L189.73 105.147C188.82 104.761 188.135 103.97 187.77 103.012C187.414 104.027 186.729 104.875 185.801 105.279L185.274 104.523Z" fill="#313944"/>
<path d="M260.134 98.8369V106.782H259.185V102.73H258.332V106.413H257.427V99.0215H258.332V101.939H259.185V98.8369H260.134ZM253.278 104.515C254.381 103.895 255.058 103.174 255.445 102.339L253.445 102.555L253.322 101.72L255.713 101.579C255.796 101.258 255.849 100.92 255.875 100.568H253.735V99.7773H256.829C256.82 101.97 256.245 103.855 253.85 105.209L253.278 104.515ZM267.675 98.8457V103.706H266.69V98.8457H267.675ZM261.461 100.085V99.2939H265.126V101.649H262.437V102.537C263.794 102.533 264.766 102.484 265.899 102.317L266.022 103.1C264.77 103.302 263.693 103.341 262.155 103.337H261.479V100.894H264.159V100.085H261.461ZM262.252 104.875V104.075H267.675V106.782H266.69V104.875H262.252ZM275.497 98.8369V106.791H274.53V102.502H273.036V101.711H274.53V98.8369H275.497ZM269.195 104.963V99.5225H272.913V100.322H270.18V101.746H272.597V102.52H270.18V104.154C271.388 104.15 272.293 104.106 273.317 103.943L273.414 104.734C272.258 104.91 271.239 104.954 269.819 104.963H269.195ZM285.991 102.994V103.759H278.731V102.994H285.991ZM279.549 105.147V104.365H285.077V106.782H284.093V105.147H279.549ZM279.663 102.405V99.0303H285.121V99.7949H280.639V100.34H284.928V101.069H280.639V101.658H285.183V102.405H279.663ZM293.146 98.8457V103.583H292.161V98.8457H293.146ZM286.589 102.722C287.872 102.295 288.549 101.267 288.558 100.208V100.199H286.844V99.4082H291.212V100.199H289.542V100.208C289.542 101.188 290.219 102.128 291.484 102.52L290.983 103.284C290.087 103.003 289.432 102.418 289.072 101.676C288.716 102.506 288.043 103.174 287.099 103.495L286.589 102.722ZM287.74 105.271C287.74 104.304 288.773 103.741 290.456 103.741C292.13 103.741 293.163 104.304 293.163 105.271C293.163 106.242 292.13 106.795 290.456 106.791C288.773 106.795 287.74 106.242 287.74 105.271ZM288.725 105.271C288.725 105.767 289.34 106.04 290.456 106.035C291.563 106.04 292.201 105.767 292.205 105.271C292.201 104.783 291.563 104.506 290.456 104.506C289.34 104.506 288.725 104.783 288.725 105.271Z" fill="#313944"/>
<path d="M33.7192 61.4619C33.1743 61.4575 32.7305 61.0137 32.7261 60.46C32.7305 59.915 33.1743 59.4712 33.7192 59.4668C34.2729 59.4712 34.7168 59.915 34.7212 60.46C34.7168 61.0137 34.2729 61.4575 33.7192 61.4619ZM46.9775 55.8809V58.4121H48.1201V59.1064H46.9775V61.7695H46.1426V55.8809H46.9775ZM40.7988 57.4717V56.7949H42.7324V55.8721H43.5674V56.7949H45.4922V57.4717H40.7988ZM41.2295 59.335C41.2251 58.4341 42.0029 57.8452 43.1455 57.8496C44.2749 57.8452 45.0527 58.4341 45.0527 59.335C45.0527 60.2271 44.2749 60.8071 43.1455 60.8115C42.0029 60.8071 41.2251 60.2271 41.2295 59.335ZM41.9854 63.5801V61.3037H42.8203V62.9033H47.3115V63.5801H41.9854ZM42.0381 59.335C42.0293 59.8491 42.4775 60.1655 43.1455 60.1611C43.8135 60.1655 44.2617 59.8491 44.2705 59.335C44.2617 58.8164 43.8135 58.4956 43.1455 58.4912C42.4775 58.4956 42.0293 58.8164 42.0381 59.335ZM57.9639 59.8535V60.5303H54.835V62.0596H54.0088V60.5303H50.7568V59.8535H57.9639ZM51.6533 63.5801V61.3125H52.4883V62.9033H57.1641V63.5801H51.6533ZM51.6797 59.0361V56.2412H57.0322V59.0361H51.6797ZM52.4971 58.377H56.2061V56.9004H52.4971V58.377ZM65.3027 55.8721V63.7471H64.5029V55.8721H65.3027ZM58.4297 61.5762C59.5459 60.9038 60.1128 59.4712 60.1172 58.0693V57.4365H58.667V56.7598H62.2705V57.4365H60.917V58.0693C60.917 59.4141 61.4619 60.7632 62.5693 61.4004L62.0684 62.0156C61.3169 61.5674 60.8027 60.7632 60.5259 59.814C60.2446 60.8423 59.7085 61.7212 58.9395 62.2002L58.4297 61.5762ZM61.6904 59.3438V58.6582H62.9121V56.0391H63.7031V63.3516H62.9121V59.3438H61.6904ZM73.5205 59.4844V60.126H66.3135V59.4844H73.5205ZM67.166 61.2773V60.6797H72.6328V62.4111H68.0098V63.0615H72.8789V63.6504H67.1748V61.8574H71.8066V61.2773H67.166ZM67.2188 56.6631V56.0742H72.6152V57.7793H68.0625V58.377H72.7471V58.9658H67.2363V57.2256H71.7803V56.6631H67.2188ZM80.2881 56.3994V59.792H76.6055V56.3994H80.2881ZM77.0625 63.0703C78.4116 62.877 79.418 62.2134 79.5454 61.4443H77.3789V60.7764H82.6084V61.4443H80.4507C80.5693 62.1958 81.5933 62.877 82.9336 63.0791L82.626 63.7207C81.4307 63.5361 80.4463 62.9868 79.9893 62.2397C79.541 62.9912 78.5654 63.5317 77.3701 63.7119L77.0625 63.0703ZM77.4229 59.124H79.4707V57.0674H77.4229V59.124ZM81.6504 60.3369V55.8721H82.4854V57.7002H83.6279V58.3945H82.4854V60.3369H81.6504ZM91.248 59.3262V59.9502H88.0752V60.6094H90.3516V62.3848H85.7637V63.0352H90.5713V63.668H84.9463V61.8047H89.5254V61.2158H84.9375V60.6094H87.249V59.9502H84.085V59.3262H91.248ZM84.4365 58.3857C85.9438 58.3022 87.0073 57.8408 87.1787 57.1729H84.7969V56.5312H87.249V55.8369H88.0752V56.5312H90.5361V57.1729H88.1411C88.3081 57.8408 89.3716 58.3022 90.8965 58.3857L90.6416 59.0186C89.2705 58.9175 88.1543 58.5176 87.6621 57.8276C87.1699 58.5176 86.0537 58.9175 84.6738 59.0186L84.4365 58.3857ZM99.29 56.0303V59.0361H100.125V55.8721H100.916V63.7471H100.125V59.7217H99.29V63.3691H98.5166V56.0303H99.29ZM94.2539 61.7432V56.8477H95.959V57.5332H95.0186V61.0312C95.2954 61.0181 95.6206 60.9785 95.9854 60.8906L96.0557 61.5938C95.4229 61.73 94.9395 61.7432 94.5791 61.7432H94.2539ZM96.2842 61.7432V56.8477H98.0332V57.5332H97.04V61.0356C97.374 61.0269 97.752 60.9873 98.165 60.873L98.2354 61.5762C97.6025 61.7344 97.084 61.7432 96.6182 61.7432H96.2842ZM105.812 56.6543V61.7695H102.129V56.6543H105.812ZM102.946 61.0928H104.985V57.3135H102.946V61.0928ZM107.13 63.7471V55.8721H107.965V58.957H109.23V59.6602H107.965V63.7471H107.13ZM115.743 55.8721V58.9219H117.009V59.6074H115.743V63.7646H114.908V55.8721H115.743ZM109.942 61.8047V56.6279H113.625V57.3047H110.777V61.1104C112.1 61.106 113.089 61.0488 114.214 60.8467L114.319 61.5498C113.084 61.7695 112.039 61.8091 110.575 61.8047H109.942ZM122.273 56.6367V63H121.298V57.6035H121.263L119.742 58.5967V57.6738L121.324 56.6367H122.273ZM126.105 63.0879C124.633 63.0879 123.768 61.9014 123.768 59.8184C123.768 57.7485 124.642 56.5488 126.105 56.5488C127.564 56.5488 128.439 57.7485 128.443 59.8184C128.439 61.9014 127.578 63.0879 126.105 63.0879ZM124.734 59.8184C124.73 61.4048 125.244 62.2529 126.105 62.2529C126.962 62.2529 127.477 61.4048 127.477 59.8184C127.477 58.2363 126.958 57.3706 126.105 57.3662C125.249 57.3706 124.734 58.2363 124.734 59.8184ZM131.73 63V56.6367H135.721V57.4717H132.697V59.3965H135.51V60.2227H132.697V62.165H135.756V63H131.73ZM137.584 56.6367L139.096 59.1152H139.148L140.669 56.6367H141.785L139.799 59.8184L141.803 63H140.669L139.148 60.5479H139.096L137.566 63H136.441L138.472 59.8184L136.45 56.6367H137.584ZM142.638 63V56.6367H144.905C146.386 56.6367 147.111 57.5244 147.111 58.7021C147.111 59.8755 146.382 60.7676 144.905 60.7676H143.604V63H142.638ZM143.604 59.9414H144.809C145.745 59.9458 146.136 59.4185 146.136 58.7021C146.136 57.9814 145.745 57.4673 144.809 57.4629H143.604V59.9414ZM154.415 60.8818V63.7471H153.58V61.5498H148.931V60.8818H154.415ZM147.691 59.5195C148.605 58.9746 148.904 57.8804 148.904 57.0586V56.3379H149.695V57.0586C149.695 57.7002 149.836 58.5923 150.394 59.2295C150.943 58.6055 151.088 57.7266 151.093 57.0586V56.3379H151.875V57.0586C151.871 57.9551 152.183 59.0098 153.105 59.5195L152.64 60.1172C152.051 59.7788 151.695 59.2163 151.493 58.5835C151.312 59.2295 150.979 59.8359 150.398 60.2051C149.805 59.8359 149.471 59.2119 149.291 58.5571C149.089 59.1943 148.733 59.77 148.157 60.1172L147.691 59.5195ZM153.58 60.4863V55.8721H154.415V60.4863H153.58ZM164.355 60.7939V61.4707H159.97V62.9736H164.47V63.6504H159.135V60.7939H164.355ZM157.86 58.1836C157.856 57.0762 158.739 56.2852 159.926 56.2939C160.958 56.2852 161.763 56.9048 161.938 57.8145H163.477V55.8721H164.312V60.3721H163.477V58.5H161.947C161.793 59.4229 160.976 60.0601 159.926 60.0645C158.739 60.0601 157.856 59.2734 157.86 58.1836ZM158.66 58.1836C158.656 58.8691 159.188 59.3525 159.926 59.3525C160.633 59.3525 161.174 58.8691 161.174 58.1836C161.174 57.4673 160.633 56.9883 159.926 56.9971C159.188 56.9883 158.656 57.4673 158.66 58.1836ZM169.11 56.0039C170.886 55.9995 171.918 56.4785 171.923 57.3574C171.918 58.2407 170.886 58.7197 169.11 58.7197C167.335 58.7197 166.293 58.2407 166.298 57.3574C166.293 56.4785 167.335 55.9995 169.11 56.0039ZM165.524 59.8711V59.2031H172.705V59.8711H165.524ZM166.386 61.1016V60.4775H171.8V62.3232H167.212V63.0264H172.02V63.668H166.395V61.7168H170.974V61.1016H166.386ZM167.168 57.3574C167.164 57.8452 167.858 58.0957 169.11 58.0957C170.372 58.0957 171.066 57.8452 171.062 57.3574C171.066 56.8916 170.372 56.6191 169.11 56.6191C167.858 56.6191 167.164 56.8916 167.168 57.3574ZM179.534 56.5664C179.53 57.6123 180.809 58.5923 182.355 58.7988L182.03 59.4844C180.743 59.2778 179.613 58.6099 179.099 57.6826C178.585 58.6099 177.456 59.2778 176.177 59.4844L175.843 58.7988C177.385 58.5923 178.66 57.6255 178.664 56.5664V56.1357H179.534V56.5664ZM175.5 60.9434V60.2578H182.681V60.9434H179.481V63.7471H178.664V60.9434H175.5ZM188.209 61.0752C188.209 61.752 188.543 62.4683 189.259 62.8945C189.98 62.4331 190.336 61.6816 190.336 61.0752V60.6973H191.153V61.0752C191.149 61.8926 191.689 62.6836 192.718 63.0176L192.305 63.6328C191.527 63.3647 190.995 62.8374 190.723 62.1958C190.472 62.8286 190.002 63.4043 189.281 63.7031C188.525 63.4175 188.046 62.8594 187.805 62.2178C187.519 62.8374 187 63.3604 186.258 63.6328L185.836 63.0176C186.847 62.6572 187.396 61.8354 187.4 61.0752V60.6973H188.209V61.0752ZM185.634 58.1748C185.638 57.0718 186.526 56.3159 187.734 56.3115C188.938 56.3159 189.826 57.0718 189.826 58.1748C189.826 59.2646 188.938 60.0205 187.734 60.0205C186.526 60.0205 185.638 59.2646 185.634 58.1748ZM186.451 58.1748C186.447 58.8604 186.987 59.3262 187.734 59.3262C188.473 59.3262 189.009 58.8604 189.009 58.1748C189.009 57.4849 188.473 57.019 187.734 57.0234C186.987 57.019 186.447 57.4849 186.451 58.1748ZM191.171 60.3633V55.8809H192.006V60.3633H191.171ZM195.39 56.4609C196.462 56.4653 197.24 57.3706 197.367 58.8252H198.993V55.8721H199.819V63.7646H198.993V59.502H197.376C197.284 61.04 196.488 61.9937 195.39 61.9893C194.216 61.9937 193.386 60.9214 193.395 59.2207C193.386 57.5376 194.216 56.4653 195.39 56.4609ZM194.186 59.2207C194.19 60.4731 194.678 61.2422 195.39 61.2422C196.102 61.2422 196.589 60.4731 196.594 59.2207C196.589 57.9858 196.102 57.2124 195.39 57.208C194.678 57.2124 194.19 57.9858 194.186 59.2207ZM208.239 62.0684V62.7627H201.032V62.0684H202.755V60.0117C202.109 59.6558 201.713 59.0933 201.718 58.3857C201.713 57.1465 202.931 56.3335 204.618 56.3291C206.31 56.3335 207.527 57.1465 207.527 58.3857C207.527 59.0801 207.149 59.6382 206.517 59.9941V62.0684H208.239ZM202.526 58.3857C202.526 59.2295 203.383 59.7788 204.618 59.7832C205.844 59.7788 206.714 59.2295 206.719 58.3857C206.714 57.5376 205.844 56.9971 204.618 56.9971C203.383 56.9971 202.526 57.5376 202.526 58.3857ZM203.581 62.0684H205.673V60.3193C205.352 60.394 204.996 60.4336 204.618 60.4336C204.249 60.4336 203.897 60.394 203.581 60.3193V62.0684ZM209.707 63.0615C209.364 63.0571 209.079 62.7803 209.083 62.4375C209.079 62.0947 209.364 61.8135 209.707 61.8135C210.045 61.8135 210.327 62.0947 210.331 62.4375C210.327 62.7803 210.045 63.0571 209.707 63.0615Z" fill="#222222"/>
<path d="M33.7192 75.4619C33.1743 75.4575 32.7305 75.0137 32.7261 74.46C32.7305 73.915 33.1743 73.4712 33.7192 73.4668C34.2729 73.4712 34.7168 73.915 34.7212 74.46C34.7168 75.0137 34.2729 75.4575 33.7192 75.4619ZM43.8398 74.0557V75.418C44.5605 75.3784 45.29 75.3169 45.9756 75.2158L46.0371 75.8311C44.2573 76.1606 42.3457 76.1738 40.9395 76.1738L40.834 75.4883C41.4668 75.4839 42.2183 75.4795 43.0049 75.4531V74.0557H43.8398ZM41.0449 73.6777C42.2183 73.3394 42.9521 72.5176 42.9961 71.5508H41.2559V70.874H43.0049V69.9336H43.8398V70.874H45.6064V71.5508H43.8398C43.8838 72.478 44.6309 73.2734 45.8086 73.5898L45.4219 74.2402C44.4814 73.9722 43.7783 73.4009 43.4224 72.6538C43.0796 73.4404 42.3853 74.0425 41.4404 74.3105L41.0449 73.6777ZM46.4678 77.7646V69.8721H47.3027V77.7646H46.4678ZM54.9404 70.6279V71.4014C54.936 72.3726 54.936 73.4624 54.6416 75.0752L53.7979 74.9873C54.1011 73.4624 54.1011 72.3462 54.1055 71.4014V71.3047H49.3242V70.6279H54.9404ZM48.5684 76.6836V75.9893H51.3018V73.2119H52.1279V75.9893H55.749V76.6836H48.5684ZM61.5938 70.7158V73.5195H59.5986V75.1367C60.4556 75.1323 61.2729 75.0972 62.2441 74.9258L62.3145 75.6113C61.2202 75.8091 60.3237 75.8311 59.335 75.8398H58.79V72.8516H60.7939V71.3926H58.7812V70.7158H61.5938ZM61.9629 73.335V72.6582H62.8945V70.0479H63.6855V77.3428H62.8945V73.335H61.9629ZM64.5029 77.7471V69.8721H65.3027V77.7471H64.5029ZM73.0371 69.8809V73.9941H72.2461V69.8809H73.0371ZM66.6562 73.6602V70.3291H67.4473V71.3135H68.9678V70.3291H69.7412V71.6123H70.6729V70.0303H71.4551V73.9502H70.6729V72.2979H69.7412V73.6602H66.6562ZM67.4473 73.001H68.9678V71.9463H67.4473V73.001ZM67.7549 75.0049V74.3457H73.0371V76.2793H68.6074V77.0176H73.3359V77.668H67.7725V75.6553H72.2109V75.0049H67.7549ZM81.2812 73.9854V74.6533H74.1006V73.9854H81.2812ZM74.874 71.709C74.8696 70.7202 75.9727 70.1313 77.6865 70.1357C79.3916 70.1313 80.4946 70.7202 80.499 71.709C80.4946 72.7021 79.3916 73.3042 77.6865 73.3086C75.9727 73.3042 74.8696 72.7021 74.874 71.709ZM75.0059 77.5801V75.2949H75.8496V76.9033H80.4727V77.5801H75.0059ZM75.7354 71.709C75.731 72.2935 76.478 72.623 77.6865 72.623C78.8906 72.623 79.6421 72.2935 79.6377 71.709C79.6421 71.1465 78.8906 70.8037 77.6865 70.8037C76.478 70.8037 75.731 71.1465 75.7354 71.709ZM84.4365 77V70.6367H85.4033V76.165H88.2773V77H84.4365ZM89.2705 77V70.6367H93.2607V71.4717H90.2373V73.3965H93.0498V74.2227H90.2373V76.165H93.2959V77H89.2705ZM95.0098 70.6367L96.7764 75.8135H96.8467L98.6133 70.6367H99.6592L97.3652 77H96.249L93.9639 70.6367H95.0098ZM100.468 77V70.6367H104.458V71.4717H101.435V73.3965H104.247V74.2227H101.435V76.165H104.493V77H100.468ZM105.645 77V70.6367H106.611V76.165H109.485V77H105.645ZM114.75 77.0879C113.546 77.0879 112.641 76.354 112.597 75.3389H113.537C113.59 75.8794 114.108 76.2749 114.75 76.2793C115.523 76.2749 116.077 75.7168 116.077 74.9609C116.077 74.1875 115.506 73.625 114.706 73.6162C114.196 73.6162 113.805 73.7876 113.59 74.1787H112.676L113.089 70.6367H116.692V71.4629H113.889L113.678 73.2471H113.739C114.003 72.9922 114.451 72.8208 114.935 72.8164C116.134 72.8208 117.018 73.7085 117.018 74.9346C117.018 76.187 116.077 77.0879 114.75 77.0879ZM124.031 69.8721V73.0713H125.174V73.7568H124.031V77.7471H123.196V69.8721H124.031ZM117.703 75.5322C118.854 74.3325 119.272 72.979 119.355 71.4014H117.984V70.7158H120.146C120.142 72.6846 119.791 74.4775 118.362 75.998L117.703 75.5322ZM119.953 76.0596C121.126 74.6885 121.469 73.0801 121.531 71.4014H120.401V70.7158H122.317C122.317 72.7065 122.067 74.8071 120.621 76.5166L119.953 76.0596ZM128.452 72.1924C128.448 73.5107 129.313 74.873 130.526 75.3916L130.069 76.042C129.142 75.6333 128.404 74.7632 128.039 73.7129C127.674 74.8379 126.936 75.7959 126.018 76.2441L125.534 75.585C126.721 75.0269 127.6 73.5503 127.608 72.1924V71.3574H125.807V70.6631H130.245V71.3574H128.452V72.1924ZM131.238 77.7471V69.8721H132.073V77.7471H131.238ZM138.261 75.0752C138.261 75.752 138.595 76.4683 139.311 76.8945C140.032 76.4331 140.388 75.6816 140.388 75.0752V74.6973H141.205V75.0752C141.201 75.8926 141.741 76.6836 142.77 77.0176L142.356 77.6328C141.579 77.3647 141.047 76.8374 140.774 76.1958C140.524 76.8286 140.054 77.4043 139.333 77.7031C138.577 77.4175 138.098 76.8594 137.856 76.2178C137.571 76.8374 137.052 77.3604 136.31 77.6328L135.888 77.0176C136.898 76.6572 137.448 75.8354 137.452 75.0752V74.6973H138.261V75.0752ZM135.686 72.1748C135.69 71.0718 136.578 70.3159 137.786 70.3115C138.99 70.3159 139.878 71.0718 139.878 72.1748C139.878 73.2646 138.99 74.0205 137.786 74.0205C136.578 74.0205 135.69 73.2646 135.686 72.1748ZM136.503 72.1748C136.499 72.8604 137.039 73.3262 137.786 73.3262C138.524 73.3262 139.061 72.8604 139.061 72.1748C139.061 71.4849 138.524 71.019 137.786 71.0234C137.039 71.019 136.499 71.4849 136.503 72.1748ZM141.223 74.3633V69.8809H142.058V74.3633H141.223ZM145.441 70.4609C146.514 70.4653 147.292 71.3706 147.419 72.8252H149.045V69.8721H149.871V77.7646H149.045V73.502H147.428C147.335 75.04 146.54 75.9937 145.441 75.9893C144.268 75.9937 143.438 74.9214 143.446 73.2207C143.438 71.5376 144.268 70.4653 145.441 70.4609ZM144.237 73.2207C144.242 74.4731 144.729 75.2422 145.441 75.2422C146.153 75.2422 146.641 74.4731 146.646 73.2207C146.641 71.9858 146.153 71.2124 145.441 71.208C144.729 71.2124 144.242 71.9858 144.237 73.2207ZM158.291 76.0684V76.7627H151.084V76.0684H152.807V74.0117C152.161 73.6558 151.765 73.0933 151.77 72.3857C151.765 71.1465 152.982 70.3335 154.67 70.3291C156.362 70.3335 157.579 71.1465 157.579 72.3857C157.579 73.0801 157.201 73.6382 156.568 73.9941V76.0684H158.291ZM152.578 72.3857C152.578 73.2295 153.435 73.7788 154.67 73.7832C155.896 73.7788 156.766 73.2295 156.771 72.3857C156.766 71.5376 155.896 70.9971 154.67 70.9971C153.435 70.9971 152.578 71.5376 152.578 72.3857ZM153.633 76.0684H155.725V74.3193C155.404 74.394 155.048 74.4336 154.67 74.4336C154.301 74.4336 153.949 74.394 153.633 74.3193V76.0684ZM159.759 77.0615C159.416 77.0571 159.13 76.7803 159.135 76.4375C159.13 76.0947 159.416 75.8135 159.759 75.8135C160.097 75.8135 160.378 76.0947 160.383 76.4375C160.378 76.7803 160.097 77.0571 159.759 77.0615Z" fill="#222222"/>
<defs>
<filter id="filter0_d_834_1992" x="0" y="0" width="344" height="282" filterUnits="userSpaceOnUse" color-interpolation-filters="sRGB">
<feFlood flood-opacity="0" result="BackgroundImageFix"/>
<feColorMatrix in="SourceAlpha" type="matrix" values="0 0 0 0 0 0 0 0 0 0 0 0 0 0 0 0 0 0 127 0" result="hardAlpha"/>
<feOffset/>
<feGaussianBlur stdDeviation="4"/>
<feComposite in2="hardAlpha" operator="out"/>
<feColorMatrix type="matrix" values="0 0 0 0 0 0 0 0 0 0 0 0 0 0 0 0 0 0 0.1 0"/>
<feBlend mode="normal" in2="BackgroundImageFix" result="effect1_dropShadow_834_1992"/>
<feBlend mode="normal" in="SourceGraphic" in2="effect1_dropShadow_834_1992" result="shape"/>
</filter>
</defs>
</svg>
