<svg width="344" height="282" viewBox="0 0 344 282" fill="none" xmlns="http://www.w3.org/2000/svg">
<g filter="url(#filter0_d_49_15)">
<path d="M39.9419 14.8768C39.1365 15.5109 38.1833 15.859 37.1966 15.859L18.2022 15.859C12.5677 15.859 8.00002 21.2723 8.00002 27.95L8.00002 261.909C8.00002 268.587 12.5677 274 18.2022 274L325.798 274C331.432 274 336 268.587 336 261.909L336 27.9499C336 21.2723 331.432 15.859 325.798 15.859L52.2591 15.859C51.2723 15.859 50.319 15.5108 49.5136 14.8766L44.7279 7.99997L39.9419 14.8768Z" fill="#FAFAFA"/>
</g>
<path d="M27.7148 45V36.5156H29.4727V43.5469H33.1289V45H27.7148ZM37.1133 45.1289C35.168 45.1289 33.9727 43.8633 33.9727 41.8477C33.9727 39.8789 35.1797 38.5547 37.043 38.5547C38.7188 38.5547 40.0312 39.6094 40.0312 41.7773V42.2695H35.6836C35.6836 43.2305 36.2578 43.8281 37.1484 43.8281C37.7344 43.8281 38.1562 43.5703 38.332 43.1836H39.9844C39.7383 44.3555 38.6836 45.1289 37.1133 45.1289ZM35.6836 41.1797H38.3906C38.3906 40.4062 37.8516 39.8555 37.0781 39.8555C36.2812 39.8555 35.7129 40.4473 35.6836 41.1797ZM46.8516 38.6367L44.6133 45H42.668L40.4414 38.6367H42.2695L43.6055 43.207H43.6758L45.0117 38.6367H46.8516ZM50.3672 45.1289C48.4219 45.1289 47.2266 43.8633 47.2266 41.8477C47.2266 39.8789 48.4336 38.5547 50.2969 38.5547C51.9727 38.5547 53.2852 39.6094 53.2852 41.7773V42.2695H48.9375C48.9375 43.2305 49.5117 43.8281 50.4023 43.8281C50.9883 43.8281 51.4102 43.5703 51.5859 43.1836H53.2383C52.9922 44.3555 51.9375 45.1289 50.3672 45.1289ZM48.9375 41.1797H51.6445C51.6445 40.4062 51.1055 39.8555 50.332 39.8555C49.5352 39.8555 48.9668 40.4473 48.9375 41.1797ZM56.1094 36.5156V45H54.375V36.5156H56.1094ZM65.8945 39.2461C65.6602 38.4492 65.0156 37.957 64.0898 37.957C62.7773 37.957 61.8867 38.9648 61.8867 40.7461C61.8867 42.5391 62.7539 43.5586 64.1016 43.5586C65.3145 43.5586 66.0352 42.873 66.0586 41.8008H64.2188V40.4766H67.7578V41.5312C67.7578 43.7578 66.2344 45.1172 64.0898 45.1172C61.7109 45.1172 60.0938 43.4531 60.0938 40.7695C60.0938 38.0156 61.8164 36.3984 64.0547 36.3984C65.9648 36.3984 67.4414 37.5703 67.6758 39.2461H65.8945ZM73.0898 42.293V38.6367H74.8242V45H73.1602V43.8516H73.0898C72.7969 44.5898 72.1172 45.082 71.1562 45.082C69.8789 45.082 69.0117 44.1797 69.0117 42.6914V38.6367H70.7461V42.3867C70.7461 43.1367 71.1797 43.6172 71.8594 43.6172C72.4922 43.6172 73.0898 43.1602 73.0898 42.293ZM76.1719 45V38.6367H77.9062V45H76.1719ZM77.0391 37.8047C76.5117 37.8047 76.0898 37.4062 76.0898 36.9258C76.0898 36.4336 76.5117 36.0352 77.0391 36.0352C77.5547 36.0352 77.9766 36.4336 77.9766 36.9258C77.9766 37.4062 77.5547 37.8047 77.0391 37.8047ZM81.5977 45.1055C80.1445 45.1055 79.0078 43.9453 79.0078 41.8242C79.0078 39.6445 80.1914 38.5547 81.5977 38.5547C82.6641 38.5547 83.168 39.1875 83.4023 39.7031H83.4609V36.5156H85.1953V45H83.4844V43.9805H83.4023C83.1562 44.5078 82.6289 45.1055 81.5977 45.1055ZM82.1367 43.7227C83.0039 43.7227 83.4961 42.9609 83.4961 41.8125C83.4961 40.6641 83.0039 39.9375 82.1367 39.9375C81.2578 39.9375 80.7891 40.6992 80.7891 41.8125C80.7891 42.9375 81.2578 43.7227 82.1367 43.7227ZM89.4727 45.1289C87.5273 45.1289 86.332 43.8633 86.332 41.8477C86.332 39.8789 87.5391 38.5547 89.4023 38.5547C91.0781 38.5547 92.3906 39.6094 92.3906 41.7773V42.2695H88.043C88.043 43.2305 88.6172 43.8281 89.5078 43.8281C90.0938 43.8281 90.5156 43.5703 90.6914 43.1836H92.3438C92.0977 44.3555 91.043 45.1289 89.4727 45.1289ZM88.043 41.1797H90.75C90.75 40.4062 90.2109 39.8555 89.4375 39.8555C88.6406 39.8555 88.0723 40.4473 88.043 41.1797ZM95.2148 36.5156V45H93.4805V36.5156H95.2148ZM96.5625 45V38.6367H98.2969V45H96.5625ZM97.4297 37.8047C96.9023 37.8047 96.4805 37.4062 96.4805 36.9258C96.4805 36.4336 96.9023 36.0352 97.4297 36.0352C97.9453 36.0352 98.3672 36.4336 98.3672 36.9258C98.3672 37.4062 97.9453 37.8047 97.4297 37.8047ZM101.379 41.3203V45H99.6445V38.6367H101.297V39.75H101.367C101.66 39.0117 102.34 38.5547 103.277 38.5547C104.602 38.5547 105.48 39.457 105.469 40.9453V45H103.746V41.25C103.746 40.4648 103.312 39.9961 102.598 39.9961C101.871 39.9961 101.379 40.4766 101.379 41.3203ZM109.699 45.1289C107.754 45.1289 106.559 43.8633 106.559 41.8477C106.559 39.8789 107.766 38.5547 109.629 38.5547C111.305 38.5547 112.617 39.6094 112.617 41.7773V42.2695H108.27C108.27 43.2305 108.844 43.8281 109.734 43.8281C110.32 43.8281 110.742 43.5703 110.918 43.1836H112.57C112.324 44.3555 111.27 45.1289 109.699 45.1289ZM108.27 41.1797H110.977C110.977 40.4062 110.438 39.8555 109.664 39.8555C108.867 39.8555 108.299 40.4473 108.27 41.1797ZM117.34 40.5234C117.27 40.0781 116.871 39.7852 116.297 39.7852C115.734 39.7852 115.301 40.0547 115.312 40.4414C115.301 40.7227 115.535 40.9453 116.133 41.0742L117.27 41.3086C118.5 41.5664 119.098 42.1172 119.109 43.0312C119.098 44.2852 117.973 45.1289 116.285 45.1289C114.562 45.1289 113.555 44.3555 113.414 43.1133H115.16C115.242 43.6172 115.652 43.875 116.285 43.875C116.918 43.875 117.34 43.6172 117.34 43.207C117.34 42.8789 117.07 42.6797 116.473 42.5508L115.418 42.3398C114.211 42.1055 113.578 41.4727 113.59 40.5352C113.578 39.3164 114.633 38.5547 116.273 38.5547C117.879 38.5547 118.875 39.3164 118.969 40.5234H117.34Z" fill="#192E47"/>
<rect x="24" y="90" width="295.728" height="27" fill="#F4F4F4"/>
<rect x="24" y="117" width="295.728" height="135" fill="white"/>
<path d="M24 117H319.728" stroke="#DBDBDB" stroke-width="0.644427"/>
<path d="M24 144H319.728" stroke="#DBDBDB" stroke-width="0.644427"/>
<path d="M24 90H319.529" stroke="#DBDBDB" stroke-width="0.644427"/>
<path d="M24 171H319.728" stroke="#DBDBDB" stroke-width="0.644427"/>
<path d="M24 198L320 197.638" stroke="#DBDBDB" stroke-width="0.644427"/>
<path d="M24 225H319.728" stroke="#DBDBDB" stroke-width="0.644427"/>
<path d="M24 252H319.728" stroke="#DBDBDB" stroke-width="0.644427"/>
<path d="M37.5889 106V99.6367H38.7314V105.033H41.5439V106H37.5889ZM44.5234 106.097C43.082 106.097 42.2031 105.139 42.2031 103.645C42.2031 102.168 43.0996 101.166 44.4619 101.166C45.6309 101.166 46.6416 101.896 46.6416 103.574V103.926H43.3105C43.3237 104.739 43.8027 105.218 44.5322 105.218C45.0244 105.218 45.3584 105.007 45.499 104.726H46.5977C46.3955 105.552 45.6309 106.097 44.5234 106.097ZM43.3193 103.161H45.5693C45.5605 102.511 45.1299 102.036 44.4795 102.036C43.8027 102.036 43.3545 102.55 43.3193 103.161ZM51.6338 101.228L49.9287 106H48.6982L46.9932 101.228H48.1885L49.2871 104.778H49.3398L50.4473 101.228H51.6338ZM54.2881 106.097C52.8467 106.097 51.9678 105.139 51.9678 103.645C51.9678 102.168 52.8643 101.166 54.2266 101.166C55.3955 101.166 56.4062 101.896 56.4062 103.574V103.926H53.0752C53.0884 104.739 53.5674 105.218 54.2969 105.218C54.7891 105.218 55.123 105.007 55.2637 104.726H56.3623C56.1602 105.552 55.3955 106.097 54.2881 106.097ZM53.084 103.161H55.334C55.3252 102.511 54.8945 102.036 54.2441 102.036C53.5674 102.036 53.1191 102.55 53.084 103.161ZM58.4014 99.6367V106H57.2764V99.6367H58.4014Z" fill="#313944"/>
<path d="M38.3069 127.637V134H37.551V127.637H38.3069ZM41.5149 134.097C40.135 134.101 39.2825 133.117 39.2825 131.653C39.2825 130.186 40.1482 129.166 41.4446 129.166C42.4465 129.166 43.5056 129.781 43.5012 131.548V131.864H40.0383C40.0779 132.875 40.6667 133.429 41.5149 133.429C42.0862 133.429 42.4465 133.178 42.6223 132.884H43.4309C43.2068 133.609 42.4993 134.101 41.5149 134.097ZM40.0427 131.223H42.7366C42.7322 130.427 42.2312 129.834 41.4446 129.834C40.6184 129.834 40.0955 130.484 40.0427 131.223ZM48.2649 129.228L46.4983 134H45.7161L43.9583 129.228H44.7844L46.0852 133.016H46.1379L47.4387 129.228H48.2649ZM50.928 134.097C49.5481 134.101 48.6956 133.117 48.6956 131.653C48.6956 130.186 49.5613 129.166 50.8577 129.166C51.8596 129.166 52.9187 129.781 52.9143 131.548V131.864H49.4514C49.491 132.875 50.0798 133.429 50.928 133.429C51.4993 133.429 51.8596 133.178 52.0354 132.884H52.844C52.6199 133.609 51.9124 134.101 50.928 134.097ZM49.4558 131.223H52.1497C52.1453 130.427 51.6443 129.834 50.8577 129.834C50.0315 129.834 49.5085 130.484 49.4558 131.223ZM54.6545 127.637V134H53.8987V127.637H54.6545ZM60.3586 127.637V134H59.5588V128.463H59.5237L57.9768 129.491V128.691L59.5588 127.637H60.3586Z" fill="#383C47"/>
<path d="M104.01 130.933V131.627H101.224V130.933H104.01Z" fill="#383C47"/>
<path d="M175.701 130.933V131.627H172.915V130.933H175.701Z" fill="#383C47"/>
<path d="M254.881 134L253.141 127.637H253.94L255.268 132.787H255.329L256.674 127.637H257.562L258.915 132.787H258.968L260.295 127.637H261.095L259.354 134H258.537L257.148 128.964H257.096L255.698 134H254.881ZM261.842 134V129.228H262.598V134H261.842ZM262.22 128.437C261.93 128.437 261.692 128.217 261.692 127.936C261.692 127.654 261.93 127.435 262.22 127.435C262.51 127.435 262.756 127.654 262.756 127.936C262.756 128.217 262.51 128.437 262.22 128.437ZM264.558 131.135V134H263.802V129.228H264.531V129.975H264.593C264.821 129.491 265.261 129.166 265.99 129.166C266.957 129.166 267.599 129.755 267.599 130.968V134H266.843V131.021C266.843 130.282 266.438 129.843 265.762 129.843C265.067 129.843 264.558 130.309 264.558 131.135ZM270.613 134.097C269.427 134.097 268.583 133.139 268.583 131.627C268.583 130.115 269.427 129.166 270.622 129.166C271.545 129.166 271.844 129.729 272.002 129.983H272.055V127.637H272.819V134H272.081V133.271H272.002C271.835 133.534 271.527 134.097 270.613 134.097ZM270.719 133.42C271.589 133.42 272.081 132.682 272.081 131.609C272.081 130.555 271.606 129.843 270.719 129.843C269.805 129.843 269.348 130.616 269.348 131.609C269.348 132.629 269.813 133.42 270.719 133.42ZM276.08 134.097C274.779 134.097 273.9 133.121 273.9 131.636C273.9 130.15 274.779 129.166 276.08 129.166C277.372 129.166 278.242 130.15 278.242 131.636C278.242 133.121 277.372 134.097 276.08 134.097ZM276.08 133.429C277.038 133.429 277.486 132.585 277.486 131.636C277.486 130.687 277.038 129.834 276.08 129.834C275.104 129.834 274.656 130.687 274.656 131.636C274.656 132.585 275.104 133.429 276.08 133.429ZM280.149 134L278.699 129.228H279.499L280.519 132.866H280.562L281.573 129.228H282.382L283.375 132.849H283.428L284.447 129.228H285.238L283.788 134H283.041L282.004 130.361H281.934L280.905 134H280.149ZM288.183 127.549C289.281 127.558 290.494 128.217 290.494 130.563C290.494 132.822 289.571 134.088 288.077 134.088C286.961 134.088 286.17 133.402 286.012 132.392H286.794C286.935 132.963 287.365 133.385 288.077 133.385C289.114 133.385 289.747 132.488 289.756 130.941H289.668C289.299 131.469 288.719 131.785 288.042 131.785C286.899 131.785 285.959 130.915 285.959 129.685C285.959 128.498 286.829 127.54 288.183 127.549ZM288.183 128.243C287.348 128.243 286.724 128.894 286.732 129.676C286.732 130.467 287.321 131.091 288.156 131.091C288.982 131.091 289.633 130.405 289.633 129.658C289.633 128.929 289.026 128.243 288.183 128.243ZM293.711 134.088C292.375 134.088 291.443 133.35 291.452 132.312C291.443 131.486 292.015 130.81 292.744 130.695V130.66C292.111 130.511 291.698 129.931 291.698 129.236C291.698 128.261 292.551 127.549 293.711 127.549C294.871 127.549 295.724 128.261 295.732 129.236C295.724 129.931 295.302 130.511 294.678 130.66V130.695C295.398 130.81 295.97 131.486 295.979 132.312C295.97 133.35 295.038 134.088 293.711 134.088ZM293.711 133.394C294.625 133.394 295.188 132.937 295.188 132.269C295.188 131.565 294.563 131.047 293.711 131.047C292.858 131.047 292.226 131.565 292.243 132.269C292.226 132.937 292.797 133.394 293.711 133.394ZM293.711 130.379C294.432 130.379 294.959 129.939 294.959 129.298C294.959 128.665 294.458 128.234 293.711 128.234C292.955 128.234 292.463 128.665 292.463 129.298C292.463 129.939 292.981 130.379 293.711 130.379Z" fill="#383C47"/>
<path d="M254.885 161L253.141 154.621H253.943L255.273 159.784H255.335L256.683 154.621H257.573L258.929 159.784H258.982L260.313 154.621H261.114L259.37 161H258.551L257.159 155.952H257.106L255.705 161H254.885ZM261.863 161V156.216H262.621V161H261.863ZM262.242 155.423C261.951 155.423 261.714 155.203 261.714 154.921C261.714 154.639 261.951 154.419 262.242 154.419C262.533 154.419 262.78 154.639 262.78 154.921C262.78 155.203 262.533 155.423 262.242 155.423ZM264.586 158.128V161H263.828V156.216H264.559V156.965H264.621C264.85 156.48 265.291 156.154 266.022 156.154C266.991 156.154 267.634 156.745 267.634 157.96V161H266.877V158.013C266.877 157.273 266.471 156.833 265.793 156.833C265.097 156.833 264.586 157.3 264.586 158.128ZM270.656 161.097C269.467 161.097 268.621 160.137 268.621 158.621C268.621 157.106 269.467 156.154 270.665 156.154C271.59 156.154 271.89 156.718 272.048 156.974H272.101V154.621H272.868V161H272.128V160.269H272.048C271.881 160.533 271.573 161.097 270.656 161.097ZM270.762 160.419C271.634 160.419 272.128 159.678 272.128 158.604C272.128 157.546 271.652 156.833 270.762 156.833C269.846 156.833 269.388 157.608 269.388 158.604C269.388 159.626 269.855 160.419 270.762 160.419ZM276.136 161.097C274.832 161.097 273.951 160.119 273.951 158.63C273.951 157.141 274.832 156.154 276.136 156.154C277.432 156.154 278.304 157.141 278.304 158.63C278.304 160.119 277.432 161.097 276.136 161.097ZM276.136 160.427C277.097 160.427 277.546 159.582 277.546 158.63C277.546 157.678 277.097 156.824 276.136 156.824C275.158 156.824 274.709 157.678 274.709 158.63C274.709 159.582 275.158 160.427 276.136 160.427ZM280.216 161L278.762 156.216H279.564L280.586 159.863H280.63L281.643 156.216H282.454L283.449 159.846H283.502L284.524 156.216H285.317L283.863 161H283.114L282.075 157.352H282.004L280.973 161H280.216ZM286.656 154.621L288.277 157.256H288.33L289.96 154.621H290.894L288.894 157.811L290.894 161H289.96L288.33 158.419H288.277L286.647 161H285.713L287.766 157.811L285.713 154.621H286.656ZM291.775 161V154.621H293.942C295.44 154.621 296.119 155.511 296.119 156.648C296.119 157.775 295.44 158.683 293.951 158.683H292.568V161H291.775ZM292.568 157.978H293.916C294.929 157.978 295.335 157.405 295.335 156.648C295.335 155.881 294.929 155.326 293.907 155.326H292.568V157.978Z" fill="#383C47"/>
<path d="M253.331 188V183.216H254.089V188H253.331ZM253.71 182.423C253.419 182.423 253.181 182.203 253.181 181.921C253.181 181.639 253.419 181.419 253.71 181.419C254 181.419 254.247 181.639 254.247 181.921C254.247 182.203 254 182.423 253.71 182.423ZM255.392 181.621H256.344L258.494 186.872H258.573L260.723 181.621H261.674V188H260.925V183.181H260.864L258.881 188H258.177L256.194 183.181H256.141V188H255.392V181.621ZM262.758 186.643C262.758 185.542 263.727 185.295 264.555 185.233C264.859 185.211 265.635 185.172 265.851 185.163V184.775C265.851 184.167 265.489 183.815 264.767 183.815C264.159 183.815 263.798 184.097 263.692 184.458H262.899C262.996 183.692 263.745 183.154 264.802 183.154C265.428 183.154 266.599 183.339 266.599 184.846V188H265.851V187.348H265.815C265.657 187.674 265.216 188.115 264.388 188.115C263.481 188.115 262.758 187.577 262.758 186.643ZM263.516 186.678C263.516 187.181 263.939 187.436 264.52 187.436C265.375 187.436 265.851 186.863 265.851 186.264V185.78L264.644 185.868C263.956 185.912 263.516 186.159 263.516 186.678ZM269.771 188.097C268.414 188.097 267.586 187.066 267.586 185.63C267.586 184.176 268.45 183.154 269.754 183.154C270.776 183.154 271.533 183.753 271.657 184.661H270.899C270.793 184.22 270.406 183.824 269.771 183.824C268.917 183.824 268.344 184.529 268.344 185.604C268.344 186.714 268.899 187.419 269.771 187.419C270.335 187.419 270.767 187.119 270.899 186.59H271.657C271.533 187.445 270.837 188.097 269.771 188.097Z" fill="#383C47"/>
<path d="M258.494 208.621V215H257.736L254.282 210.031H254.221V215H253.428V208.621H254.194L257.648 213.599H257.71V208.621H258.494ZM260.194 208.621L262.071 213.969H262.141L264.027 208.621H264.864L262.529 215H261.692L259.357 208.621H260.194ZM266.52 208.621V215H265.727V208.621H266.52ZM269.912 215H267.93V208.621H269.992C271.851 208.621 272.952 209.819 272.952 211.802C272.952 213.793 271.851 215 269.912 215ZM268.723 214.295H269.859C271.428 214.295 272.177 213.352 272.177 211.802C272.177 210.26 271.428 209.326 269.939 209.326H268.723V214.295ZM274.908 208.621V215H274.115V208.621H274.908ZM276.599 215H275.771L278.106 208.621H278.943L281.278 215H280.441L279.806 213.203H277.243L276.599 215ZM277.48 212.507H279.56L278.547 209.652H278.494L277.48 212.507Z" fill="#383C47"/>
<path d="M172.09 154.549C173.185 154.562 174.402 155.221 174.402 157.563C174.402 159.827 173.475 161.088 171.985 161.088C170.864 161.088 170.078 160.402 169.919 159.392H170.702C170.842 159.963 171.277 160.385 171.985 160.385C173.022 160.385 173.655 159.488 173.664 157.941H173.576C173.211 158.469 172.626 158.785 171.95 158.785C170.812 158.785 169.867 157.911 169.867 156.685C169.867 155.498 170.737 154.536 172.09 154.549ZM170.64 156.676C170.636 157.462 171.233 158.091 172.064 158.091C172.895 158.091 173.541 157.405 173.541 156.658C173.541 155.929 172.93 155.243 172.09 155.243C171.26 155.243 170.631 155.889 170.64 156.676ZM177.575 161.088C176.164 161.088 175.347 159.901 175.351 157.818C175.347 155.753 176.173 154.549 177.575 154.549C178.972 154.549 179.798 155.753 179.798 157.818C179.798 159.901 178.985 161.088 177.575 161.088ZM176.116 157.818C176.12 159.466 176.652 160.385 177.575 160.385C178.493 160.385 179.029 159.466 179.025 157.818C179.029 156.17 178.489 155.239 177.575 155.234C176.661 155.239 176.12 156.17 176.116 157.818ZM183.217 161V154.637H187.076V155.34H184.008V157.467H186.874V158.161H184.008V160.297H187.12V161H183.217ZM188.728 154.637L190.345 157.265H190.398L192.024 154.637H192.956L190.96 157.818L192.956 161H192.024L190.398 158.425H190.345L188.719 161H187.788L189.835 157.818L187.788 154.637H188.728ZM193.834 161V154.637H195.997C197.486 154.637 198.167 155.524 198.167 156.658C198.167 157.788 197.486 158.688 196.005 158.688H194.625V161H193.834ZM194.625 157.985H195.97C196.985 157.985 197.381 157.414 197.385 156.658C197.381 155.898 196.985 155.34 195.961 155.34H194.625V157.985Z" fill="#383C47"/>
<path d="M172.222 181.637V188H171.422V182.463H171.387L169.84 183.491V182.691L171.422 181.637H172.222ZM176.133 188.088C175.03 188.075 173.813 187.42 173.813 185.064C173.813 182.81 174.736 181.549 176.23 181.549C177.351 181.549 178.133 182.239 178.295 183.236H177.513C177.368 182.674 176.938 182.252 176.23 182.252C175.184 182.252 174.556 183.144 174.56 184.678H174.639C175.004 184.146 175.588 183.834 176.274 183.834C177.403 183.834 178.348 184.713 178.348 185.943C178.348 187.143 177.474 188.101 176.133 188.088ZM174.666 185.961C174.67 186.708 175.281 187.389 176.133 187.394C176.955 187.389 177.579 186.743 177.583 185.952C177.579 185.17 176.981 184.533 176.151 184.528C175.316 184.533 174.674 185.209 174.666 185.961ZM181.521 188.088C180.11 188.088 179.293 186.901 179.297 184.818C179.293 182.753 180.119 181.549 181.521 181.549C182.918 181.549 183.745 182.753 183.745 184.818C183.745 186.901 182.932 188.088 181.521 188.088ZM180.062 184.818C180.066 186.466 180.598 187.385 181.521 187.385C182.439 187.385 182.976 186.466 182.971 184.818C182.976 183.17 182.435 182.239 181.521 182.234C180.607 182.239 180.066 183.17 180.062 184.818ZM187.164 188V181.637H191.022V182.34H187.955V184.467H190.82V185.161H187.955V187.297H191.066V188H187.164ZM192.674 181.637L194.292 184.265H194.344L195.97 181.637H196.902L194.907 184.818L196.902 188H195.97L194.344 185.425H194.292L192.666 188H191.734L193.782 184.818L191.734 181.637H192.674ZM197.781 188V181.637H199.943C201.433 181.637 202.114 182.524 202.114 183.658C202.114 184.788 201.433 185.688 199.952 185.688H198.572V188H197.781ZM198.572 184.985H199.917C200.932 184.985 201.327 184.414 201.332 183.658C201.327 182.898 200.932 182.34 199.908 182.34H198.572V184.985Z" fill="#383C47"/>
<path d="M169.972 215L169.963 214.42L172.134 212.135C172.886 211.335 173.246 210.904 173.25 210.315C173.246 209.661 172.701 209.239 171.985 209.234C171.225 209.239 170.75 209.718 170.746 210.43H169.999C169.99 209.305 170.86 208.549 172.011 208.549C173.167 208.549 173.984 209.327 173.989 210.315C173.984 211.027 173.655 211.581 172.53 212.741L171.071 214.244V214.297H174.103V215H169.972ZM177.329 215.088C176.182 215.088 175.312 214.38 175.263 213.4H176.028C176.085 213.967 176.639 214.389 177.329 214.394C178.155 214.389 178.752 213.787 178.752 212.987C178.752 212.161 178.133 211.55 177.276 211.546C176.74 211.537 176.322 211.704 176.089 212.117H175.325L175.773 208.637H179.218V209.34H176.432L176.195 211.203H176.256C176.542 210.983 176.968 210.834 177.417 210.834C178.629 210.834 179.521 211.73 179.526 212.97C179.521 214.2 178.599 215.088 177.329 215.088ZM182.708 215.088C181.297 215.088 180.479 213.901 180.484 211.818C180.479 209.753 181.306 208.549 182.708 208.549C184.105 208.549 184.931 209.753 184.931 211.818C184.931 213.901 184.118 215.088 182.708 215.088ZM181.249 211.818C181.253 213.466 181.785 214.385 182.708 214.385C183.626 214.385 184.162 213.466 184.158 211.818C184.162 210.17 183.622 209.239 182.708 209.234C181.793 209.239 181.253 210.17 181.249 211.818ZM188.35 215V208.637H192.208V209.34H189.141V211.467H192.006V212.161H189.141V214.297H192.252V215H188.35ZM193.861 208.637L195.478 211.265H195.531L197.157 208.637H198.088L196.093 211.818L198.088 215H197.157L195.531 212.425H195.478L193.852 215H192.92L194.968 211.818L192.92 208.637H193.861ZM198.967 215V208.637H201.129C202.619 208.637 203.3 209.524 203.3 210.658C203.3 211.788 202.619 212.688 201.138 212.688H199.758V215H198.967ZM199.758 211.985H201.103C202.118 211.985 202.514 211.414 202.518 210.658C202.514 209.898 202.118 209.34 201.094 209.34H199.758V211.985Z" fill="#383C47"/>
<path d="M103.716 154.549C104.814 154.558 106.027 155.217 106.027 157.563C106.027 159.822 105.104 161.088 103.61 161.088C102.494 161.088 101.703 160.402 101.545 159.392H102.327C102.468 159.963 102.898 160.385 103.61 160.385C104.647 160.385 105.28 159.488 105.289 157.941H105.201C104.832 158.469 104.252 158.785 103.575 158.785C102.433 158.785 101.492 157.915 101.492 156.685C101.492 155.498 102.362 154.54 103.716 154.549ZM103.716 155.243C102.881 155.243 102.257 155.894 102.266 156.676C102.266 157.467 102.854 158.091 103.689 158.091C104.516 158.091 105.166 157.405 105.166 156.658C105.166 155.929 104.56 155.243 103.716 155.243ZM107.126 162.793V156.228H107.855V156.983H107.943C108.102 156.729 108.4 156.166 109.323 156.166C110.519 156.166 111.354 157.115 111.354 158.627C111.354 160.139 110.519 161.097 109.332 161.097C108.418 161.097 108.102 160.534 107.943 160.271H107.882V162.793H107.126ZM107.864 158.609C107.864 159.682 108.348 160.42 109.227 160.42C110.132 160.42 110.598 159.629 110.598 158.609C110.598 157.616 110.141 156.843 109.227 156.843C108.33 156.843 107.864 157.555 107.864 158.609ZM112.338 161V156.228H113.067V156.957H113.12C113.296 156.474 113.788 156.148 114.351 156.148C114.465 156.148 114.658 156.157 114.746 156.166V156.931C114.693 156.913 114.482 156.878 114.289 156.878C113.604 156.878 113.094 157.353 113.094 157.994V161H112.338ZM117.277 161.097C115.977 161.097 115.098 160.121 115.098 158.636C115.098 157.15 115.977 156.166 117.277 156.166C118.569 156.166 119.439 157.15 119.439 158.636C119.439 160.121 118.569 161.097 117.277 161.097ZM117.277 160.429C118.235 160.429 118.684 159.585 118.684 158.636C118.684 157.687 118.235 156.834 117.277 156.834C116.302 156.834 115.854 157.687 115.854 158.636C115.854 159.585 116.302 160.429 117.277 160.429ZM120.529 161V154.637H121.285V156.983H121.347C121.514 156.729 121.795 156.166 122.727 156.166C123.922 156.166 124.766 157.115 124.766 158.627C124.766 160.139 123.922 161.097 122.735 161.097C121.821 161.097 121.514 160.534 121.347 160.271H121.259V161H120.529ZM121.268 158.609C121.268 159.682 121.751 160.42 122.621 160.42C123.526 160.42 124.001 159.629 124.001 158.609C124.001 157.616 123.544 156.843 122.621 156.843C121.742 156.843 121.268 157.555 121.268 158.609ZM126.506 154.637V161H125.75V154.637H126.506ZM129.714 161.097C128.334 161.097 127.481 160.121 127.481 158.653C127.481 157.186 128.343 156.166 129.644 156.166C130.646 156.166 131.7 156.781 131.7 158.548V158.864H128.237C128.272 159.875 128.861 160.429 129.714 160.429C130.285 160.429 130.646 160.183 130.821 159.884H131.63C131.401 160.604 130.698 161.097 129.714 161.097ZM128.246 158.223H130.936C130.936 157.423 130.426 156.834 129.644 156.834C128.817 156.834 128.29 157.484 128.246 158.223ZM132.685 161V156.228H133.414V156.975H133.476C133.678 156.465 134.135 156.166 134.759 156.166C135.383 156.166 135.805 156.465 136.033 156.975H136.086C136.332 156.482 136.833 156.166 137.519 156.166C138.371 156.166 138.978 156.685 138.978 157.81V161H138.222V157.818C138.222 157.115 137.773 156.843 137.255 156.843C136.587 156.843 136.209 157.291 136.209 157.897V161H135.444V157.739C135.444 157.203 135.058 156.843 134.513 156.843C133.941 156.843 133.44 157.326 133.44 158.021V161H132.685ZM142.845 157.467C142.739 157.071 142.44 156.808 141.878 156.808C141.289 156.808 140.867 157.124 140.867 157.528C140.867 157.845 141.122 158.064 141.685 158.196L142.396 158.372C143.249 158.574 143.671 158.996 143.671 159.664C143.671 160.49 142.994 161.097 141.799 161.097C140.727 161.097 140.085 160.622 139.962 159.752H140.753C140.841 160.218 141.184 160.438 141.781 160.438C142.458 160.438 142.889 160.156 142.889 159.708C142.889 159.374 142.651 159.146 142.106 159.022L141.386 158.855C140.551 158.662 140.111 158.205 140.111 157.572C140.111 156.755 140.823 156.166 141.878 156.166C142.862 156.166 143.486 156.693 143.583 157.467H142.845Z" fill="#383C47"/>
<path d="M103.848 181.637V188H103.048V182.463H103.013L101.466 183.491V182.691L103.048 181.637H103.848ZM107.759 188.088C106.651 188.07 105.438 187.42 105.438 185.064C105.438 182.814 106.361 181.549 107.855 181.549C108.972 181.549 109.754 182.234 109.921 183.236H109.139C108.989 182.674 108.567 182.252 107.855 182.252C106.81 182.252 106.186 183.148 106.186 184.678H106.265C106.634 184.15 107.214 183.834 107.899 183.834C109.033 183.834 109.974 184.713 109.974 185.943C109.974 187.139 109.095 188.097 107.759 188.088ZM107.759 187.394C108.585 187.394 109.2 186.743 109.209 185.952C109.2 185.17 108.611 184.528 107.776 184.528C106.941 184.528 106.3 185.205 106.291 185.961C106.291 186.708 106.906 187.394 107.759 187.394ZM111.072 189.793V183.228H111.802V183.983H111.89C112.048 183.729 112.347 183.166 113.27 183.166C114.465 183.166 115.3 184.115 115.3 185.627C115.3 187.139 114.465 188.097 113.278 188.097C112.364 188.097 112.048 187.534 111.89 187.271H111.828V189.793H111.072ZM111.811 185.609C111.811 186.682 112.294 187.42 113.173 187.42C114.078 187.42 114.544 186.629 114.544 185.609C114.544 184.616 114.087 183.843 113.173 183.843C112.276 183.843 111.811 184.555 111.811 185.609ZM116.284 188V183.228H117.014V183.957H117.066C117.242 183.474 117.734 183.148 118.297 183.148C118.411 183.148 118.604 183.157 118.692 183.166V183.931C118.64 183.913 118.429 183.878 118.235 183.878C117.55 183.878 117.04 184.353 117.04 184.994V188H116.284ZM121.224 188.097C119.923 188.097 119.044 187.121 119.044 185.636C119.044 184.15 119.923 183.166 121.224 183.166C122.516 183.166 123.386 184.15 123.386 185.636C123.386 187.121 122.516 188.097 121.224 188.097ZM121.224 187.429C122.182 187.429 122.63 186.585 122.63 185.636C122.63 184.687 122.182 183.834 121.224 183.834C120.248 183.834 119.8 184.687 119.8 185.636C119.8 186.585 120.248 187.429 121.224 187.429ZM124.476 188V181.637H125.231V183.983H125.293C125.46 183.729 125.741 183.166 126.673 183.166C127.868 183.166 128.712 184.115 128.712 185.627C128.712 187.139 127.868 188.097 126.682 188.097C125.768 188.097 125.46 187.534 125.293 187.271H125.205V188H124.476ZM125.214 185.609C125.214 186.682 125.697 187.42 126.567 187.42C127.473 187.42 127.947 186.629 127.947 185.609C127.947 184.616 127.49 183.843 126.567 183.843C125.688 183.843 125.214 184.555 125.214 185.609ZM130.452 181.637V188H129.696V181.637H130.452ZM133.66 188.097C132.28 188.097 131.428 187.121 131.428 185.653C131.428 184.186 132.289 183.166 133.59 183.166C134.592 183.166 135.646 183.781 135.646 185.548V185.864H132.184C132.219 186.875 132.808 187.429 133.66 187.429C134.231 187.429 134.592 187.183 134.768 186.884H135.576C135.348 187.604 134.645 188.097 133.66 188.097ZM132.192 185.223H134.882C134.882 184.423 134.372 183.834 133.59 183.834C132.764 183.834 132.236 184.484 132.192 185.223ZM136.631 188V183.228H137.36V183.975H137.422C137.624 183.465 138.081 183.166 138.705 183.166C139.329 183.166 139.751 183.465 139.979 183.975H140.032C140.278 183.482 140.779 183.166 141.465 183.166C142.317 183.166 142.924 183.685 142.924 184.81V188H142.168V184.818C142.168 184.115 141.72 183.843 141.201 183.843C140.533 183.843 140.155 184.291 140.155 184.897V188H139.391V184.739C139.391 184.203 139.004 183.843 138.459 183.843C137.888 183.843 137.387 184.326 137.387 185.021V188H136.631ZM146.791 184.467C146.686 184.071 146.387 183.808 145.824 183.808C145.235 183.808 144.813 184.124 144.813 184.528C144.813 184.845 145.068 185.064 145.631 185.196L146.343 185.372C147.195 185.574 147.617 185.996 147.617 186.664C147.617 187.49 146.94 188.097 145.745 188.097C144.673 188.097 144.031 187.622 143.908 186.752H144.699C144.787 187.218 145.13 187.438 145.728 187.438C146.404 187.438 146.835 187.156 146.835 186.708C146.835 186.374 146.598 186.146 146.053 186.022L145.332 185.855C144.497 185.662 144.058 185.205 144.058 184.572C144.058 183.755 144.77 183.166 145.824 183.166C146.809 183.166 147.433 183.693 147.529 184.467H146.791Z" fill="#383C47"/>
<path d="M101.598 215L101.589 214.42L103.76 212.135C104.516 211.335 104.876 210.904 104.876 210.315C104.876 209.665 104.322 209.234 103.61 209.234C102.854 209.234 102.371 209.718 102.371 210.43H101.624C101.615 209.305 102.485 208.549 103.637 208.549C104.788 208.549 105.614 209.322 105.614 210.315C105.614 211.027 105.28 211.581 104.155 212.741L102.696 214.244V214.297H105.729V215H101.598ZM108.954 215.088C107.803 215.088 106.933 214.376 106.889 213.4H107.653C107.715 213.972 108.269 214.394 108.954 214.394C109.78 214.394 110.378 213.787 110.378 212.987C110.378 212.161 109.754 211.555 108.901 211.546C108.365 211.537 107.952 211.704 107.715 212.117H106.95L107.398 208.637H110.844V209.34H108.058L107.82 211.203H107.882C108.163 210.983 108.594 210.834 109.042 210.834C110.255 210.834 111.151 211.73 111.151 212.97C111.151 214.2 110.22 215.088 108.954 215.088ZM112.259 216.793V210.228H112.988V210.983H113.076C113.234 210.729 113.533 210.166 114.456 210.166C115.651 210.166 116.486 211.115 116.486 212.627C116.486 214.139 115.651 215.097 114.465 215.097C113.551 215.097 113.234 214.534 113.076 214.271H113.015V216.793H112.259ZM112.997 212.609C112.997 213.682 113.48 214.42 114.359 214.42C115.265 214.42 115.73 213.629 115.73 212.609C115.73 211.616 115.273 210.843 114.359 210.843C113.463 210.843 112.997 211.555 112.997 212.609ZM117.471 215V210.228H118.2V210.957H118.253C118.429 210.474 118.921 210.148 119.483 210.148C119.598 210.148 119.791 210.157 119.879 210.166V210.931C119.826 210.913 119.615 210.878 119.422 210.878C118.736 210.878 118.227 211.353 118.227 211.994V215H117.471ZM122.41 215.097C121.109 215.097 120.23 214.121 120.23 212.636C120.23 211.15 121.109 210.166 122.41 210.166C123.702 210.166 124.572 211.15 124.572 212.636C124.572 214.121 123.702 215.097 122.41 215.097ZM122.41 214.429C123.368 214.429 123.816 213.585 123.816 212.636C123.816 211.687 123.368 210.834 122.41 210.834C121.435 210.834 120.986 211.687 120.986 212.636C120.986 213.585 121.435 214.429 122.41 214.429ZM125.662 215V208.637H126.418V210.983H126.479C126.646 210.729 126.928 210.166 127.859 210.166C129.055 210.166 129.898 211.115 129.898 212.627C129.898 214.139 129.055 215.097 127.868 215.097C126.954 215.097 126.646 214.534 126.479 214.271H126.392V215H125.662ZM126.4 212.609C126.4 213.682 126.884 214.42 127.754 214.42C128.659 214.42 129.134 213.629 129.134 212.609C129.134 211.616 128.677 210.843 127.754 210.843C126.875 210.843 126.4 211.555 126.4 212.609ZM131.639 208.637V215H130.883V208.637H131.639ZM134.847 215.097C133.467 215.097 132.614 214.121 132.614 212.653C132.614 211.186 133.476 210.166 134.776 210.166C135.778 210.166 136.833 210.781 136.833 212.548V212.864H133.37C133.405 213.875 133.994 214.429 134.847 214.429C135.418 214.429 135.778 214.183 135.954 213.884H136.763C136.534 214.604 135.831 215.097 134.847 215.097ZM133.379 212.223H136.068C136.068 211.423 135.559 210.834 134.776 210.834C133.95 210.834 133.423 211.484 133.379 212.223ZM137.817 215V210.228H138.547V210.975H138.608C138.811 210.465 139.268 210.166 139.892 210.166C140.516 210.166 140.938 210.465 141.166 210.975H141.219C141.465 210.482 141.966 210.166 142.651 210.166C143.504 210.166 144.11 210.685 144.11 211.81V215H143.354V211.818C143.354 211.115 142.906 210.843 142.388 210.843C141.72 210.843 141.342 211.291 141.342 211.897V215H140.577V211.739C140.577 211.203 140.19 210.843 139.646 210.843C139.074 210.843 138.573 211.326 138.573 212.021V215H137.817ZM147.978 211.467C147.872 211.071 147.573 210.808 147.011 210.808C146.422 210.808 146 211.124 146 211.528C146 211.845 146.255 212.064 146.817 212.196L147.529 212.372C148.382 212.574 148.804 212.996 148.804 213.664C148.804 214.49 148.127 215.097 146.932 215.097C145.859 215.097 145.218 214.622 145.095 213.752H145.886C145.974 214.218 146.316 214.438 146.914 214.438C147.591 214.438 148.021 214.156 148.021 213.708C148.021 213.374 147.784 213.146 147.239 213.022L146.519 212.855C145.684 212.662 145.244 212.205 145.244 211.572C145.244 210.755 145.956 210.166 147.011 210.166C147.995 210.166 148.619 210.693 148.716 211.467H147.978Z" fill="#383C47"/>
<path d="M38.3069 154.637V161H37.551V154.637H38.3069ZM41.5149 161.097C40.135 161.101 39.2825 160.117 39.2825 158.653C39.2825 157.186 40.1482 156.166 41.4446 156.166C42.4465 156.166 43.5056 156.781 43.5012 158.548V158.864H40.0383C40.0779 159.875 40.6667 160.429 41.5149 160.429C42.0862 160.429 42.4465 160.178 42.6223 159.884H43.4309C43.2068 160.609 42.4993 161.101 41.5149 161.097ZM40.0427 158.223H42.7366C42.7322 157.427 42.2312 156.834 41.4446 156.834C40.6184 156.834 40.0955 157.484 40.0427 158.223ZM48.2649 156.228L46.4983 161H45.7161L43.9583 156.228H44.7844L46.0852 160.016H46.1379L47.4387 156.228H48.2649ZM50.928 161.097C49.5481 161.101 48.6956 160.117 48.6956 158.653C48.6956 157.186 49.5613 156.166 50.8577 156.166C51.8596 156.166 52.9187 156.781 52.9143 158.548V158.864H49.4514C49.491 159.875 50.0798 160.429 50.928 160.429C51.4993 160.429 51.8596 160.178 52.0354 159.884H52.844C52.6199 160.609 51.9124 161.101 50.928 161.097ZM49.4558 158.223H52.1497C52.1453 157.427 51.6443 156.834 50.8577 156.834C50.0315 156.834 49.5085 157.484 49.4558 158.223ZM54.6545 154.637V161H53.8987V154.637H54.6545ZM58.1086 161L58.0999 160.42L60.2708 158.135C61.0222 157.335 61.3826 156.904 61.387 156.315C61.3826 155.661 60.8376 155.239 60.1213 155.234C59.3611 155.239 58.8865 155.718 58.8821 156.43H58.135C58.1262 155.305 58.9963 154.549 60.1477 154.549C61.3035 154.549 62.1208 155.327 62.1252 156.315C62.1208 157.027 61.7913 157.581 60.6663 158.741L59.2073 160.244V160.297H62.2395V161H58.1086Z" fill="#383C47"/>
<path d="M38.3069 181.637V188H37.551V181.637H38.3069ZM41.5149 188.097C40.135 188.101 39.2825 187.117 39.2825 185.653C39.2825 184.186 40.1482 183.166 41.4446 183.166C42.4465 183.166 43.5056 183.781 43.5012 185.548V185.864H40.0383C40.0779 186.875 40.6667 187.429 41.5149 187.429C42.0862 187.429 42.4465 187.178 42.6223 186.884H43.4309C43.2068 187.609 42.4993 188.101 41.5149 188.097ZM40.0427 185.223H42.7366C42.7322 184.427 42.2312 183.834 41.4446 183.834C40.6184 183.834 40.0955 184.484 40.0427 185.223ZM48.2649 183.228L46.4983 188H45.7161L43.9583 183.228H44.7844L46.0852 187.016H46.1379L47.4387 183.228H48.2649ZM50.928 188.097C49.5481 188.101 48.6956 187.117 48.6956 185.653C48.6956 184.186 49.5613 183.166 50.8577 183.166C51.8596 183.166 52.9187 183.781 52.9143 185.548V185.864H49.4514C49.491 186.875 50.0798 187.429 50.928 187.429C51.4993 187.429 51.8596 187.178 52.0354 186.884H52.844C52.6199 187.609 51.9124 188.101 50.928 188.097ZM49.4558 185.223H52.1497C52.1453 184.427 51.6443 183.834 50.8577 183.834C50.0315 183.834 49.5085 184.484 49.4558 185.223ZM54.6545 181.637V188H53.8987V181.637H54.6545ZM60.3059 188.088C59.0403 188.088 58.1306 187.411 58.0911 186.4H58.8909C58.9348 187.007 59.5369 187.385 60.2971 187.385C61.1365 187.385 61.7429 186.932 61.7473 186.269C61.7429 185.574 61.1892 185.086 60.2004 185.082H59.6819V184.388H60.2004C60.9739 184.388 61.5144 183.953 61.51 183.298C61.5144 182.661 61.0486 182.239 60.3235 182.234C59.6423 182.239 59.0227 182.612 58.9875 183.236H58.2229C58.2625 182.226 59.2029 181.549 60.3323 181.549C61.5452 181.549 62.2834 182.344 62.2747 183.254C62.2834 183.979 61.8616 184.506 61.1936 184.695V184.739C62.0242 184.867 62.5251 185.46 62.5208 186.269C62.5251 187.314 61.5759 188.088 60.3059 188.088Z" fill="#383C47"/>
<path d="M38.3069 208.637V215H37.551V208.637H38.3069ZM41.5149 215.097C40.135 215.101 39.2825 214.117 39.2825 212.653C39.2825 211.186 40.1482 210.166 41.4446 210.166C42.4465 210.166 43.5056 210.781 43.5012 212.548V212.864H40.0383C40.0779 213.875 40.6667 214.429 41.5149 214.429C42.0862 214.429 42.4465 214.178 42.6223 213.884H43.4309C43.2068 214.609 42.4993 215.101 41.5149 215.097ZM40.0427 212.223H42.7366C42.7322 211.427 42.2312 210.834 41.4446 210.834C40.6184 210.834 40.0955 211.484 40.0427 212.223ZM48.2649 210.228L46.4983 215H45.7161L43.9583 210.228H44.7844L46.0852 214.016H46.1379L47.4387 210.228H48.2649ZM50.928 215.097C49.5481 215.101 48.6956 214.117 48.6956 212.653C48.6956 211.186 49.5613 210.166 50.8577 210.166C51.8596 210.166 52.9187 210.781 52.9143 212.548V212.864H49.4514C49.491 213.875 50.0798 214.429 50.928 214.429C51.4993 214.429 51.8596 214.178 52.0354 213.884H52.844C52.6199 214.609 51.9124 215.101 50.928 215.097ZM49.4558 212.223H52.1497C52.1453 211.427 51.6443 210.834 50.8577 210.834C50.0315 210.834 49.5085 211.484 49.4558 212.223ZM54.6545 208.637V215H53.8987V208.637H54.6545ZM57.9504 213.699V213.049L60.8157 208.637H61.7913V213.005H62.679V213.699H61.7913V215H61.0354V213.699H57.9504ZM58.803 213.005H61.0354V209.639H60.9563L58.803 212.952V213.005Z" fill="#383C47"/>
<path d="M253.705 242V235.621H255.872C257.37 235.621 258.048 236.511 258.048 237.648C258.048 238.775 257.37 239.683 255.881 239.683H254.498V242H253.705ZM254.498 238.978H255.846C256.859 238.978 257.264 238.405 257.264 237.648C257.264 236.881 256.859 236.326 255.837 236.326H254.498V238.978ZM259.062 242V237.216H259.793V237.947H259.846C260.022 237.463 260.515 237.137 261.079 237.137C261.194 237.137 261.388 237.145 261.476 237.154V237.921C261.423 237.903 261.211 237.868 261.018 237.868C260.33 237.868 259.819 238.344 259.819 238.987V242H259.062ZM264.013 242.097C262.709 242.097 261.828 241.119 261.828 239.63C261.828 238.141 262.709 237.154 264.013 237.154C265.308 237.154 266.181 238.141 266.181 239.63C266.181 241.119 265.308 242.097 264.013 242.097ZM264.013 241.427C264.973 241.427 265.423 240.582 265.423 239.63C265.423 238.678 264.973 237.824 264.013 237.824C263.035 237.824 262.586 238.678 262.586 239.63C262.586 240.582 263.035 241.427 264.013 241.427ZM271.52 242H269.537V235.621H271.599C273.458 235.621 274.559 236.819 274.559 238.802C274.559 240.793 273.458 242 271.52 242ZM270.33 241.295H271.467C273.035 241.295 273.784 240.352 273.784 238.802C273.784 237.26 273.035 236.326 271.546 236.326H270.33V241.295ZM277.634 242.097C276.251 242.097 275.396 241.119 275.396 239.648C275.396 238.176 276.26 237.154 277.564 237.154C278.568 237.154 279.625 237.771 279.625 239.542V239.859H276.154C276.189 240.872 276.78 241.427 277.634 241.427C278.207 241.427 278.568 241.181 278.744 240.881H279.555C279.326 241.604 278.621 242.097 277.634 242.097ZM276.163 239.216H278.859C278.859 238.414 278.348 237.824 277.564 237.824C276.736 237.824 276.207 238.476 276.163 239.216ZM284.401 237.216L282.63 242H281.846L280.084 237.216H280.912L282.216 241.013H282.269L283.573 237.216H284.401ZM287.07 242.097C285.687 242.097 284.832 241.119 284.832 239.648C284.832 238.176 285.696 237.154 287 237.154C288.004 237.154 289.061 237.771 289.061 239.542V239.859H285.59C285.625 240.872 286.216 241.427 287.07 241.427C287.643 241.427 288.004 241.181 288.18 240.881H288.991C288.762 241.604 288.057 242.097 287.07 242.097ZM285.599 239.216H288.295C288.295 238.414 287.784 237.824 287 237.824C286.172 237.824 285.643 238.476 285.599 239.216ZM290.806 235.621V242H290.048V235.621H290.806ZM293.969 242.097C292.665 242.097 291.784 241.119 291.784 239.63C291.784 238.141 292.665 237.154 293.969 237.154C295.264 237.154 296.136 238.141 296.136 239.63C296.136 241.119 295.264 242.097 293.969 242.097ZM293.969 241.427C294.929 241.427 295.379 240.582 295.379 239.63C295.379 238.678 294.929 237.824 293.969 237.824C292.991 237.824 292.542 238.678 292.542 239.63C292.542 240.582 292.991 241.427 293.969 241.427ZM297.132 243.797V237.216H297.863V237.974H297.951C298.11 237.718 298.409 237.154 299.335 237.154C300.533 237.154 301.37 238.106 301.37 239.621C301.37 241.137 300.533 242.097 299.343 242.097C298.427 242.097 298.11 241.533 297.951 241.269H297.89V243.797H297.132ZM297.872 239.604C297.872 240.678 298.357 241.419 299.238 241.419C300.145 241.419 300.612 240.626 300.612 239.604C300.612 238.608 300.154 237.833 299.238 237.833C298.339 237.833 297.872 238.546 297.872 239.604ZM304.365 242.097C302.982 242.097 302.127 241.119 302.127 239.648C302.127 238.176 302.991 237.154 304.295 237.154C305.299 237.154 306.357 237.771 306.357 239.542V239.859H302.885C302.92 240.872 303.511 241.427 304.365 241.427C304.938 241.427 305.299 241.181 305.475 240.881H306.286C306.057 241.604 305.352 242.097 304.365 242.097ZM302.894 239.216H305.59C305.59 238.414 305.079 237.824 304.295 237.824C303.467 237.824 302.938 238.476 302.894 239.216ZM307.343 242V237.216H308.075V237.947H308.127C308.304 237.463 308.797 237.137 309.361 237.137C309.475 237.137 309.669 237.145 309.757 237.154V237.921C309.705 237.903 309.493 237.868 309.299 237.868C308.612 237.868 308.101 238.344 308.101 238.987V242H307.343Z" fill="#383C47"/>
<path d="M172.169 242.088C170.904 242.088 169.994 241.411 169.955 240.4H170.754C170.798 241.007 171.4 241.385 172.161 241.385C173 241.385 173.606 240.932 173.611 240.269C173.606 239.574 173.053 239.086 172.064 239.082H171.545V238.388H172.064C172.837 238.388 173.378 237.953 173.374 237.298C173.378 236.661 172.912 236.239 172.187 236.234C171.506 236.239 170.886 236.612 170.851 237.236H170.086C170.126 236.226 171.066 235.549 172.196 235.549C173.409 235.549 174.147 236.344 174.138 237.254C174.147 237.979 173.725 238.506 173.057 238.695V238.739C173.888 238.867 174.389 239.46 174.384 240.269C174.389 241.314 173.439 242.088 172.169 242.088ZM177.742 242.088C176.639 242.075 175.421 241.42 175.421 239.064C175.421 236.81 176.344 235.549 177.838 235.549C178.959 235.549 179.741 236.239 179.904 237.236H179.122C178.977 236.674 178.546 236.252 177.838 236.252C176.792 236.252 176.164 237.144 176.168 238.678H176.248C176.612 238.146 177.197 237.834 177.882 237.834C179.012 237.834 179.957 238.713 179.957 239.943C179.957 241.143 179.082 242.101 177.742 242.088ZM176.274 239.961C176.278 240.708 176.889 241.389 177.742 241.394C178.563 241.389 179.188 240.743 179.192 239.952C179.188 239.17 178.59 238.533 177.759 238.528C176.924 238.533 176.283 239.209 176.274 239.961ZM183.129 242.088C181.719 242.088 180.901 240.901 180.906 238.818C180.901 236.753 181.728 235.549 183.129 235.549C184.527 235.549 185.353 236.753 185.353 238.818C185.353 240.901 184.54 242.088 183.129 242.088ZM181.67 238.818C181.675 240.466 182.207 241.385 183.129 241.385C184.048 241.385 184.584 240.466 184.58 238.818C184.584 237.17 184.043 236.239 183.129 236.234C182.215 236.239 181.675 237.17 181.67 238.818ZM188.772 242V235.637H192.63V236.34H189.563V238.467H192.428V239.161H189.563V241.297H192.674V242H188.772ZM194.283 235.637L195.9 238.265H195.953L197.579 235.637H198.51L196.515 238.818L198.51 242H197.579L195.953 239.425H195.9L194.274 242H193.342L195.39 238.818L193.342 235.637H194.283ZM199.389 242V235.637H201.551C203.041 235.637 203.722 236.524 203.722 237.658C203.722 238.788 203.041 239.688 201.56 239.688H200.18V242H199.389ZM200.18 238.985H201.525C202.54 238.985 202.936 238.414 202.94 237.658C202.936 236.898 202.54 236.34 201.516 236.34H200.18V238.985Z" fill="#383C47"/>
<path d="M103.795 242.088C102.529 242.088 101.624 241.411 101.58 240.4H102.38C102.424 241.007 103.03 241.385 103.786 241.385C104.621 241.385 105.236 240.928 105.236 240.269C105.236 239.574 104.683 239.082 103.689 239.082H103.171V238.388H103.689C104.463 238.388 104.999 237.957 104.999 237.298C104.999 236.665 104.533 236.234 103.812 236.234C103.136 236.234 102.512 236.612 102.477 237.236H101.712C101.756 236.226 102.688 235.549 103.821 235.549C105.034 235.549 105.772 236.34 105.764 237.254C105.772 237.975 105.351 238.511 104.683 238.695V238.739C105.509 238.871 106.019 239.46 106.01 240.269C106.019 241.314 105.061 242.088 103.795 242.088ZM109.367 242.088C108.26 242.07 107.047 241.42 107.047 239.064C107.047 236.814 107.97 235.549 109.464 235.549C110.58 235.549 111.362 236.234 111.529 237.236H110.747C110.598 236.674 110.176 236.252 109.464 236.252C108.418 236.252 107.794 237.148 107.794 238.678H107.873C108.242 238.15 108.822 237.834 109.508 237.834C110.642 237.834 111.582 238.713 111.582 239.943C111.582 241.139 110.703 242.097 109.367 242.088ZM109.367 241.394C110.193 241.394 110.809 240.743 110.817 239.952C110.809 239.17 110.22 238.528 109.385 238.528C108.55 238.528 107.908 239.205 107.899 239.961C107.899 240.708 108.515 241.394 109.367 241.394ZM112.681 243.793V237.228H113.41V237.983H113.498C113.656 237.729 113.955 237.166 114.878 237.166C116.073 237.166 116.908 238.115 116.908 239.627C116.908 241.139 116.073 242.097 114.887 242.097C113.973 242.097 113.656 241.534 113.498 241.271H113.437V243.793H112.681ZM113.419 239.609C113.419 240.682 113.902 241.42 114.781 241.42C115.687 241.42 116.152 240.629 116.152 239.609C116.152 238.616 115.695 237.843 114.781 237.843C113.885 237.843 113.419 238.555 113.419 239.609ZM117.893 242V237.228H118.622V237.957H118.675C118.851 237.474 119.343 237.148 119.905 237.148C120.02 237.148 120.213 237.157 120.301 237.166V237.931C120.248 237.913 120.037 237.878 119.844 237.878C119.158 237.878 118.648 238.353 118.648 238.994V242H117.893ZM122.832 242.097C121.531 242.097 120.652 241.121 120.652 239.636C120.652 238.15 121.531 237.166 122.832 237.166C124.124 237.166 124.994 238.15 124.994 239.636C124.994 241.121 124.124 242.097 122.832 242.097ZM122.832 241.429C123.79 241.429 124.238 240.585 124.238 239.636C124.238 238.687 123.79 237.834 122.832 237.834C121.856 237.834 121.408 238.687 121.408 239.636C121.408 240.585 121.856 241.429 122.832 241.429ZM126.084 242V235.637H126.84V237.983H126.901C127.068 237.729 127.35 237.166 128.281 237.166C129.477 237.166 130.32 238.115 130.32 239.627C130.32 241.139 129.477 242.097 128.29 242.097C127.376 242.097 127.068 241.534 126.901 241.271H126.813V242H126.084ZM126.822 239.609C126.822 240.682 127.306 241.42 128.176 241.42C129.081 241.42 129.556 240.629 129.556 239.609C129.556 238.616 129.099 237.843 128.176 237.843C127.297 237.843 126.822 238.555 126.822 239.609ZM132.061 235.637V242H131.305V235.637H132.061ZM135.269 242.097C133.889 242.097 133.036 241.121 133.036 239.653C133.036 238.186 133.897 237.166 135.198 237.166C136.2 237.166 137.255 237.781 137.255 239.548V239.864H133.792C133.827 240.875 134.416 241.429 135.269 241.429C135.84 241.429 136.2 241.183 136.376 240.884H137.185C136.956 241.604 136.253 242.097 135.269 242.097ZM133.801 239.223H136.49C136.49 238.423 135.98 237.834 135.198 237.834C134.372 237.834 133.845 238.484 133.801 239.223ZM138.239 242V237.228H138.969V237.975H139.03C139.232 237.465 139.689 237.166 140.313 237.166C140.938 237.166 141.359 237.465 141.588 237.975H141.641C141.887 237.482 142.388 237.166 143.073 237.166C143.926 237.166 144.532 237.685 144.532 238.81V242H143.776V238.818C143.776 238.115 143.328 237.843 142.81 237.843C142.142 237.843 141.764 238.291 141.764 238.897V242H140.999V238.739C140.999 238.203 140.612 237.843 140.067 237.843C139.496 237.843 138.995 238.326 138.995 239.021V242H138.239ZM148.399 238.467C148.294 238.071 147.995 237.808 147.433 237.808C146.844 237.808 146.422 238.124 146.422 238.528C146.422 238.845 146.677 239.064 147.239 239.196L147.951 239.372C148.804 239.574 149.226 239.996 149.226 240.664C149.226 241.49 148.549 242.097 147.354 242.097C146.281 242.097 145.64 241.622 145.517 240.752H146.308C146.396 241.218 146.738 241.438 147.336 241.438C148.013 241.438 148.443 241.156 148.443 240.708C148.443 240.374 148.206 240.146 147.661 240.022L146.94 239.855C146.105 239.662 145.666 239.205 145.666 238.572C145.666 237.755 146.378 237.166 147.433 237.166C148.417 237.166 149.041 237.693 149.138 238.467H148.399Z" fill="#383C47"/>
<path d="M38.3069 235.637V242H37.551V235.637H38.3069ZM41.5149 242.097C40.135 242.101 39.2825 241.117 39.2825 239.653C39.2825 238.186 40.1482 237.166 41.4446 237.166C42.4465 237.166 43.5056 237.781 43.5012 239.548V239.864H40.0383C40.0779 240.875 40.6667 241.429 41.5149 241.429C42.0862 241.429 42.4465 241.178 42.6223 240.884H43.4309C43.2068 241.609 42.4993 242.101 41.5149 242.097ZM40.0427 239.223H42.7366C42.7322 238.427 42.2312 237.834 41.4446 237.834C40.6184 237.834 40.0955 238.484 40.0427 239.223ZM48.2649 237.228L46.4983 242H45.7161L43.9583 237.228H44.7844L46.0852 241.016H46.1379L47.4387 237.228H48.2649ZM50.928 242.097C49.5481 242.101 48.6956 241.117 48.6956 239.653C48.6956 238.186 49.5613 237.166 50.8577 237.166C51.8596 237.166 52.9187 237.781 52.9143 239.548V239.864H49.4514C49.491 240.875 50.0798 241.429 50.928 241.429C51.4993 241.429 51.8596 241.178 52.0354 240.884H52.844C52.6199 241.609 51.9124 242.101 50.928 242.097ZM49.4558 239.223H52.1497C52.1453 238.427 51.6443 237.834 50.8577 237.834C50.0315 237.834 49.5085 238.484 49.4558 239.223ZM54.6545 235.637V242H53.8987V235.637H54.6545ZM60.1829 242.088C59.0359 242.088 58.1658 241.38 58.1174 240.4H58.8821C58.9392 240.967 59.4929 241.389 60.1829 241.394C61.009 241.389 61.6067 240.787 61.6067 239.987C61.6067 239.161 60.9871 238.55 60.1301 238.546C59.594 238.537 59.1765 238.704 58.9436 239.117H58.179L58.6272 235.637H62.0725V236.34H59.2864L59.0491 238.203H59.1106C59.3962 237.983 59.8225 237.834 60.2708 237.834C61.4836 237.834 62.3757 238.73 62.3801 239.97C62.3757 241.2 61.4529 242.088 60.1829 242.088Z" fill="#383C47"/>
<path d="M101.589 106V99.6367H103.979C105.438 99.6367 106.221 100.524 106.221 101.746C106.221 102.968 105.43 103.847 103.962 103.847H102.731V106H101.589ZM102.731 102.906H103.804C104.665 102.906 105.052 102.423 105.052 101.746C105.052 101.061 104.665 100.595 103.804 100.595H102.731V102.906ZM107.091 106V101.228H108.181V102.019H108.233C108.4 101.474 108.866 101.157 109.411 101.157C109.534 101.157 109.71 101.166 109.815 101.184V102.221C109.719 102.186 109.481 102.15 109.297 102.15C108.673 102.15 108.216 102.581 108.216 103.188V106H107.091ZM112.408 106.097C111.02 106.097 110.123 105.112 110.123 103.636C110.123 102.15 111.02 101.166 112.408 101.166C113.806 101.166 114.693 102.15 114.693 103.636C114.693 105.112 113.806 106.097 112.408 106.097ZM112.417 105.2C113.182 105.2 113.56 104.506 113.56 103.627C113.56 102.757 113.182 102.054 112.417 102.054C111.635 102.054 111.257 102.757 111.257 103.627C111.257 104.506 111.635 105.2 112.417 105.2ZM115.616 106V99.6367H116.741V102.01H116.785C116.961 101.667 117.304 101.166 118.147 101.166C119.255 101.166 120.125 102.027 120.125 103.618C120.125 105.191 119.272 106.088 118.156 106.088C117.33 106.088 116.961 105.596 116.785 105.244H116.715V106H115.616ZM116.715 103.609C116.715 104.541 117.119 105.165 117.84 105.165C118.587 105.165 118.982 104.515 118.982 103.609C118.982 102.722 118.596 102.08 117.84 102.08C117.119 102.08 116.715 102.687 116.715 103.609ZM122.129 99.6367V106H121.004V99.6367H122.129ZM125.319 106.097C123.878 106.097 122.999 105.139 122.999 103.645C122.999 102.168 123.896 101.166 125.258 101.166C126.427 101.166 127.438 101.896 127.438 103.574V103.926H124.106C124.12 104.739 124.599 105.218 125.328 105.218C125.82 105.218 126.154 105.007 126.295 104.726H127.394C127.191 105.552 126.427 106.097 125.319 106.097ZM124.115 103.161H126.365C126.356 102.511 125.926 102.036 125.275 102.036C124.599 102.036 124.15 102.55 124.115 103.161ZM128.308 106V101.228H129.38V102.036H129.441C129.635 101.491 130.118 101.166 130.751 101.166C131.401 101.166 131.858 101.491 132.043 102.036H132.096C132.307 101.509 132.834 101.166 133.528 101.166C134.398 101.166 135.014 101.729 135.014 102.792V106H133.897V102.968C133.897 102.37 133.537 102.106 133.08 102.106C132.526 102.106 132.21 102.484 132.21 103.021V106H131.12V102.924C131.12 102.432 130.786 102.106 130.312 102.106C129.828 102.106 129.433 102.502 129.433 103.1V106H128.308ZM138.793 102.59C138.723 102.229 138.424 102.001 137.949 102.001C137.466 102.001 137.114 102.238 137.123 102.563C137.114 102.81 137.316 102.994 137.8 103.108L138.608 103.275C139.514 103.478 139.944 103.891 139.953 104.576C139.944 105.473 139.162 106.097 137.914 106.097C136.701 106.097 135.98 105.552 135.866 104.638H137.009C137.079 105.042 137.396 105.244 137.914 105.244C138.45 105.244 138.811 105.024 138.811 104.673C138.811 104.4 138.591 104.225 138.116 104.119L137.352 103.952C136.464 103.776 136.007 103.311 136.007 102.625C136.007 101.746 136.763 101.166 137.932 101.166C139.074 101.166 139.777 101.72 139.856 102.59H138.793Z" fill="#313944"/>
<path d="M169.963 106V99.6367H174.103V100.595H171.106V102.335H173.883V103.293H171.106V105.033H174.121V106H169.963ZM176.16 99.6367L177.557 101.975H177.61L179.025 99.6367H180.326L178.366 102.818L180.361 106H179.034L177.61 103.68H177.557L176.133 106H174.815L176.828 102.818L174.841 99.6367H176.16ZM181.152 106V99.6367H183.542C185.001 99.6367 185.784 100.524 185.784 101.746C185.784 102.968 184.993 103.847 183.525 103.847H182.294V106H181.152ZM182.294 102.906H183.367C184.228 102.906 184.615 102.423 184.615 101.746C184.615 101.061 184.228 100.595 183.367 100.595H182.294V102.906Z" fill="#313944"/>
<path d="M253.604 106V99.6367H255.994C257.453 99.6367 258.236 100.454 258.236 101.667C258.236 102.533 257.84 103.174 257.093 103.478L258.464 106H257.19L255.942 103.671H254.746V106H253.604ZM254.746 102.713H255.819C256.68 102.713 257.067 102.344 257.067 101.667C257.067 100.99 256.68 100.595 255.819 100.595H254.746V102.713ZM261.215 106.097C259.774 106.097 258.895 105.139 258.895 103.645C258.895 102.168 259.791 101.166 261.154 101.166C262.323 101.166 263.333 101.896 263.333 103.574V103.926H260.002C260.015 104.739 260.494 105.218 261.224 105.218C261.716 105.218 262.05 105.007 262.191 104.726H263.289C263.087 105.552 262.323 106.097 261.215 106.097ZM260.011 103.161H262.261C262.252 102.511 261.822 102.036 261.171 102.036C260.494 102.036 260.046 102.55 260.011 103.161ZM265.17 106L263.817 101.228H264.959L265.803 104.585H265.847L266.699 101.228H267.833L268.695 104.567H268.739L269.573 101.228H270.716L269.363 106H268.194L267.297 102.766H267.236L266.339 106H265.17ZM271.208 104.655C271.208 103.583 272.096 103.267 272.984 103.214C273.313 103.192 273.999 103.152 274.205 103.144V102.766C274.205 102.291 273.898 102.019 273.344 102.019C272.843 102.019 272.535 102.247 272.448 102.59H271.366C271.446 101.781 272.175 101.166 273.37 101.166C274.276 101.166 275.322 101.535 275.322 102.81V106H274.249V105.341H274.214C274.003 105.745 273.555 106.097 272.808 106.097C271.894 106.097 271.208 105.596 271.208 104.655ZM272.289 104.646C272.289 105.06 272.623 105.271 273.098 105.271C273.775 105.271 274.214 104.822 274.214 104.286V103.891L273.159 103.961C272.623 104.005 272.289 104.225 272.289 104.646ZM276.376 106V101.228H277.466V102.019H277.519C277.686 101.474 278.152 101.157 278.697 101.157C278.82 101.157 278.995 101.166 279.101 101.184V102.221C279.004 102.186 278.767 102.15 278.582 102.15C277.958 102.15 277.501 102.581 277.501 103.188V106H276.376ZM281.386 106.088C280.261 106.088 279.417 105.191 279.417 103.618C279.417 102.027 280.287 101.166 281.395 101.166C282.239 101.166 282.59 101.667 282.757 102.01H282.801V99.6367H283.917V106H282.819V105.244H282.757C282.581 105.596 282.212 106.088 281.386 106.088ZM281.694 105.165C282.414 105.165 282.827 104.541 282.827 103.609C282.827 102.687 282.423 102.08 281.694 102.08C280.947 102.08 280.56 102.722 280.56 103.609C280.56 104.515 280.955 105.165 281.694 105.165Z" fill="#313944"/>
<path d="M33.7192 61.4619C33.1743 61.4619 32.7261 61.0137 32.7261 60.46C32.7261 59.915 33.1743 59.4668 33.7192 59.4668C34.2729 59.4668 34.7212 59.915 34.7212 60.46C34.7212 61.0137 34.2729 61.4619 33.7192 61.4619ZM42.4072 63L40.6406 56.6367H41.6602L42.8994 61.5586H42.9521L44.2441 56.6367H45.2461L46.5381 61.5586H46.5908L47.8301 56.6367H48.8496L47.083 63H46.1074L44.7715 58.2451H44.7188L43.3828 63H42.4072ZM50.502 60.1699V63H49.5615V56.6367H50.4844V59.0098H50.5459C50.7744 58.4912 51.2139 58.166 51.9609 58.166C52.9453 58.166 53.5957 58.7725 53.5957 59.9678V63H52.6553V60.082C52.6553 59.3789 52.2773 58.9746 51.6445 58.9746C50.9854 58.9746 50.502 59.4053 50.502 60.1699ZM56.7861 63.0967C55.3799 63.0967 54.5186 62.1299 54.5186 60.6445C54.5186 59.1768 55.3975 58.166 56.7246 58.166C57.8145 58.166 58.8428 58.8428 58.8428 60.5654V60.8994H55.4502C55.4766 61.8047 56.0083 62.3232 56.7949 62.3232C57.3311 62.3232 57.6738 62.0947 57.832 61.8047H58.7812C58.5703 62.5781 57.832 63.0967 56.7861 63.0967ZM55.459 60.1963H57.9199C57.9199 59.4668 57.4541 58.9395 56.7334 58.9395C55.9819 58.9395 55.4941 59.5195 55.459 60.1963ZM60.7148 60.1699V63H59.7744V58.2275H60.6797V59.0098H60.7324C60.9609 58.5 61.4268 58.166 62.1387 58.166C63.123 58.166 63.7646 58.7812 63.7646 59.9678V63H62.833V60.082C62.833 59.3877 62.4551 58.9746 61.8223 58.9746C61.1807 58.9746 60.7148 59.4053 60.7148 60.1699ZM67.1045 64.793V58.2275H68.0186V59.001H68.0977C68.2646 58.7021 68.5898 58.166 69.4688 58.166C70.6201 58.166 71.4727 59.0713 71.4727 60.627C71.4727 62.165 70.6377 63.0967 69.4775 63.0967C68.6074 63.0967 68.2646 62.5693 68.0977 62.2529H68.0449V64.793H67.1045ZM68.0273 60.6094C68.0273 61.6113 68.4668 62.2969 69.2666 62.2969C70.0928 62.2969 70.5234 61.5674 70.5234 60.6094C70.5234 59.6689 70.1016 58.9658 69.2666 58.9658C68.458 58.9658 68.0273 59.6162 68.0273 60.6094ZM74.4258 63.0967C73.0723 63.0967 72.1934 62.1123 72.1934 60.6357C72.1934 59.1504 73.0723 58.166 74.4258 58.166C75.7705 58.166 76.6494 59.1504 76.6494 60.6357C76.6494 62.1123 75.7705 63.0967 74.4258 63.0967ZM74.4258 62.3145C75.2871 62.3145 75.7002 61.5498 75.7002 60.6357C75.7002 59.7217 75.2871 58.9395 74.4258 58.9395C73.5469 58.9395 73.1338 59.7217 73.1338 60.6357C73.1338 61.5498 73.5469 62.3145 74.4258 62.3145ZM77.5723 63V58.2275H78.5127V63H77.5723ZM78.0469 57.4893C77.7217 57.4893 77.4492 57.2432 77.4492 56.9355C77.4492 56.6279 77.7217 56.3818 78.0469 56.3818C78.3633 56.3818 78.6357 56.6279 78.6357 56.9355C78.6357 57.2432 78.3633 57.4893 78.0469 57.4893ZM80.5957 60.1699V63H79.6553V58.2275H80.5605V59.0098H80.6133C80.8418 58.5 81.3076 58.166 82.0195 58.166C83.0039 58.166 83.6455 58.7812 83.6455 59.9678V63H82.7139V60.082C82.7139 59.3877 82.3359 58.9746 81.7031 58.9746C81.0615 58.9746 80.5957 59.4053 80.5957 60.1699ZM87.0205 58.2275V58.9746H86.0449V61.5938C86.0449 62.1299 86.3174 62.2266 86.6162 62.2354C86.748 62.2354 86.959 62.2178 87.0908 62.209V63.0264C86.959 63.0439 86.7568 63.0615 86.502 63.0615C85.7637 63.0615 85.1045 62.6572 85.1133 61.7871V58.9746H84.4102V58.2275H85.1133V57.085H86.0449V58.2275H87.0205ZM90.5361 59.5283C90.4482 59.1504 90.1494 58.9043 89.6309 58.9043C89.0947 58.9043 88.708 59.1855 88.7168 59.5459C88.708 59.8271 88.9365 60.0293 89.4639 60.1523L90.2197 60.3281C91.0986 60.5215 91.5205 60.9434 91.5293 61.6201C91.5205 62.4814 90.7998 63.0967 89.5781 63.0967C88.4355 63.0967 87.75 62.5869 87.6357 61.6992H88.5938C88.6729 62.1299 89.0068 62.3408 89.5693 62.3408C90.1758 62.3408 90.5625 62.0947 90.5713 61.6904C90.5625 61.3828 90.334 61.1807 89.833 61.0664L89.0859 60.9082C88.2246 60.7148 87.7764 60.2578 87.7764 59.5986C87.7764 58.7461 88.5146 58.166 89.6221 58.166C90.6855 58.166 91.3447 58.7109 91.4414 59.5283H90.5361ZM94.4209 61.6553C94.4209 60.5654 95.3438 60.2842 96.2051 60.2227C96.5215 60.2007 97.2378 60.1611 97.4619 60.1523L97.4531 59.7744C97.4531 59.2383 97.1279 58.9219 96.4863 58.9219C95.9326 58.9219 95.5986 59.1768 95.502 59.5283H94.5703C94.6582 58.7373 95.3965 58.166 96.5215 58.166C97.2773 58.166 98.3936 58.4473 98.3936 59.8271V63H97.4795V62.3496H97.4443C97.2598 62.71 96.8203 63.1055 96.0293 63.1055C95.124 63.1055 94.4209 62.5869 94.4209 61.6553ZM95.335 61.6641C95.335 62.1211 95.7129 62.3584 96.2402 62.3584C97.0049 62.3584 97.4619 61.8486 97.4619 61.2773V60.8379L96.3369 60.917C95.7217 60.9609 95.335 61.1895 95.335 61.6641ZM99.5273 63V58.2275H100.433V58.9834H100.485C100.661 58.4736 101.136 58.1572 101.698 58.1572C101.812 58.1572 101.997 58.166 102.094 58.1748V59.0713C102.015 59.0537 101.795 59.0186 101.602 59.0186C100.951 59.0186 100.468 59.4668 100.468 60.0908V63H99.5273ZM104.695 63.0967C103.289 63.0967 102.428 62.1299 102.428 60.6445C102.428 59.1768 103.307 58.166 104.634 58.166C105.724 58.166 106.752 58.8428 106.752 60.5654V60.8994H103.359C103.386 61.8047 103.917 62.3232 104.704 62.3232C105.24 62.3232 105.583 62.0947 105.741 61.8047H106.69C106.479 62.5781 105.741 63.0967 104.695 63.0967ZM103.368 60.1963H105.829C105.829 59.4668 105.363 58.9395 104.643 58.9395C103.891 58.9395 103.403 59.5195 103.368 60.1963ZM109.661 61.6553C109.661 60.5654 110.584 60.2842 111.445 60.2227C111.762 60.2007 112.478 60.1611 112.702 60.1523L112.693 59.7744C112.693 59.2383 112.368 58.9219 111.727 58.9219C111.173 58.9219 110.839 59.1768 110.742 59.5283H109.811C109.898 58.7373 110.637 58.166 111.762 58.166C112.518 58.166 113.634 58.4473 113.634 59.8271V63H112.72V62.3496H112.685C112.5 62.71 112.061 63.1055 111.27 63.1055C110.364 63.1055 109.661 62.5869 109.661 61.6553ZM110.575 61.6641C110.575 62.1211 110.953 62.3584 111.48 62.3584C112.245 62.3584 112.702 61.8486 112.702 61.2773V60.8379L111.577 60.917C110.962 60.9609 110.575 61.1895 110.575 61.6641ZM116.789 63.0967C115.4 63.0967 114.557 62.0684 114.557 60.6357C114.557 59.1768 115.427 58.166 116.771 58.166C117.861 58.166 118.652 58.8076 118.749 59.7744H117.835C117.738 59.3262 117.378 58.9482 116.789 58.9482C116.016 58.9482 115.497 59.5898 115.497 60.6094C115.497 61.6553 116.007 62.2969 116.789 62.2969C117.316 62.2969 117.721 62.0068 117.835 61.4883H118.749C118.644 62.4111 117.914 63.0967 116.789 63.0967ZM121.658 63.0967C120.27 63.0967 119.426 62.0684 119.426 60.6357C119.426 59.1768 120.296 58.166 121.641 58.166C122.73 58.166 123.521 58.8076 123.618 59.7744H122.704C122.607 59.3262 122.247 58.9482 121.658 58.9482C120.885 58.9482 120.366 59.5898 120.366 60.6094C120.366 61.6553 120.876 62.2969 121.658 62.2969C122.186 62.2969 122.59 62.0068 122.704 61.4883H123.618C123.513 62.4111 122.783 63.0967 121.658 63.0967ZM127.538 61.0137V58.2275H128.47V63H127.556V62.1738H127.503C127.283 62.6836 126.791 63.0615 126.079 63.0615C125.156 63.0615 124.506 62.4463 124.506 61.2598V58.2275H125.446V61.1455C125.446 61.7959 125.842 62.209 126.413 62.209C126.932 62.209 127.538 61.8311 127.538 61.0137ZM129.612 63V58.2275H130.518V59.0098H130.57C130.772 58.4736 131.238 58.166 131.871 58.166C132.504 58.166 132.952 58.4824 133.154 59.0098H133.207C133.436 58.4912 133.945 58.166 134.64 58.166C135.501 58.166 136.116 58.7109 136.116 59.8008V63H135.176V59.8887C135.176 59.2471 134.771 58.9746 134.279 58.9746C133.673 58.9746 133.33 59.3877 133.33 59.959V63H132.398V59.8359C132.398 59.3174 132.038 58.9746 131.528 58.9746C131.001 58.9746 130.553 59.4141 130.553 60.0557V63H129.612ZM140.282 61.0137V58.2275H141.214V63H140.3V62.1738H140.247C140.027 62.6836 139.535 63.0615 138.823 63.0615C137.9 63.0615 137.25 62.4463 137.25 61.2598V58.2275H138.19V61.1455C138.19 61.7959 138.586 62.209 139.157 62.209C139.676 62.209 140.282 61.8311 140.282 61.0137ZM143.297 56.6367V63H142.356V56.6367H143.297ZM144.22 61.6553C144.22 60.5654 145.143 60.2842 146.004 60.2227C146.32 60.2007 147.037 60.1611 147.261 60.1523L147.252 59.7744C147.252 59.2383 146.927 58.9219 146.285 58.9219C145.731 58.9219 145.397 59.1768 145.301 59.5283H144.369C144.457 58.7373 145.195 58.166 146.32 58.166C147.076 58.166 148.192 58.4473 148.192 59.8271V63H147.278V62.3496H147.243C147.059 62.71 146.619 63.1055 145.828 63.1055C144.923 63.1055 144.22 62.5869 144.22 61.6553ZM145.134 61.6641C145.134 62.1211 145.512 62.3584 146.039 62.3584C146.804 62.3584 147.261 61.8486 147.261 61.2773V60.8379L146.136 60.917C145.521 60.9609 145.134 61.1895 145.134 61.6641ZM151.559 58.2275V58.9746H150.583V61.5938C150.583 62.1299 150.855 62.2266 151.154 62.2354C151.286 62.2354 151.497 62.2178 151.629 62.209V63.0264C151.497 63.0439 151.295 63.0615 151.04 63.0615C150.302 63.0615 149.643 62.6572 149.651 61.7871V58.9746H148.948V58.2275H149.651V57.085H150.583V58.2275H151.559ZM154.477 63.0967C153.07 63.0967 152.209 62.1299 152.209 60.6445C152.209 59.1768 153.088 58.166 154.415 58.166C155.505 58.166 156.533 58.8428 156.533 60.5654V60.8994H153.141C153.167 61.8047 153.699 62.3232 154.485 62.3232C155.021 62.3232 155.364 62.0947 155.522 61.8047H156.472C156.261 62.5781 155.522 63.0967 154.477 63.0967ZM153.149 60.1963H155.61C155.61 59.4668 155.145 58.9395 154.424 58.9395C153.672 58.9395 153.185 59.5195 153.149 60.1963ZM159.249 63.0967C158.098 63.0967 157.254 62.165 157.254 60.627C157.254 59.0713 158.106 58.166 159.258 58.166C160.146 58.166 160.471 58.7021 160.638 59.001H160.682V56.6367H161.622V63H160.708V62.2529H160.638C160.462 62.5693 160.119 63.0967 159.249 63.0967ZM159.46 62.2969C160.26 62.2969 160.708 61.6113 160.708 60.6094C160.708 59.6162 160.269 58.9658 159.46 58.9658C158.625 58.9658 158.212 59.6689 158.212 60.6094C158.212 61.5674 158.643 62.2969 159.46 62.2969ZM163.978 62.3936L163.274 64.8193H162.527L162.993 62.3936H163.978ZM167.924 64.793C167.73 64.793 167.546 64.7842 167.423 64.7666V63.9844C167.528 63.9932 167.713 64.002 167.845 64.002C168.135 64.002 168.381 63.9756 168.601 63.3779L168.715 63.0615L166.966 58.2275H167.968L169.172 61.9277H169.225L170.429 58.2275H171.439L169.471 63.6328C169.198 64.3887 168.706 64.793 167.924 64.793ZM174.059 63.0967C172.705 63.0967 171.826 62.1123 171.826 60.6357C171.826 59.1504 172.705 58.166 174.059 58.166C175.403 58.166 176.282 59.1504 176.282 60.6357C176.282 62.1123 175.403 63.0967 174.059 63.0967ZM174.059 62.3145C174.92 62.3145 175.333 61.5498 175.333 60.6357C175.333 59.7217 174.92 58.9395 174.059 58.9395C173.18 58.9395 172.767 59.7217 172.767 60.6357C172.767 61.5498 173.18 62.3145 174.059 62.3145ZM180.237 61.0137V58.2275H181.169V63H180.255V62.1738H180.202C179.982 62.6836 179.49 63.0615 178.778 63.0615C177.855 63.0615 177.205 62.4463 177.205 61.2598V58.2275H178.146V61.1455C178.146 61.7959 178.541 62.209 179.112 62.209C179.631 62.209 180.237 61.8311 180.237 61.0137ZM186.53 63.0967C185.142 63.0967 184.298 62.0684 184.298 60.6357C184.298 59.1768 185.168 58.166 186.513 58.166C187.603 58.166 188.394 58.8076 188.49 59.7744H187.576C187.479 59.3262 187.119 58.9482 186.53 58.9482C185.757 58.9482 185.238 59.5898 185.238 60.6094C185.238 61.6553 185.748 62.2969 186.53 62.2969C187.058 62.2969 187.462 62.0068 187.576 61.4883H188.49C188.385 62.4111 187.655 63.0967 186.53 63.0967ZM189.158 61.6553C189.158 60.5654 190.081 60.2842 190.942 60.2227C191.259 60.2007 191.975 60.1611 192.199 60.1523L192.19 59.7744C192.19 59.2383 191.865 58.9219 191.224 58.9219C190.67 58.9219 190.336 59.1768 190.239 59.5283H189.308C189.396 58.7373 190.134 58.166 191.259 58.166C192.015 58.166 193.131 58.4473 193.131 59.8271V63H192.217V62.3496H192.182C191.997 62.71 191.558 63.1055 190.767 63.1055C189.861 63.1055 189.158 62.5869 189.158 61.6553ZM190.072 61.6641C190.072 62.1211 190.45 62.3584 190.978 62.3584C191.742 62.3584 192.199 61.8486 192.199 61.2773V60.8379L191.074 60.917C190.459 60.9609 190.072 61.1895 190.072 61.6641ZM195.205 60.1699V63H194.265V58.2275H195.17V59.0098H195.223C195.451 58.5 195.917 58.166 196.629 58.166C197.613 58.166 198.255 58.7812 198.255 59.9678V63H197.323V60.082C197.323 59.3877 196.945 58.9746 196.312 58.9746C195.671 58.9746 195.205 59.4053 195.205 60.1699ZM203.651 63.0967C202.245 63.0967 201.384 62.1299 201.384 60.6445C201.384 59.1768 202.263 58.166 203.59 58.166C204.68 58.166 205.708 58.8428 205.708 60.5654V60.8994H202.315C202.342 61.8047 202.874 62.3232 203.66 62.3232C204.196 62.3232 204.539 62.0947 204.697 61.8047H205.646C205.436 62.5781 204.697 63.0967 203.651 63.0967ZM202.324 60.1963H204.785C204.785 59.4668 204.319 58.9395 203.599 58.9395C202.847 58.9395 202.359 59.5195 202.324 60.1963ZM206.42 61.6553C206.42 60.5654 207.343 60.2842 208.204 60.2227C208.521 60.2007 209.237 60.1611 209.461 60.1523L209.452 59.7744C209.452 59.2383 209.127 58.9219 208.485 58.9219C207.932 58.9219 207.598 59.1768 207.501 59.5283H206.569C206.657 58.7373 207.396 58.166 208.521 58.166C209.276 58.166 210.393 58.4473 210.393 59.8271V63H209.479V62.3496H209.443C209.259 62.71 208.819 63.1055 208.028 63.1055C207.123 63.1055 206.42 62.5869 206.42 61.6553ZM207.334 61.6641C207.334 62.1211 207.712 62.3584 208.239 62.3584C209.004 62.3584 209.461 61.8486 209.461 61.2773V60.8379L208.336 60.917C207.721 60.9609 207.334 61.1895 207.334 61.6641ZM211.526 63V58.2275H212.432V58.9834H212.484C212.66 58.4736 213.135 58.1572 213.697 58.1572C213.812 58.1572 213.996 58.166 214.093 58.1748V59.0713C214.014 59.0537 213.794 59.0186 213.601 59.0186C212.95 59.0186 212.467 59.4668 212.467 60.0908V63H211.526ZM215.736 60.1699V63H214.796V58.2275H215.701V59.0098H215.754C215.982 58.5 216.448 58.166 217.16 58.166C218.145 58.166 218.786 58.7812 218.786 59.9678V63H217.854V60.082C217.854 59.3877 217.477 58.9746 216.844 58.9746C216.202 58.9746 215.736 59.4053 215.736 60.1699ZM224.534 56.6367V63H223.559V57.6035H223.523L222.003 58.5967V57.6738L223.585 56.6367H224.534ZM228.366 63.0879C226.89 63.0879 226.028 61.9014 226.028 59.8184C226.028 57.7529 226.907 56.5488 228.366 56.5488C229.825 56.5488 230.704 57.7529 230.704 59.8184C230.704 61.9014 229.834 63.0879 228.366 63.0879ZM228.366 62.2529C229.228 62.2529 229.737 61.4092 229.737 59.8184C229.737 58.2363 229.219 57.3662 228.366 57.3662C227.514 57.3662 226.995 58.2363 226.995 59.8184C226.995 61.4092 227.505 62.2529 228.366 62.2529ZM233.991 63V56.6367H237.981V57.4717H234.958V59.3965H237.771V60.2227H234.958V62.165H238.017V63H233.991ZM239.845 56.6367L241.356 59.1152H241.409L242.93 56.6367H244.046L242.06 59.8184L244.063 63H242.93L241.409 60.5479H241.356L239.827 63H238.702L240.732 59.8184L238.711 56.6367H239.845ZM244.898 63V56.6367H247.166C248.643 56.6367 249.372 57.5244 249.372 58.7021C249.372 59.8711 248.643 60.7676 247.166 60.7676H245.865V63H244.898ZM245.865 59.9414H247.069C248.01 59.9414 248.396 59.4141 248.396 58.7021C248.396 57.9814 248.01 57.4629 247.069 57.4629H245.865V59.9414ZM252.51 64.793V58.2275H253.424V59.001H253.503C253.67 58.7021 253.995 58.166 254.874 58.166C256.025 58.166 256.878 59.0713 256.878 60.627C256.878 62.165 256.043 63.0967 254.883 63.0967C254.013 63.0967 253.67 62.5693 253.503 62.2529H253.45V64.793H252.51ZM253.433 60.6094C253.433 61.6113 253.872 62.2969 254.672 62.2969C255.498 62.2969 255.929 61.5674 255.929 60.6094C255.929 59.6689 255.507 58.9658 254.672 58.9658C253.863 58.9658 253.433 59.6162 253.433 60.6094ZM259.866 63.0967C258.46 63.0967 257.599 62.1299 257.599 60.6445C257.599 59.1768 258.478 58.166 259.805 58.166C260.895 58.166 261.923 58.8428 261.923 60.5654V60.8994H258.53C258.557 61.8047 259.088 62.3232 259.875 62.3232C260.411 62.3232 260.754 62.0947 260.912 61.8047H261.861C261.65 62.5781 260.912 63.0967 259.866 63.0967ZM258.539 60.1963H261C261 59.4668 260.534 58.9395 259.813 58.9395C259.062 58.9395 258.574 59.5195 258.539 60.1963ZM262.854 63V58.2275H263.76V58.9834H263.812C263.988 58.4736 264.463 58.1572 265.025 58.1572C265.14 58.1572 265.324 58.166 265.421 58.1748V59.0713C265.342 59.0537 265.122 59.0186 264.929 59.0186C264.278 59.0186 263.795 59.4668 263.795 60.0908V63H262.854ZM268.321 64.793V58.2275H269.235V59.001H269.314C269.481 58.7021 269.807 58.166 270.686 58.166C271.837 58.166 272.689 59.0713 272.689 60.627C272.689 62.165 271.854 63.0967 270.694 63.0967C269.824 63.0967 269.481 62.5693 269.314 62.2529H269.262V64.793H268.321ZM269.244 60.6094C269.244 61.6113 269.684 62.2969 270.483 62.2969C271.31 62.2969 271.74 61.5674 271.74 60.6094C271.74 59.6689 271.318 58.9658 270.483 58.9658C269.675 58.9658 269.244 59.6162 269.244 60.6094ZM275.643 63.0967C274.289 63.0967 273.41 62.1123 273.41 60.6357C273.41 59.1504 274.289 58.166 275.643 58.166C276.987 58.166 277.866 59.1504 277.866 60.6357C277.866 62.1123 276.987 63.0967 275.643 63.0967ZM275.643 62.3145C276.504 62.3145 276.917 61.5498 276.917 60.6357C276.917 59.7217 276.504 58.9395 275.643 58.9395C274.764 58.9395 274.351 59.7217 274.351 60.6357C274.351 61.5498 274.764 62.3145 275.643 62.3145ZM278.789 63V58.2275H279.729V63H278.789ZM279.264 57.4893C278.938 57.4893 278.666 57.2432 278.666 56.9355C278.666 56.6279 278.938 56.3818 279.264 56.3818C279.58 56.3818 279.853 56.6279 279.853 56.9355C279.853 57.2432 279.58 57.4893 279.264 57.4893ZM281.812 60.1699V63H280.872V58.2275H281.777V59.0098H281.83C282.059 58.5 282.524 58.166 283.236 58.166C284.221 58.166 284.862 58.7812 284.862 59.9678V63H283.931V60.082C283.931 59.3877 283.553 58.9746 282.92 58.9746C282.278 58.9746 281.812 59.4053 281.812 60.1699ZM288.237 58.2275V58.9746H287.262V61.5938C287.262 62.1299 287.534 62.2266 287.833 62.2354C287.965 62.2354 288.176 62.2178 288.308 62.209V63.0264C288.176 63.0439 287.974 63.0615 287.719 63.0615C286.98 63.0615 286.321 62.6572 286.33 61.7871V58.9746H285.627V58.2275H286.33V57.085H287.262V58.2275H288.237ZM289.767 63.0615C289.424 63.0615 289.134 62.7803 289.143 62.4375C289.134 62.0947 289.424 61.8135 289.767 61.8135C290.101 61.8135 290.391 62.0947 290.391 62.4375C290.391 62.7803 290.101 63.0615 289.767 63.0615Z" fill="#222222"/>
<path d="M33.7192 75.4619C33.1743 75.4619 32.7261 75.0137 32.7261 74.46C32.7261 73.915 33.1743 73.4668 33.7192 73.4668C34.2729 73.4668 34.7212 73.915 34.7212 74.46C34.7212 75.0137 34.2729 75.4619 33.7192 75.4619ZM40.6582 70.6367H41.7568L43.4092 73.5195H43.4795L45.1406 70.6367H46.2393L43.9277 74.5039V77H42.9609V74.5039L40.6582 70.6367ZM48.1992 77.0967C46.8457 77.0967 45.9668 76.1123 45.9668 74.6357C45.9668 73.1504 46.8457 72.166 48.1992 72.166C49.5439 72.166 50.4229 73.1504 50.4229 74.6357C50.4229 76.1123 49.5439 77.0967 48.1992 77.0967ZM48.1992 76.3145C49.0605 76.3145 49.4736 75.5498 49.4736 74.6357C49.4736 73.7217 49.0605 72.9395 48.1992 72.9395C47.3203 72.9395 46.9072 73.7217 46.9072 74.6357C46.9072 75.5498 47.3203 76.3145 48.1992 76.3145ZM54.3779 75.0137V72.2275H55.3096V77H54.3955V76.1738H54.3428C54.123 76.6836 53.6309 77.0615 52.9189 77.0615C51.9961 77.0615 51.3457 76.4463 51.3457 75.2598V72.2275H52.2861V75.1455C52.2861 75.7959 52.6816 76.209 53.2529 76.209C53.7715 76.209 54.3779 75.8311 54.3779 75.0137ZM60.6709 77.0967C59.2822 77.0967 58.4385 76.0684 58.4385 74.6357C58.4385 73.1768 59.3086 72.166 60.6533 72.166C61.7432 72.166 62.5342 72.8076 62.6309 73.7744H61.7168C61.6201 73.3262 61.2598 72.9482 60.6709 72.9482C59.8975 72.9482 59.3789 73.5898 59.3789 74.6094C59.3789 75.6553 59.8887 76.2969 60.6709 76.2969C61.1982 76.2969 61.6025 76.0068 61.7168 75.4883H62.6309C62.5254 76.4111 61.7959 77.0967 60.6709 77.0967ZM63.2988 75.6553C63.2988 74.5654 64.2217 74.2842 65.083 74.2227C65.3994 74.2007 66.1157 74.1611 66.3398 74.1523L66.3311 73.7744C66.3311 73.2383 66.0059 72.9219 65.3643 72.9219C64.8105 72.9219 64.4766 73.1768 64.3799 73.5283H63.4482C63.5361 72.7373 64.2744 72.166 65.3994 72.166C66.1553 72.166 67.2715 72.4473 67.2715 73.8271V77H66.3574V76.3496H66.3223C66.1377 76.71 65.6982 77.1055 64.9072 77.1055C64.002 77.1055 63.2988 76.5869 63.2988 75.6553ZM64.2129 75.6641C64.2129 76.1211 64.5908 76.3584 65.1182 76.3584C65.8828 76.3584 66.3398 75.8486 66.3398 75.2773V74.8379L65.2148 74.917C64.5996 74.9609 64.2129 75.1895 64.2129 75.6641ZM69.3457 74.1699V77H68.4053V72.2275H69.3105V73.0098H69.3633C69.5918 72.5 70.0576 72.166 70.7695 72.166C71.7539 72.166 72.3955 72.7812 72.3955 73.9678V77H71.4639V74.082C71.4639 73.3877 71.0859 72.9746 70.4531 72.9746C69.8115 72.9746 69.3457 73.4053 69.3457 74.1699ZM76.6758 70.6367V77H75.7354V70.6367H76.6758ZM79.875 77.0967C78.4688 77.0967 77.6074 76.1299 77.6074 74.6445C77.6074 73.1768 78.4863 72.166 79.8135 72.166C80.9033 72.166 81.9316 72.8428 81.9316 74.5654V74.8994H78.5391C78.5654 75.8047 79.0972 76.3232 79.8838 76.3232C80.4199 76.3232 80.7627 76.0947 80.9209 75.8047H81.8701C81.6592 76.5781 80.9209 77.0967 79.875 77.0967ZM78.5479 74.1963H81.0088C81.0088 73.4668 80.543 72.9395 79.8223 72.9395C79.0708 72.9395 78.583 73.5195 78.5479 74.1963ZM86.8096 72.2275L85.0781 77H84.0674L82.3359 72.2275H83.3467L84.5508 75.8926H84.5947L85.7988 72.2275H86.8096ZM89.4639 77.0967C88.0576 77.0967 87.1963 76.1299 87.1963 74.6445C87.1963 73.1768 88.0752 72.166 89.4023 72.166C90.4922 72.166 91.5205 72.8428 91.5205 74.5654V74.8994H88.1279C88.1543 75.8047 88.686 76.3232 89.4727 76.3232C90.0088 76.3232 90.3516 76.0947 90.5098 75.8047H91.459C91.248 76.5781 90.5098 77.0967 89.4639 77.0967ZM88.1367 74.1963H90.5977C90.5977 73.4668 90.1318 72.9395 89.4111 72.9395C88.6597 72.9395 88.1719 73.5195 88.1367 74.1963ZM93.3926 70.6367V77H92.4521V70.6367H93.3926ZM99.7646 75.0137V72.2275H100.696V77H99.7822V76.1738H99.7295C99.5098 76.6836 99.0176 77.0615 98.3057 77.0615C97.3828 77.0615 96.7324 76.4463 96.7324 75.2598V72.2275H97.6729V75.1455C97.6729 75.7959 98.0684 76.209 98.6396 76.209C99.1582 76.209 99.7646 75.8311 99.7646 75.0137ZM101.839 78.793V72.2275H102.753V73.001H102.832C102.999 72.7021 103.324 72.166 104.203 72.166C105.354 72.166 106.207 73.0713 106.207 74.627C106.207 76.165 105.372 77.0967 104.212 77.0967C103.342 77.0967 102.999 76.5693 102.832 76.2529H102.779V78.793H101.839ZM102.762 74.6094C102.762 75.6113 103.201 76.2969 104.001 76.2969C104.827 76.2969 105.258 75.5674 105.258 74.6094C105.258 73.6689 104.836 72.9658 104.001 72.9658C103.192 72.9658 102.762 73.6162 102.762 74.6094ZM111.568 72.2275V72.9746H110.593V75.5938C110.593 76.1299 110.865 76.2266 111.164 76.2354C111.296 76.2354 111.507 76.2178 111.639 76.209V77.0264C111.507 77.0439 111.305 77.0615 111.05 77.0615C110.312 77.0615 109.652 76.6572 109.661 75.7871V72.9746H108.958V72.2275H109.661V71.085H110.593V72.2275H111.568ZM114.451 77.0967C113.098 77.0967 112.219 76.1123 112.219 74.6357C112.219 73.1504 113.098 72.166 114.451 72.166C115.796 72.166 116.675 73.1504 116.675 74.6357C116.675 76.1123 115.796 77.0967 114.451 77.0967ZM114.451 76.3145C115.312 76.3145 115.726 75.5498 115.726 74.6357C115.726 73.7217 115.312 72.9395 114.451 72.9395C113.572 72.9395 113.159 73.7217 113.159 74.6357C113.159 75.5498 113.572 76.3145 114.451 76.3145ZM119.874 77V70.6367H120.841V76.165H123.715V77H119.874ZM124.708 77V70.6367H128.698V71.4717H125.675V73.3965H128.487V74.2227H125.675V76.165H128.733V77H124.708ZM130.447 70.6367L132.214 75.8135H132.284L134.051 70.6367H135.097L132.803 77H131.687L129.401 70.6367H130.447ZM135.905 77V70.6367H139.896V71.4717H136.872V73.3965H139.685V74.2227H136.872V76.165H139.931V77H135.905ZM141.082 77V70.6367H142.049V76.165H144.923V77H141.082ZM150.188 77.0879C148.983 77.0879 148.078 76.3496 148.034 75.3389H148.975C149.027 75.8838 149.546 76.2793 150.188 76.2793C150.961 76.2793 151.515 75.7168 151.515 74.9609C151.515 74.1875 150.943 73.625 150.144 73.6162C149.634 73.6162 149.247 73.7832 149.027 74.1787H148.113L148.526 70.6367H152.13V71.4629H149.326L149.115 73.2471H149.177C149.44 72.9922 149.889 72.8164 150.372 72.8164C151.567 72.8164 152.455 73.7041 152.455 74.9346C152.455 76.1914 151.515 77.0879 150.188 77.0879ZM153.879 77.0615C153.536 77.0615 153.246 76.7803 153.255 76.4375C153.246 76.0947 153.536 75.8135 153.879 75.8135C154.213 75.8135 154.503 76.0947 154.503 76.4375C154.503 76.7803 154.213 77.0615 153.879 77.0615Z" fill="#222222"/>
<defs>
<filter id="filter0_d_49_15" x="0" y="0" width="344" height="282" filterUnits="userSpaceOnUse" color-interpolation-filters="sRGB">
<feFlood flood-opacity="0" result="BackgroundImageFix"/>
<feColorMatrix in="SourceAlpha" type="matrix" values="0 0 0 0 0 0 0 0 0 0 0 0 0 0 0 0 0 0 127 0" result="hardAlpha"/>
<feOffset/>
<feGaussianBlur stdDeviation="4"/>
<feComposite in2="hardAlpha" operator="out"/>
<feColorMatrix type="matrix" values="0 0 0 0 0 0 0 0 0 0 0 0 0 0 0 0 0 0 0.1 0"/>
<feBlend mode="normal" in2="BackgroundImageFix" result="effect1_dropShadow_49_15"/>
<feBlend mode="normal" in="SourceGraphic" in2="effect1_dropShadow_49_15" result="shape"/>
</filter>
</defs>
</svg>
