<svg width="242" height="12" viewBox="0 0 242 12" fill="none" xmlns="http://www.w3.org/2000/svg">
<rect x="174" width="12" height="12" rx="2" fill="#076E07"/>
<path d="M193.727 10.1172C192.039 10.1172 190.826 9.21484 190.773 7.86719H191.84C191.898 8.67578 192.701 9.17969 193.715 9.17969C194.834 9.17969 195.643 8.57617 195.648 7.69141C195.643 6.76562 194.904 6.11523 193.586 6.10938H192.895V5.18359H193.586C194.617 5.18359 195.338 4.60352 195.332 3.73047C195.338 2.88086 194.717 2.31836 193.75 2.3125C192.842 2.31836 192.016 2.81641 191.969 3.64844H190.949C191.002 2.30078 192.256 1.39844 193.762 1.39844C195.379 1.39844 196.363 2.45898 196.352 3.67188C196.363 4.63867 195.801 5.3418 194.91 5.59375V5.65234C196.018 5.82227 196.686 6.61328 196.68 7.69141C196.686 9.08594 195.42 10.1172 193.727 10.1172ZM207.355 5.86328V6.625H203.113V8.75781H202.199V6.625H197.816V5.86328H207.355ZM199.035 10.7266V7.72656H199.961V9.95312H206.289V10.7266H199.035ZM199.059 4.66797V1.04688H206.113V4.66797H199.059ZM199.961 3.92969H205.199V1.77344H199.961V3.92969ZM217.105 0.53125V10.9492H216.227V0.53125H217.105ZM208.07 8.17188C209.523 7.30469 210.373 5.40039 210.367 3.50781V2.52344H208.363V1.76172H213.168V2.52344H211.258V3.50781C211.258 5.30664 212.072 7.10547 213.508 7.9375L212.945 8.61719C211.92 8.00195 211.193 6.87695 210.83 5.55273C210.455 6.98828 209.699 8.21289 208.656 8.86328L208.07 8.17188ZM212.371 5.04297V4.29297H214.129V0.789062H214.996V10.4102H214.129V5.04297H212.371ZM225.168 2.17188C225.156 3.66016 226.217 4.9668 227.746 5.48828L227.23 6.20312C226.082 5.77539 225.18 4.92578 224.729 3.83008C224.283 5.07812 223.334 6.04492 222.074 6.51953L221.57 5.76953C223.176 5.20703 224.242 3.82422 224.254 2.20703V1.12891H225.168V2.17188ZM223.27 8.98047C223.264 7.72656 224.594 7.00586 226.762 7.01172C228.924 7.00586 230.254 7.72656 230.254 8.98047C230.254 10.2227 228.924 10.9258 226.762 10.9258C224.594 10.9258 223.264 10.2227 223.27 8.98047ZM224.184 8.98047C224.178 9.73633 225.162 10.1934 226.762 10.1875C228.355 10.1934 229.34 9.73633 229.34 8.98047C229.34 8.20117 228.355 7.73828 226.762 7.73828C225.162 7.73828 224.178 8.20117 224.184 8.98047ZM226.973 3.53125V2.76953H229.293V0.53125H230.219V6.70703H229.293V3.53125H226.973ZM236.664 7.11719C238.896 7.11719 240.314 7.82031 240.32 9.02734C240.314 10.2227 238.896 10.9258 236.664 10.9258C234.432 10.9258 233.014 10.2227 233.02 9.02734C233.014 7.82031 234.432 7.11719 236.664 7.11719ZM231.965 6.14453V5.39453H235.891V3.37891H236.793V5.39453H241.445V6.14453H231.965ZM233.09 1.82031V1.07031H240.238V1.94922C240.232 2.79297 240.232 3.63672 239.945 4.71484L239.043 4.60938C239.324 3.53711 239.324 2.76367 239.324 1.94922V1.82031H233.09ZM233.934 9.02734C233.928 9.75391 235.006 10.1992 236.664 10.1992C238.328 10.1992 239.395 9.75391 239.406 9.02734C239.395 8.2832 238.328 7.82617 236.664 7.82031C235.006 7.82617 233.928 8.2832 233.934 9.02734Z" fill="#898989"/>
<rect x="86" width="12" height="12" rx="2" fill="#44B044"/>
<path d="M102.797 10L102.785 9.22656L105.68 6.17969C106.682 5.11328 107.162 4.53906 107.168 3.75391C107.162 2.88086 106.436 2.31836 105.48 2.3125C104.467 2.31836 103.834 2.95703 103.828 3.90625H102.832C102.82 2.40625 103.98 1.39844 105.516 1.39844C107.057 1.39844 108.146 2.43555 108.152 3.75391C108.146 4.70312 107.707 5.44141 106.207 6.98828L104.262 8.99219V9.0625H108.305V10H102.797ZM118.992 5.86328V6.625H114.75V8.75781H113.836V6.625H109.453V5.86328H118.992ZM110.672 10.7266V7.72656H111.598V9.95312H117.926V10.7266H110.672ZM110.695 4.66797V1.04688H117.75V4.66797H110.695ZM111.598 3.92969H116.836V1.77344H111.598V3.92969ZM128.742 0.53125V10.9492H127.863V0.53125H128.742ZM119.707 8.17188C121.16 7.30469 122.01 5.40039 122.004 3.50781V2.52344H120V1.76172H124.805V2.52344H122.895V3.50781C122.895 5.30664 123.709 7.10547 125.145 7.9375L124.582 8.61719C123.557 8.00195 122.83 6.87695 122.467 5.55273C122.092 6.98828 121.336 8.21289 120.293 8.86328L119.707 8.17188ZM124.008 5.04297V4.29297H125.766V0.789062H126.633V10.4102H125.766V5.04297H124.008ZM136.805 2.17188C136.793 3.66016 137.854 4.9668 139.383 5.48828L138.867 6.20312C137.719 5.77539 136.816 4.92578 136.365 3.83008C135.92 5.07812 134.971 6.04492 133.711 6.51953L133.207 5.76953C134.812 5.20703 135.879 3.82422 135.891 2.20703V1.12891H136.805V2.17188ZM134.906 8.98047C134.9 7.72656 136.23 7.00586 138.398 7.01172C140.561 7.00586 141.891 7.72656 141.891 8.98047C141.891 10.2227 140.561 10.9258 138.398 10.9258C136.23 10.9258 134.9 10.2227 134.906 8.98047ZM135.82 8.98047C135.814 9.73633 136.799 10.1934 138.398 10.1875C139.992 10.1934 140.977 9.73633 140.977 8.98047C140.977 8.20117 139.992 7.73828 138.398 7.73828C136.799 7.73828 135.814 8.20117 135.82 8.98047ZM138.609 3.53125V2.76953H140.93V0.53125H141.855V6.70703H140.93V3.53125H138.609ZM148.301 7.11719C150.533 7.11719 151.951 7.82031 151.957 9.02734C151.951 10.2227 150.533 10.9258 148.301 10.9258C146.068 10.9258 144.65 10.2227 144.656 9.02734C144.65 7.82031 146.068 7.11719 148.301 7.11719ZM143.602 6.14453V5.39453H147.527V3.37891H148.43V5.39453H153.082V6.14453H143.602ZM144.727 1.82031V1.07031H151.875V1.94922C151.869 2.79297 151.869 3.63672 151.582 4.71484L150.68 4.60938C150.961 3.53711 150.961 2.76367 150.961 1.94922V1.82031H144.727ZM145.57 9.02734C145.564 9.75391 146.643 10.1992 148.301 10.1992C149.965 10.1992 151.031 9.75391 151.043 9.02734C151.031 8.2832 149.965 7.82617 148.301 7.82031C146.643 7.82617 145.564 8.2832 145.57 9.02734Z" fill="#898989"/>
<rect width="12" height="12" rx="2" fill="#98EA98"/>
<path d="M19.7969 1.51562V10H18.7305V2.61719H18.6836L16.6211 3.98828V2.92188L18.7305 1.51562H19.7969ZM31.2109 5.86328V6.625H26.9688V8.75781H26.0547V6.625H21.6719V5.86328H31.2109ZM22.8906 10.7266V7.72656H23.8164V9.95312H30.1445V10.7266H22.8906ZM22.9141 4.66797V1.04688H29.9688V4.66797H22.9141ZM23.8164 3.92969H29.0547V1.77344H23.8164V3.92969ZM40.9609 0.53125V10.9492H40.082V0.53125H40.9609ZM31.9258 8.17188C33.3789 7.30469 34.2285 5.40039 34.2227 3.50781V2.52344H32.2188V1.76172H37.0234V2.52344H35.1133V3.50781C35.1133 5.30664 35.9277 7.10547 37.3633 7.9375L36.8008 8.61719C35.7754 8.00195 35.0488 6.87695 34.6855 5.55273C34.3105 6.98828 33.5547 8.21289 32.5117 8.86328L31.9258 8.17188ZM36.2266 5.04297V4.29297H37.9844V0.789062H38.8516V10.4102H37.9844V5.04297H36.2266ZM49.0234 2.17188C49.0117 3.66016 50.0723 4.9668 51.6016 5.48828L51.0859 6.20312C49.9375 5.77539 49.0352 4.92578 48.584 3.83008C48.1387 5.07812 47.1895 6.04492 45.9297 6.51953L45.4258 5.76953C47.0312 5.20703 48.0977 3.82422 48.1094 2.20703V1.12891H49.0234V2.17188ZM47.125 8.98047C47.1191 7.72656 48.4492 7.00586 50.6172 7.01172C52.7793 7.00586 54.1094 7.72656 54.1094 8.98047C54.1094 10.2227 52.7793 10.9258 50.6172 10.9258C48.4492 10.9258 47.1191 10.2227 47.125 8.98047ZM48.0391 8.98047C48.0332 9.73633 49.0176 10.1934 50.6172 10.1875C52.2109 10.1934 53.1953 9.73633 53.1953 8.98047C53.1953 8.20117 52.2109 7.73828 50.6172 7.73828C49.0176 7.73828 48.0332 8.20117 48.0391 8.98047ZM50.8281 3.53125V2.76953H53.1484V0.53125H54.0742V6.70703H53.1484V3.53125H50.8281ZM60.5195 7.11719C62.752 7.11719 64.1699 7.82031 64.1758 9.02734C64.1699 10.2227 62.752 10.9258 60.5195 10.9258C58.2871 10.9258 56.8691 10.2227 56.875 9.02734C56.8691 7.82031 58.2871 7.11719 60.5195 7.11719ZM55.8203 6.14453V5.39453H59.7461V3.37891H60.6484V5.39453H65.3008V6.14453H55.8203ZM56.9453 1.82031V1.07031H64.0938V1.94922C64.0879 2.79297 64.0879 3.63672 63.8008 4.71484L62.8984 4.60938C63.1797 3.53711 63.1797 2.76367 63.1797 1.94922V1.82031H56.9453ZM57.7891 9.02734C57.7832 9.75391 58.8613 10.1992 60.5195 10.1992C62.1836 10.1992 63.25 9.75391 63.2617 9.02734C63.25 8.2832 62.1836 7.82617 60.5195 7.82031C58.8613 7.82617 57.7832 8.2832 57.7891 9.02734Z" fill="#898989"/>
</svg>
