<svg width="157" height="62" viewBox="0 0 157 62" fill="none" xmlns="http://www.w3.org/2000/svg">
<path d="M3.24219 51.2812C4.8125 51.2871 5.93164 52.7168 5.9375 54.9609C5.93164 57.2285 4.8125 58.6582 3.24219 58.6523C1.67188 58.6582 0.552734 57.2285 0.558594 54.9609C0.552734 52.7168 1.67188 51.2871 3.24219 51.2812ZM1.625 54.9609C1.61914 56.6309 2.28711 57.6562 3.24219 57.6562C4.21484 57.6562 4.87109 56.6309 4.87109 54.9609C4.87109 53.3145 4.21484 52.2832 3.24219 52.2773C2.28711 52.2832 1.61914 53.3145 1.625 54.9609ZM7.49609 60.9961V50.4961H8.60938V54.6094H10.2969V55.5469H8.60938V60.9961H7.49609ZM14.6914 52.3828C14.6914 53.7305 15.6934 55.0254 17.3164 55.5352L16.7422 56.4023C15.5352 56.0039 14.6211 55.1777 14.1465 54.123C13.6719 55.2598 12.7402 56.1621 11.4922 56.6016L10.918 55.7461C12.5527 55.1777 13.5605 53.8066 13.5664 52.3828V52.0898H11.2109V51.1875H17V52.0898H14.6914V52.3828ZM12.3945 58.2656V57.3633H19.5078V60.9961H18.3945V58.2656H12.3945ZM18.3945 56.8359V50.4961H19.5078V56.8359H18.3945ZM32.8672 50.4961V61.0195H31.7539V55.1836H29.5859V54.2695H31.7539V50.4961H32.8672ZM23.9844 58.0898C25.5898 57.3223 26.7207 55.3359 26.7266 53.4492V52.4648H24.4062V51.5508H30.1836V52.4648H27.8516V53.4492C27.8516 55.2246 28.9707 57.1406 30.582 57.8555L29.9141 58.7461C28.7012 58.1602 27.7695 56.9355 27.3008 55.5059C26.832 57.0293 25.877 58.3359 24.6641 58.957L23.9844 58.0898ZM38.1406 52.4297C38.1348 53.7656 39.0664 54.9844 40.6602 55.4883L40.1328 56.3555C38.9375 55.9746 38.0645 55.1836 37.6016 54.1875C37.1445 55.3359 36.2246 56.2441 34.9648 56.6836L34.3906 55.793C36.0312 55.2539 37.0215 53.9004 37.0273 52.4414V52.1484H34.7188V51.2461H40.4023V52.1484H38.1406V52.4297ZM35.8086 59.0039C35.8086 57.7734 37.1504 57.0527 39.3359 57.0586C41.498 57.0527 42.8164 57.7734 42.8164 59.0039C42.8164 60.252 41.498 60.9785 39.3359 60.9727C37.1504 60.9785 35.8086 60.252 35.8086 59.0039ZM36.9219 59.0039C36.916 59.707 37.8184 60.0996 39.3359 60.0938C40.8418 60.0996 41.7324 59.707 41.7266 59.0039C41.7324 58.3184 40.8418 57.9316 39.3359 57.9375C37.8184 57.9316 36.916 58.3184 36.9219 59.0039ZM41.6094 56.8008V50.4961H42.7227V53.0977H44.2461V54.0117H42.7227V56.8008H41.6094ZM53.0938 50.5078V53.8828H54.6172V54.8086H53.0938V58.3594H51.9805V50.5078H53.0938ZM44.8555 52.6289V51.7266H47.4336V50.4961H48.5469V51.7266H51.1133V52.6289H44.8555ZM45.4297 55.1133C45.4238 53.9121 46.4609 53.127 47.9844 53.1328C49.4902 53.127 50.5273 53.9121 50.5273 55.1133C50.5273 56.3027 49.4902 57.0762 47.9844 57.082C46.4609 57.0762 45.4238 56.3027 45.4297 55.1133ZM46.4375 60.7734V57.7383H47.5508V59.8711H53.5391V60.7734H46.4375ZM46.5078 55.1133C46.4961 55.7988 47.0938 56.2207 47.9844 56.2148C48.875 56.2207 49.4727 55.7988 49.4844 55.1133C49.4727 54.4219 48.875 53.9941 47.9844 53.9883C47.0938 53.9941 46.4961 54.4219 46.5078 55.1133ZM67.7188 55.5938V56.4844H63.4766V57.6094H66.5469V60.9961H65.4219V58.5117H59.2109V57.6094H62.375V56.4844H58.1445V55.5938H67.7188ZM59.3984 54.7148V50.7422H60.5V51.8789H65.3633V50.7422H66.4766V54.7148H59.3984ZM60.5 53.8242H65.3633V52.7109H60.5V53.8242ZM73.8242 51.5391V58.3594H68.9141V51.5391H73.8242ZM70.0039 57.457H72.7227V52.418H70.0039V57.457ZM75.582 60.9961V50.4961H76.6953V54.6094H78.3828V55.5469H76.6953V60.9961H75.582ZM87.3359 51.5156V52.793C87.3359 54.3281 87.3359 55.7695 86.8789 57.9492L85.7773 57.8438C86 56.877 86.1172 56.0391 86.1758 55.2598L79.8711 55.5938L79.7305 54.6797L86.2285 54.4336C86.252 53.8711 86.252 53.332 86.2578 52.793V52.4297H80.0234V51.5156H87.3359ZM78.8867 59.5898V58.6758H88.4609V59.5898H78.8867ZM101.176 50.4961V60.9961H100.109V55.6172H98.7617V60.457H97.7188V50.707H98.7617V54.7031H100.109V50.4961H101.176ZM92.6797 58.3242V51.7383H93.793V57.3457C94.7598 57.334 95.8203 57.2578 97.0156 57.0234L97.1328 57.9961C95.6914 58.2539 94.4902 58.3301 93.3594 58.3242H92.6797ZM111.312 57.2344V60.9961H110.199V58.1133H104.199V57.2344H111.312ZM102.711 53.6133C102.705 52.1309 103.883 51.0762 105.465 51.082C106.355 51.0762 107.123 51.4219 107.609 51.9961H110.199V50.4961H111.312V56.6836H110.199V55.2422H107.609C107.117 55.8164 106.355 56.1621 105.465 56.1562C103.883 56.1621 102.705 55.1074 102.711 53.6133ZM103.777 53.6133C103.771 54.5742 104.48 55.2129 105.465 55.2188C106.408 55.2129 107.129 54.5742 107.129 53.6133C107.129 52.6758 106.408 52.0254 105.465 52.0195C104.48 52.0254 103.771 52.6758 103.777 53.6133ZM108.096 54.3281H110.199V52.9102H108.102C108.16 53.1328 108.195 53.3672 108.195 53.6133C108.195 53.8652 108.16 54.1055 108.096 54.3281ZM121.625 50.4961V61.0195H120.512V50.4961H121.625ZM113.293 54.9609C113.293 52.7168 114.424 51.2871 116.012 51.2812C117.57 51.2871 118.719 52.7168 118.719 54.9609C118.719 57.2285 117.57 58.6582 116.012 58.6523C114.424 58.6582 113.293 57.2285 113.293 54.9609ZM114.371 54.9609C114.365 56.6309 115.033 57.6562 116.012 57.6562C116.973 57.6562 117.641 56.6309 117.641 54.9609C117.641 53.3145 116.973 52.2832 116.012 52.2773C115.033 52.2832 114.365 53.3145 114.371 54.9609ZM128.469 56.6484V57.8672H130.109V56.6484H131.141V60.8672H127.426V56.6484H128.469ZM126.383 53.3672C126.377 51.9316 127.531 50.9414 129.137 50.9414C130.52 50.9414 131.592 51.7207 131.82 52.8984H133.871V50.4961H134.984V56.0625H133.871V53.8125H131.826C131.609 55.0137 130.531 55.8105 129.137 55.8047C127.531 55.8105 126.377 54.8145 126.383 53.3672ZM127.449 53.3672C127.443 54.2754 128.146 54.8965 129.137 54.9023C130.109 54.8965 130.801 54.2754 130.801 53.3672C130.801 52.4707 130.109 51.8613 129.137 51.8672C128.146 51.8613 127.443 52.4707 127.449 53.3672ZM128.469 60H130.109V58.7109H128.469V60ZM131.199 60.1055C132.465 59.584 133.086 58.4824 133.086 57.4336V56.5781H134.188V57.4336C134.182 58.5352 134.803 59.6484 136.098 60.1055L135.523 60.9492C134.574 60.5859 133.959 59.9004 133.625 59.0684C133.279 59.877 132.664 60.5742 131.762 60.9492L131.199 60.1055ZM139.449 51.2812C140.879 51.2871 141.916 52.4941 142.086 54.4336H144.254V50.4961H145.355V61.0195H144.254V55.3359H142.098C141.975 57.3867 140.914 58.6582 139.449 58.6523C137.885 58.6582 136.777 57.2285 136.789 54.9609C136.777 52.7168 137.885 51.2871 139.449 51.2812ZM137.844 54.9609C137.85 56.6309 138.5 57.6562 139.449 57.6562C140.398 57.6562 141.049 56.6309 141.055 54.9609C141.049 53.3145 140.398 52.2832 139.449 52.2773C138.5 52.2832 137.85 53.3145 137.844 54.9609ZM156.582 58.7578V59.6836H146.973V58.7578H149.27V56.0156C148.408 55.541 147.881 54.791 147.887 53.8477C147.881 52.1953 149.504 51.1113 151.754 51.1055C154.01 51.1113 155.633 52.1953 155.633 53.8477C155.633 54.7734 155.129 55.5176 154.285 55.9922V58.7578H156.582ZM148.965 53.8477C148.965 54.9727 150.107 55.7051 151.754 55.7109C153.389 55.7051 154.549 54.9727 154.555 53.8477C154.549 52.7168 153.389 51.9961 151.754 51.9961C150.107 51.9961 148.965 52.7168 148.965 53.8477ZM150.371 58.7578H153.16V56.4258C152.732 56.5254 152.258 56.5781 151.754 56.5781C151.262 56.5781 150.793 56.5254 150.371 56.4258V58.7578Z" fill="#545454"/>
<path d="M91.3334 3.33332V36.6667H89.6667H88V35H86.3334V33.3333H84.6667V31.6667H83V30H81.3334V28.3333H79.6667V26.6667H76.3334V28.3333H74.6667V30H73V31.6667H71.3334V33.3333H69.6667V35H68V36.6667H66.3334H64.6667V3.33332H66.3334V1.66666H89.6667V3.33332H91.3334Z" fill="#192E47"/>
<path d="M80.1 16.7H80.8V17.4H81.5V18.1H82.2V18.8H82.9V19.5H83.6V20.2H84.3V20.9H85V21.6H84.3V22.3H83.6V23H82.9V22.3H82.2V21.6H81.5V20.9H80.8V20.2H80.1V19.5H79.4V18.8H78.7V18.1H77.3V18.8H76.6V19.5H75.9V20.2H75.2V20.9H74.5V21.6H73.8V22.3H73.1V23H72.4V22.3H71.7V21.6H71V20.9H71.7V20.2H72.4V19.5H73.1V18.8H73.8V18.1H74.5V17.4H75.2V16.7H75.9V15.3H75.2V14.6H74.5V13.9H73.8V13.2H73.1V12.5H72.4V11.8H71.7V11.1H71V10.4H71.7V9.7H72.4V9H73.1V9.7H73.8V10.4H74.5V11.1H75.2V11.8H75.9V12.5H76.6V13.2H77.3V13.9H78.7V13.2H79.4V12.5H80.1V11.8H80.8V11.1H81.5V10.4H82.2V9.7H82.9V9H83.6V9.7H84.3V10.4H85V11.1H84.3V11.8H83.6V12.5H82.9V13.2H82.2V13.9H81.5V14.6H80.8V15.3H80.1V16.7Z" fill="white"/>
</svg>
