<svg width="157" height="62" viewBox="0 0 157 62" fill="none" xmlns="http://www.w3.org/2000/svg">
<path d="M3.24218 51.2812C4.81249 51.2871 5.93163 52.7168 5.93749 54.9609C5.93163 57.2285 4.81249 58.6582 3.24218 58.6523C1.67187 58.6582 0.552727 57.2285 0.558586 54.9609C0.552727 52.7168 1.67187 51.2871 3.24218 51.2812ZM1.62499 54.9609C1.61913 56.6309 2.2871 57.6562 3.24218 57.6562C4.21484 57.6562 4.87109 56.6309 4.87109 54.9609C4.87109 53.3145 4.21484 52.2832 3.24218 52.2773C2.2871 52.2832 1.61913 53.3145 1.62499 54.9609ZM7.49609 60.9961V50.4961H8.60937V54.6094H10.2969V55.5469H8.60937V60.9961H7.49609Z" fill="#545454"/>
<path d="M14.6914 52.3828C14.6914 53.7305 15.6934 55.0254 17.3164 55.5352L16.7422 56.4023C15.5351 56.0039 14.6211 55.1777 14.1465 54.123C13.6719 55.2598 12.7402 56.1621 11.4922 56.6016L10.918 55.7461C12.5527 55.1777 13.5605 53.8066 13.5664 52.3828V52.0898H11.2109V51.1875H17V52.0898H14.6914V52.3828ZM12.3945 58.2656V57.3633H19.5078V60.9961H18.3945V58.2656H12.3945ZM18.3945 56.8359V50.4961H19.5078V56.8359H18.3945Z" fill="#545454"/>
<path d="M32.7734 50.7656V51.6094H31.25V53.3906H32.7266V54.2461H25.0273V53.3906H26.5156V51.6094H24.9805V50.7656H32.7734ZM24.1016 55.8984V55.0078H33.6758V55.8984H29.4336V56.8008H32.4687V59.2031H26.3516V60.0469H32.7617V60.8906H25.2617V58.418H31.3672V57.6328H25.25V56.8008H28.3203V55.8984H24.1016ZM27.6172 53.3906H30.1367V51.6094H27.6172V53.3906Z" fill="#545454"/>
<path d="M43.168 50.4961V61.0195H42.0547V50.4961H43.168ZM34.8359 54.9609C34.8359 52.7168 35.9668 51.2871 37.5547 51.2812C39.1133 51.2871 40.2617 52.7168 40.2617 54.9609C40.2617 57.2285 39.1133 58.6582 37.5547 58.6523C35.9668 58.6582 34.8359 57.2285 34.8359 54.9609ZM35.9141 54.9609C35.9082 56.6309 36.5762 57.6562 37.5547 57.6562C38.5156 57.6562 39.1836 56.6309 39.1836 54.9609C39.1836 53.3145 38.5156 52.2832 37.5547 52.2773C36.5762 52.2832 35.9082 53.3145 35.9141 54.9609Z" fill="#545454"/>
<path d="M53.0937 50.5078V53.8828H54.6172V54.8086H53.0937V58.3594H51.9805V50.5078H53.0937ZM44.8555 52.6289V51.7266H47.4336V50.4961H48.5469V51.7266H51.1133V52.6289H44.8555ZM45.4297 55.1133C45.4238 53.9121 46.4609 53.127 47.9844 53.1328C49.4902 53.127 50.5273 53.9121 50.5273 55.1133C50.5273 56.3027 49.4902 57.0762 47.9844 57.082C46.4609 57.0762 45.4238 56.3027 45.4297 55.1133ZM46.4375 60.7734V57.7383H47.5508V59.8711H53.5391V60.7734H46.4375ZM46.5078 55.1133C46.4961 55.7988 47.0937 56.2207 47.9844 56.2148C48.875 56.2207 49.4726 55.7988 49.4844 55.1133C49.4726 54.4219 48.875 53.9941 47.9844 53.9883C47.0937 53.9941 46.4961 54.4219 46.5078 55.1133Z" fill="#545454"/>
<path d="M62.4453 51.7383V52.6289H59.5859V54.5625H61.9766V55.4297H59.5859V57.6328C60.957 57.6152 61.8535 57.5625 62.9375 57.3633L63.0312 58.2656C61.8242 58.5117 60.8281 58.5293 59.1992 58.5352H58.5195V51.7383H62.4453ZM62.5273 55.3359V54.4336H63.9453V50.7188H65V60.4688H63.9453V55.3359H62.5273ZM66.0898 60.9961V50.4961H67.168V60.9961H66.0898Z" fill="#545454"/>
<path d="M73.8476 51.9844C73.8476 53.6953 75.6699 55.3125 77.6914 55.6758L77.1758 56.6016C75.4941 56.2383 73.9531 55.1367 73.2734 53.6602C72.582 55.1309 71.041 56.2266 69.3594 56.6016L68.8672 55.6758C70.8594 55.3008 72.6699 53.6953 72.6758 51.9844V51.1875H73.8476V51.9844ZM68.5156 59.6133V58.6875H78.125V59.6133H68.5156Z" fill="#545454"/>
<path d="M87.4062 56.0859V56.9766H80.0937V51.3633H87.3008V52.2656H81.2187V53.6836H87.0781V54.5625H81.2187V56.0859H87.4062ZM78.8867 59.6719V58.7578H88.4961V59.6719H78.8867Z" fill="#545454"/>
<path d="M101.176 50.4961V60.9961H100.109V55.6172H98.7617V60.457H97.7187V50.707H98.7617V54.7031H100.109V50.4961H101.176ZM92.6797 58.3242V51.7383H93.793V57.3457C94.7598 57.334 95.8203 57.2578 97.0156 57.0234L97.1328 57.9961C95.6914 58.2539 94.4902 58.3301 93.3594 58.3242H92.6797Z" fill="#545454"/>
<path d="M111.312 57.2344V60.9961H110.199V58.1133H104.199V57.2344H111.312ZM102.711 53.6133C102.705 52.1309 103.883 51.0762 105.465 51.082C106.355 51.0762 107.123 51.4219 107.609 51.9961H110.199V50.4961H111.312V56.6836H110.199V55.2422H107.609C107.117 55.8164 106.355 56.1621 105.465 56.1562C103.883 56.1621 102.705 55.1074 102.711 53.6133ZM103.777 53.6133C103.771 54.5742 104.48 55.2129 105.465 55.2188C106.408 55.2129 107.129 54.5742 107.129 53.6133C107.129 52.6758 106.408 52.0254 105.465 52.0195C104.48 52.0254 103.771 52.6758 103.777 53.6133ZM108.096 54.3281H110.199V52.9102H108.102C108.16 53.1328 108.195 53.3672 108.195 53.6133C108.195 53.8652 108.16 54.1055 108.096 54.3281Z" fill="#545454"/>
<path d="M121.625 50.4961V61.0195H120.512V50.4961H121.625ZM113.293 54.9609C113.293 52.7168 114.424 51.2871 116.012 51.2812C117.57 51.2871 118.719 52.7168 118.719 54.9609C118.719 57.2285 117.57 58.6582 116.012 58.6523C114.424 58.6582 113.293 57.2285 113.293 54.9609ZM114.371 54.9609C114.365 56.6309 115.033 57.6562 116.012 57.6562C116.973 57.6562 117.641 56.6309 117.641 54.9609C117.641 53.3145 116.973 52.2832 116.012 52.2773C115.033 52.2832 114.365 53.3145 114.371 54.9609Z" fill="#545454"/>
<path d="M128.469 56.6484V57.8672H130.109V56.6484H131.141V60.8672H127.426V56.6484H128.469ZM126.383 53.3672C126.377 51.9316 127.531 50.9414 129.137 50.9414C130.52 50.9414 131.592 51.7207 131.82 52.8984H133.871V50.4961H134.984V56.0625H133.871V53.8125H131.826C131.609 55.0137 130.531 55.8105 129.137 55.8047C127.531 55.8105 126.377 54.8145 126.383 53.3672ZM127.449 53.3672C127.443 54.2754 128.146 54.8965 129.137 54.9023C130.109 54.8965 130.801 54.2754 130.801 53.3672C130.801 52.4707 130.109 51.8613 129.137 51.8672C128.146 51.8613 127.443 52.4707 127.449 53.3672ZM128.469 60H130.109V58.7109H128.469V60ZM131.199 60.1055C132.465 59.584 133.086 58.4824 133.086 57.4336V56.5781H134.188V57.4336C134.182 58.5352 134.803 59.6484 136.098 60.1055L135.523 60.9492C134.574 60.5859 133.959 59.9004 133.625 59.0684C133.279 59.877 132.664 60.5742 131.762 60.9492L131.199 60.1055Z" fill="#545454"/>
<path d="M139.449 51.2812C140.879 51.2871 141.916 52.4941 142.086 54.4336H144.254V50.4961H145.355V61.0195H144.254V55.3359H142.098C141.975 57.3867 140.914 58.6582 139.449 58.6523C137.885 58.6582 136.777 57.2285 136.789 54.9609C136.777 52.7168 137.885 51.2871 139.449 51.2812ZM137.844 54.9609C137.85 56.6309 138.5 57.6562 139.449 57.6562C140.398 57.6562 141.049 56.6309 141.055 54.9609C141.049 53.3145 140.398 52.2832 139.449 52.2773C138.5 52.2832 137.85 53.3145 137.844 54.9609Z" fill="#545454"/>
<path d="M156.582 58.7578V59.6836H146.973V58.7578H149.27V56.0156C148.408 55.541 147.881 54.791 147.887 53.8477C147.881 52.1953 149.504 51.1113 151.754 51.1055C154.01 51.1113 155.633 52.1953 155.633 53.8477C155.633 54.7734 155.129 55.5176 154.285 55.9922V58.7578H156.582ZM148.965 53.8477C148.965 54.9727 150.107 55.7051 151.754 55.7109C153.389 55.7051 154.549 54.9727 154.555 53.8477C154.549 52.7168 153.389 51.9961 151.754 51.9961C150.107 51.9961 148.965 52.7168 148.965 53.8477ZM150.371 58.7578H153.16V56.4258C152.732 56.5254 152.258 56.5781 151.754 56.5781C151.262 56.5781 150.793 56.5254 150.371 56.4258V58.7578Z" fill="#545454"/>
<path d="M91.3333 3.33335V36.6667H89.6667H88V35H86.3333V33.3334H84.6667V31.6667H83V30H81.3333V28.3334H79.6667V26.6667H76.3333V28.3334H74.6667V30H73V31.6667H71.3333V33.3334H69.6667V35H68V36.6667H66.3333H64.6667V3.33335H66.3333V1.66669H89.6667V3.33335H91.3333Z" fill="#192E47"/>
<path d="M80.1 16.7H80.8V17.4H81.5V18.1H82.2V18.8H82.9V19.5H83.6V20.2H84.3V20.9H85V21.6H84.3V22.3H83.6V23H82.9V22.3H82.2V21.6H81.5V20.9H80.8V20.2H80.1V19.5H79.4V18.8H78.7V18.1H77.3V18.8H76.6V19.5H75.9V20.2H75.2V20.9H74.5V21.6H73.8V22.3H73.1V23H72.4V22.3H71.7V21.6H71V20.9H71.7V20.2H72.4V19.5H73.1V18.8H73.8V18.1H74.5V17.4H75.2V16.7H75.9V15.3H75.2V14.6H74.5V13.9H73.8V13.2H73.1V12.5H72.4V11.8H71.7V11.1H71V10.4H71.7V9.7H72.4V9H73.1V9.7H73.8V10.4H74.5V11.1H75.2V11.8H75.9V12.5H76.6V13.2H77.3V13.9H78.7V13.2H79.4V12.5H80.1V11.8H80.8V11.1H81.5V10.4H82.2V9.7H82.9V9H83.6V9.7H84.3V10.4H85V11.1H84.3V11.8H83.6V12.5H82.9V13.2H82.2V13.9H81.5V14.6H80.8V15.3H80.1V16.7Z" fill="white"/>
</svg>
