<svg width="157" height="67" viewBox="0 0 157 67" fill="none" xmlns="http://www.w3.org/2000/svg">
<path d="M3.24218 56.2812C4.81249 56.2871 5.93163 57.7168 5.93749 59.9609C5.93163 62.2285 4.81249 63.6582 3.24218 63.6523C1.67187 63.6582 0.552727 62.2285 0.558586 59.9609C0.552727 57.7168 1.67187 56.2871 3.24218 56.2812ZM1.62499 59.9609C1.61913 61.6309 2.2871 62.6562 3.24218 62.6562C4.21484 62.6562 4.87109 61.6309 4.87109 59.9609C4.87109 58.3145 4.21484 57.2832 3.24218 57.2773C2.2871 57.2832 1.61913 58.3145 1.62499 59.9609ZM7.49609 65.9961V55.4961H8.60937V59.6094H10.2969V60.5469H8.60937V65.9961H7.49609Z" fill="#545454"/>
<path d="M14.6914 57.3828C14.6914 58.7305 15.6934 60.0254 17.3164 60.5352L16.7422 61.4023C15.5351 61.0039 14.6211 60.1777 14.1465 59.123C13.6719 60.2598 12.7402 61.1621 11.4922 61.6016L10.918 60.7461C12.5527 60.1777 13.5605 58.8066 13.5664 57.3828V57.0898H11.2109V56.1875H17V57.0898H14.6914V57.3828ZM12.3945 63.2656V62.3633H19.5078V65.9961H18.3945V63.2656H12.3945ZM18.3945 61.8359V55.4961H19.5078V61.8359H18.3945Z" fill="#545454"/>
<path d="M32.7734 55.7656V56.6094H31.25V58.3906H32.7266V59.2461H25.0273V58.3906H26.5156V56.6094H24.9805V55.7656H32.7734ZM24.1016 60.8984V60.0078H33.6758V60.8984H29.4336V61.8008H32.4687V64.2031H26.3516V65.0469H32.7617V65.8906H25.2617V63.418H31.3672V62.6328H25.25V61.8008H28.3203V60.8984H24.1016ZM27.6172 58.3906H30.1367V56.6094H27.6172V58.3906Z" fill="#545454"/>
<path d="M43.168 55.4961V66.0195H42.0547V55.4961H43.168ZM34.8359 59.9609C34.8359 57.7168 35.9668 56.2871 37.5547 56.2812C39.1133 56.2871 40.2617 57.7168 40.2617 59.9609C40.2617 62.2285 39.1133 63.6582 37.5547 63.6523C35.9668 63.6582 34.8359 62.2285 34.8359 59.9609ZM35.9141 59.9609C35.9082 61.6309 36.5762 62.6562 37.5547 62.6562C38.5156 62.6562 39.1836 61.6309 39.1836 59.9609C39.1836 58.3145 38.5156 57.2832 37.5547 57.2773C36.5762 57.2832 35.9082 58.3145 35.9141 59.9609Z" fill="#545454"/>
<path d="M53.0937 55.5078V58.8828H54.6172V59.8086H53.0937V63.3594H51.9805V55.5078H53.0937ZM44.8555 57.6289V56.7266H47.4336V55.4961H48.5469V56.7266H51.1133V57.6289H44.8555ZM45.4297 60.1133C45.4238 58.9121 46.4609 58.127 47.9844 58.1328C49.4902 58.127 50.5273 58.9121 50.5273 60.1133C50.5273 61.3027 49.4902 62.0762 47.9844 62.082C46.4609 62.0762 45.4238 61.3027 45.4297 60.1133ZM46.4375 65.7734V62.7383H47.5508V64.8711H53.5391V65.7734H46.4375ZM46.5078 60.1133C46.4961 60.7988 47.0937 61.2207 47.9844 61.2148C48.875 61.2207 49.4726 60.7988 49.4844 60.1133C49.4726 59.4219 48.875 58.9941 47.9844 58.9883C47.0937 58.9941 46.4961 59.4219 46.5078 60.1133Z" fill="#545454"/>
<path d="M62.4453 56.7383V57.6289H59.5859V59.5625H61.9766V60.4297H59.5859V62.6328C60.957 62.6152 61.8535 62.5625 62.9375 62.3633L63.0312 63.2656C61.8242 63.5117 60.8281 63.5293 59.1992 63.5352H58.5195V56.7383H62.4453ZM62.5273 60.3359V59.4336H63.9453V55.7188H65V65.4688H63.9453V60.3359H62.5273ZM66.0898 65.9961V55.4961H67.168V65.9961H66.0898Z" fill="#545454"/>
<path d="M73.8476 56.9844C73.8476 58.6953 75.6699 60.3125 77.6914 60.6758L77.1758 61.6016C75.4941 61.2383 73.9531 60.1367 73.2734 58.6602C72.582 60.1309 71.041 61.2266 69.3594 61.6016L68.8672 60.6758C70.8594 60.3008 72.6699 58.6953 72.6758 56.9844V56.1875H73.8476V56.9844ZM68.5156 64.6133V63.6875H78.125V64.6133H68.5156Z" fill="#545454"/>
<path d="M87.4062 61.0859V61.9766H80.0937V56.3633H87.3008V57.2656H81.2187V58.6836H87.0781V59.5625H81.2187V61.0859H87.4062ZM78.8867 64.6719V63.7578H88.4961V64.6719H78.8867Z" fill="#545454"/>
<path d="M101.176 55.4961V65.9961H100.109V60.6172H98.7617V65.457H97.7187V55.707H98.7617V59.7031H100.109V55.4961H101.176ZM92.6797 63.3242V56.7383H93.793V62.3457C94.7598 62.334 95.8203 62.2578 97.0156 62.0234L97.1328 62.9961C95.6914 63.2539 94.4902 63.3301 93.3594 63.3242H92.6797Z" fill="#545454"/>
<path d="M111.312 62.2344V65.9961H110.199V63.1133H104.199V62.2344H111.312ZM102.711 58.6133C102.705 57.1309 103.883 56.0762 105.465 56.082C106.355 56.0762 107.123 56.4219 107.609 56.9961H110.199V55.4961H111.312V61.6836H110.199V60.2422H107.609C107.117 60.8164 106.355 61.1621 105.465 61.1562C103.883 61.1621 102.705 60.1074 102.711 58.6133ZM103.777 58.6133C103.771 59.5742 104.48 60.2129 105.465 60.2188C106.408 60.2129 107.129 59.5742 107.129 58.6133C107.129 57.6758 106.408 57.0254 105.465 57.0195C104.48 57.0254 103.771 57.6758 103.777 58.6133ZM108.096 59.3281H110.199V57.9102H108.102C108.16 58.1328 108.195 58.3672 108.195 58.6133C108.195 58.8652 108.16 59.1055 108.096 59.3281Z" fill="#545454"/>
<path d="M121.625 55.4961V66.0195H120.512V55.4961H121.625ZM113.293 59.9609C113.293 57.7168 114.424 56.2871 116.012 56.2812C117.57 56.2871 118.719 57.7168 118.719 59.9609C118.719 62.2285 117.57 63.6582 116.012 63.6523C114.424 63.6582 113.293 62.2285 113.293 59.9609ZM114.371 59.9609C114.365 61.6309 115.033 62.6562 116.012 62.6562C116.973 62.6562 117.641 61.6309 117.641 59.9609C117.641 58.3145 116.973 57.2832 116.012 57.2773C115.033 57.2832 114.365 58.3145 114.371 59.9609Z" fill="#545454"/>
<path d="M128.469 61.6484V62.8672H130.109V61.6484H131.141V65.8672H127.426V61.6484H128.469ZM126.383 58.3672C126.377 56.9316 127.531 55.9414 129.137 55.9414C130.52 55.9414 131.592 56.7207 131.82 57.8984H133.871V55.4961H134.984V61.0625H133.871V58.8125H131.826C131.609 60.0137 130.531 60.8105 129.137 60.8047C127.531 60.8105 126.377 59.8145 126.383 58.3672ZM127.449 58.3672C127.443 59.2754 128.146 59.8965 129.137 59.9023C130.109 59.8965 130.801 59.2754 130.801 58.3672C130.801 57.4707 130.109 56.8613 129.137 56.8672C128.146 56.8613 127.443 57.4707 127.449 58.3672ZM128.469 65H130.109V63.7109H128.469V65ZM131.199 65.1055C132.465 64.584 133.086 63.4824 133.086 62.4336V61.5781H134.188V62.4336C134.182 63.5352 134.803 64.6484 136.098 65.1055L135.523 65.9492C134.574 65.5859 133.959 64.9004 133.625 64.0684C133.279 64.877 132.664 65.5742 131.762 65.9492L131.199 65.1055Z" fill="#545454"/>
<path d="M139.449 56.2812C140.879 56.2871 141.916 57.4941 142.086 59.4336H144.254V55.4961H145.355V66.0195H144.254V60.3359H142.098C141.975 62.3867 140.914 63.6582 139.449 63.6523C137.885 63.6582 136.777 62.2285 136.789 59.9609C136.777 57.7168 137.885 56.2871 139.449 56.2812ZM137.844 59.9609C137.85 61.6309 138.5 62.6562 139.449 62.6562C140.398 62.6562 141.049 61.6309 141.055 59.9609C141.049 58.3145 140.398 57.2832 139.449 57.2773C138.5 57.2832 137.85 58.3145 137.844 59.9609Z" fill="#545454"/>
<path d="M156.582 63.7578V64.6836H146.973V63.7578H149.27V61.0156C148.408 60.541 147.881 59.791 147.887 58.8477C147.881 57.1953 149.504 56.1113 151.754 56.1055C154.01 56.1113 155.633 57.1953 155.633 58.8477C155.633 59.7734 155.129 60.5176 154.285 60.9922V63.7578H156.582ZM148.965 58.8477C148.965 59.9727 150.107 60.7051 151.754 60.7109C153.389 60.7051 154.549 59.9727 154.555 58.8477C154.549 57.7168 153.389 56.9961 151.754 56.9961C150.107 56.9961 148.965 57.7168 148.965 58.8477ZM150.371 63.7578H153.16V61.4258C152.732 61.5254 152.258 61.5781 151.754 61.5781C151.262 61.5781 150.793 61.5254 150.371 61.4258V63.7578Z" fill="#545454"/>
<rect x="57" y="-0.000244141" width="43" height="43" fill="#D9D9D9" fill-opacity="0.01"/>
<path d="M68.9444 1.43335H71.3333V4.06365H73.7222V9.32426H83.2778V4.06365H85.6667V1.43335H88.0556V4.06365H90.4444V9.32426H92.8333V17.2152H95.2222V19.8455H97.6111V22.4758H100V30.3667H97.6111V32.997H95.2222V35.6273H92.8333V36.9425L88.9719 36.9856V41.5667H68.1686V36.9856H64.1667V35.6273H61.7778V32.997H59.3889V30.3667H57V22.4758H59.3889V19.8455H61.7778V17.2152H64.1667V9.32426H66.5556V4.06365H68.9444V1.43335Z" stroke="black" stroke-dasharray="1 1"/>
<path d="M80.65 25.8H81.3667V26.5166H82.0833V27.2333H82.8V27.95H83.5167V28.6666H84.2333V29.3833H84.95V30.1H85.6667V30.8166H84.95V31.5333H84.2333V32.25H83.5167V31.5333H82.8V30.8166H82.0833V30.1H81.3667V29.3833H80.65V28.6666H79.9333V27.95H79.2167V27.2333H77.7833V27.95H77.0667V28.6666H76.35V29.3833H75.6333V30.1H74.9167V30.8166H74.2V31.5333H73.4833V32.25H72.7667V31.5333H72.05V30.8166H71.3333V30.1H72.05V29.3833H72.7667V28.6666H73.4833V27.95H74.2V27.2333H74.9167V26.5166H75.6333V25.8H76.35V24.3666H75.6333V23.65H74.9167V22.9333H74.2V22.2166H73.4833V21.5H72.7667V20.7833H72.05V20.0666H71.3333V19.35H72.05V18.6333H72.7667V17.9166H73.4833V18.6333H74.2V19.35H74.9167V20.0666H75.6333V20.7833H76.35V21.5H77.0667V22.2166H77.7833V22.9333H79.2167V22.2166H79.9333V21.5H80.65V20.7833H81.3667V20.0666H82.0833V19.35H82.8V18.6333H83.5167V17.9166H84.2333V18.6333H84.95V19.35H85.6667V20.0666H84.95V20.7833H84.2333V21.5H83.5167V22.2166H82.8V22.9333H82.0833V23.65H81.3667V24.3666H80.65V25.8Z" fill="#192E47"/>
</svg>
