<svg width="366" height="256" viewBox="0 0 366 256" fill="none" xmlns="http://www.w3.org/2000/svg">
<g filter="url(#filter0_d_834_1992)">
<path d="M42.0844 14.2047C41.2249 14.7768 40.2078 15.0909 39.1549 15.0909L18.8865 15.0909C12.874 15.0909 8.00002 19.9751 8.00002 26L8.00002 237.091C8.00002 243.116 12.874 248 18.8865 248L347.113 248C353.126 248 358 243.116 358 237.091L358 26C358 19.9751 353.126 15.0909 347.114 15.0909L55.2277 15.0909C54.1747 15.0909 53.1575 14.7767 52.298 14.2045L47.1913 8.00003L42.0844 14.2047Z" fill="#FAFAFA"/>
</g>
<path d="M42.3945 34.4805V38.5234H40.0508V40.3398C41.0879 40.3281 42.0723 40.2812 43.1797 40.0703L43.3086 41.2891C41.9141 41.5469 40.7188 41.5703 39.3711 41.582H38.6211V37.3398H40.9531V35.6641H38.6094V34.4805H42.3945ZM47.5391 33.4141V44.0781H46.1211V33.4141H47.5391ZM45.3242 33.6133V43.5625H43.9297V38.2656H42.8398V37.0586H43.9297V33.6133H45.3242ZM57.8516 33.4258V38.9336H56.4336V33.4258H57.8516ZM55.6484 33.6016V38.8867H54.2656V36.8477H53.3164V38.582H49.0625V34.0117H50.4805V35.1719H51.9336V34.0117H53.3164V35.6523H54.2656V33.6016H55.6484ZM57.8516 39.3438V42.1797H52.0742V42.8594H58.2148V44.0078H50.5625V41.0898H56.3516V40.4922H50.5508V39.3438H57.8516ZM50.4805 37.4336H51.9336V36.2852H50.4805V37.4336ZM67.5312 34V34.7148C67.5312 35.6055 67.5312 36.8359 67.25 38.5938H68.7852V39.8008H66.4766V44.0781H64.9883V39.8008H62.7734V44.0781H61.2734V39.8008H59.0586V38.5938H65.7383C66.0078 37.1523 66.0547 36.0449 66.0781 35.207H60.2188V34H67.5312ZM78.418 33.4141V39.7422H76.9297V37.2227H75.2656V36.0156H76.9297V33.4141H78.418ZM74.7734 39.9766C77.0469 39.9883 78.4414 40.7383 78.4531 42.0391C78.4414 43.3281 77.0469 44.0898 74.7734 44.0898C72.5 44.0898 71.1055 43.3281 71.1055 42.0391C71.1055 40.7383 72.5 39.9883 74.7734 39.9766ZM74.7734 41.125C73.3555 41.125 72.5938 41.418 72.5938 42.0391C72.5938 42.6484 73.3555 42.9531 74.7734 42.9531C76.1914 42.9531 76.9648 42.6484 76.9648 42.0391C76.9648 41.418 76.1914 41.125 74.7734 41.125ZM75.582 34.0586V35.2539H73.4609C73.4961 36.4961 74.2461 37.75 75.9102 38.3008L75.1719 39.4727C73.9941 39.0918 73.1855 38.3184 72.7227 37.3516C72.248 38.4414 71.3984 39.3203 70.1328 39.7539L69.3594 38.5703C71.1113 37.9844 71.8965 36.5898 71.9375 35.2539H69.793V34.0586H75.582Z" fill="#192E47"/>
<rect x="38" y="94" width="297" height="27" fill="#F4F4F4"/>
<rect x="38" y="121" width="297" height="108" fill="white"/>
<path d="M38 121H335" stroke="#DBDBDB" stroke-width="0.644427"/>
<path d="M38 148H335" stroke="#DBDBDB" stroke-width="0.644427"/>
<path d="M38 94H334.801" stroke="#DBDBDB" stroke-width="0.644427"/>
<path d="M38 175H335" stroke="#DBDBDB" stroke-width="0.644427"/>
<path d="M38 202L335.273 201.637" stroke="#DBDBDB" stroke-width="0.644427"/>
<path d="M38 229H335" stroke="#DBDBDB" stroke-width="0.644427"/>
<path d="M54.3223 103.663V106.581H52.4414V108.075C53.2632 108.066 54.041 108.031 54.9375 107.864L55.0166 108.664C53.9531 108.857 53.0566 108.884 52.0547 108.884H51.501V105.808H53.3818V104.445H51.4922V103.663H54.3223ZM58.1016 102.837V110.782H57.1699V102.837H58.1016ZM56.4668 103.004V110.378H55.5439V106.396H54.6738V105.597H55.5439V103.004H56.4668ZM65.8359 102.846V106.977H64.9043V102.846H65.8359ZM64.2188 102.995V106.933H63.3047V105.342H62.4873V106.669H59.3496V103.294H60.2725V104.226H61.582V103.294H62.4873V104.551H63.3047V102.995H64.2188ZM65.8359 107.302V109.332H61.4502V109.956H66.1172V110.712H60.4658V108.611H64.8604V108.058H60.457V107.302H65.8359ZM60.2725 105.913H61.582V104.955H60.2725V105.913Z" fill="#313944"/>
<path d="M52.3623 131.637V138H51.6064V131.637H52.3623ZM55.5703 138.097C54.1904 138.097 53.3379 137.121 53.3379 135.653C53.3379 134.186 54.1992 133.166 55.5 133.166C56.502 133.166 57.5566 133.781 57.5566 135.548V135.864H54.0938C54.1289 136.875 54.7178 137.429 55.5703 137.429C56.1416 137.429 56.502 137.183 56.6777 136.884H57.4863C57.2578 137.604 56.5547 138.097 55.5703 138.097ZM54.1025 135.223H56.792C56.792 134.423 56.2822 133.834 55.5 133.834C54.6738 133.834 54.1465 134.484 54.1025 135.223ZM62.3203 133.228L60.5537 138H59.7715L58.0137 133.228H58.8398L60.1406 137.016H60.1934L61.4941 133.228H62.3203ZM64.9834 138.097C63.6035 138.097 62.751 137.121 62.751 135.653C62.751 134.186 63.6123 133.166 64.9131 133.166C65.915 133.166 66.9697 133.781 66.9697 135.548V135.864H63.5068C63.542 136.875 64.1309 137.429 64.9834 137.429C65.5547 137.429 65.915 137.183 66.0908 136.884H66.8994C66.6709 137.604 65.9678 138.097 64.9834 138.097ZM63.5156 135.223H66.2051C66.2051 134.423 65.6953 133.834 64.9131 133.834C64.0869 133.834 63.5596 134.484 63.5156 135.223ZM68.71 131.637V138H67.9541V131.637H68.71ZM74.4141 131.637V138H73.6143V132.463H73.5791L72.0322 133.491V132.691L73.6143 131.637H74.4141Z" fill="#383C47"/>
<path d="M117.716 131.549C118.814 131.558 120.027 132.217 120.027 134.563C120.027 136.822 119.104 138.088 117.61 138.088C116.494 138.088 115.703 137.402 115.545 136.392H116.327C116.468 136.963 116.898 137.385 117.61 137.385C118.647 137.385 119.28 136.488 119.289 134.941H119.201C118.832 135.469 118.252 135.785 117.575 135.785C116.433 135.785 115.492 134.915 115.492 133.685C115.492 132.498 116.362 131.54 117.716 131.549ZM117.716 132.243C116.881 132.243 116.257 132.894 116.266 133.676C116.266 134.467 116.854 135.091 117.689 135.091C118.516 135.091 119.166 134.405 119.166 133.658C119.166 132.929 118.56 132.243 117.716 132.243ZM127.981 134.897V135.469H124.8V137.068H124.114V135.469H120.827V134.897H127.981ZM127.05 131.285V134.001H121.759V131.285H127.05ZM122.436 131.83V133.447H126.364V131.83H122.436ZM127.182 137.965V138.545H121.741V136.295H122.436V137.965H127.182ZM135.294 130.898V138.712H134.635V130.898H135.294ZM133.712 131.092V138.308H133.062V134.282H131.743V133.72H133.062V131.092H133.712ZM130.908 133.131C130.908 134.484 131.515 135.829 132.596 136.453L132.174 136.963C131.405 136.501 130.86 135.658 130.592 134.66C130.306 135.737 129.739 136.655 128.957 137.147L128.518 136.629C129.607 135.979 130.24 134.555 130.24 133.131V132.393H128.737V131.821H132.341V132.393H130.908V133.131Z" fill="#383C47"/>
<path d="M186.716 131.549C187.814 131.558 189.027 132.217 189.027 134.563C189.027 136.822 188.104 138.088 186.61 138.088C185.494 138.088 184.703 137.402 184.545 136.392H185.327C185.468 136.963 185.898 137.385 186.61 137.385C187.647 137.385 188.28 136.488 188.289 134.941H188.201C187.832 135.469 187.252 135.785 186.575 135.785C185.433 135.785 184.492 134.915 184.492 133.685C184.492 132.498 185.362 131.54 186.716 131.549ZM186.716 132.243C185.881 132.243 185.257 132.894 185.266 133.676C185.266 134.467 185.854 135.091 186.689 135.091C187.516 135.091 188.166 134.405 188.166 133.658C188.166 132.929 187.56 132.243 186.716 132.243ZM192.2 138.088C190.785 138.088 189.977 136.901 189.977 134.818C189.977 132.753 190.803 131.549 192.2 131.549C193.598 131.549 194.424 132.753 194.424 134.818C194.424 136.901 193.606 138.088 192.2 138.088ZM192.2 137.385C193.114 137.385 193.65 136.462 193.65 134.818C193.65 133.175 193.114 132.234 192.2 132.234C191.286 132.234 190.741 133.175 190.741 134.818C190.741 136.462 191.277 137.385 192.2 137.385ZM197.843 138V131.637H201.701V132.34H198.634V134.467H201.499V135.161H198.634V137.297H201.745V138H197.843ZM203.354 131.637L204.971 134.265H205.023L206.649 131.637H207.581L205.586 134.818L207.581 138H206.649L205.023 135.425H204.971L203.345 138H202.413L204.461 134.818L202.413 131.637H203.354ZM208.46 138V131.637H210.622C212.116 131.637 212.793 132.524 212.793 133.658C212.793 134.783 212.116 135.688 210.631 135.688H209.251V138H208.46ZM209.251 134.985H210.596C211.606 134.985 212.011 134.414 212.011 133.658C212.011 132.894 211.606 132.34 210.587 132.34H209.251V134.985Z" fill="#383C47"/>
<path d="M270.625 131.241C271.812 131.241 272.594 131.804 272.603 132.683C272.594 133.553 271.812 134.124 270.625 134.124C269.438 134.124 268.647 133.553 268.647 132.683C268.647 131.804 269.438 131.241 270.625 131.241ZM270.625 131.769C269.843 131.769 269.307 132.129 269.307 132.683C269.307 133.228 269.843 133.597 270.625 133.597C271.416 133.597 271.943 133.228 271.952 132.683C271.943 132.129 271.416 131.769 270.625 131.769ZM274.422 130.898V136.84H273.736V130.898H274.422ZM268.032 134.722C269.5 134.722 271.469 134.713 273.156 134.467L273.209 134.977C272.519 135.095 271.798 135.17 271.091 135.214V136.567H270.405V135.249C269.588 135.289 268.81 135.293 268.138 135.293L268.032 134.722ZM274.65 137.965V138.545H269.148V136.295H269.834V137.965H274.65ZM282.112 134.563V135.126H279.695V137.147H282.956V137.728H275.802V137.147H279.019V135.126H276.716V131.54H282.033V132.103H277.41V134.563H282.112ZM290.726 135.381V135.961H287.465V138.712H286.788V135.961H283.571V135.381H290.726ZM287.131 131.215C288.774 131.215 289.882 131.874 289.882 132.938C289.882 133.975 288.774 134.634 287.131 134.634C285.487 134.634 284.38 133.975 284.38 132.938C284.38 131.874 285.487 131.215 287.131 131.215ZM287.131 131.777C285.909 131.777 285.083 132.234 285.092 132.938C285.083 133.632 285.909 134.08 287.131 134.08C288.344 134.08 289.179 133.632 289.179 132.938C289.179 132.234 288.344 131.777 287.131 131.777ZM293.758 131.549C294.856 131.558 296.069 132.217 296.069 134.563C296.069 136.822 295.146 138.088 293.652 138.088C292.536 138.088 291.745 137.402 291.587 136.392H292.369C292.51 136.963 292.94 137.385 293.652 137.385C294.689 137.385 295.322 136.488 295.331 134.941H295.243C294.874 135.469 294.294 135.785 293.617 135.785C292.475 135.785 291.534 134.915 291.534 133.685C291.534 132.498 292.404 131.54 293.758 131.549ZM293.758 132.243C292.923 132.243 292.299 132.894 292.308 133.676C292.308 134.467 292.896 135.091 293.731 135.091C294.558 135.091 295.208 134.405 295.208 133.658C295.208 132.929 294.602 132.243 293.758 132.243ZM299.286 138.088C297.95 138.088 297.019 137.35 297.027 136.312C297.019 135.486 297.59 134.81 298.319 134.695V134.66C297.687 134.511 297.273 133.931 297.273 133.236C297.273 132.261 298.126 131.549 299.286 131.549C300.446 131.549 301.299 132.261 301.308 133.236C301.299 133.931 300.877 134.511 300.253 134.66V134.695C300.974 134.81 301.545 135.486 301.554 136.312C301.545 137.35 300.613 138.088 299.286 138.088ZM299.286 137.394C300.2 137.394 300.763 136.937 300.763 136.269C300.763 135.565 300.139 135.047 299.286 135.047C298.434 135.047 297.801 135.565 297.818 136.269C297.801 136.937 298.372 137.394 299.286 137.394ZM299.286 134.379C300.007 134.379 300.534 133.939 300.534 133.298C300.534 132.665 300.033 132.234 299.286 132.234C298.53 132.234 298.038 132.665 298.038 133.298C298.038 133.939 298.557 134.379 299.286 134.379Z" fill="#383C47"/>
<path d="M270.632 158.225C271.822 158.225 272.606 158.789 272.614 159.67C272.606 160.542 271.822 161.115 270.632 161.115C269.443 161.115 268.65 160.542 268.65 159.67C268.65 158.789 269.443 158.225 270.632 158.225ZM270.632 158.753C269.848 158.753 269.311 159.115 269.311 159.67C269.311 160.216 269.848 160.586 270.632 160.586C271.425 160.586 271.954 160.216 271.963 159.67C271.954 159.115 271.425 158.753 270.632 158.753ZM274.438 157.881V163.837H273.751V157.881H274.438ZM268.033 161.714C269.504 161.714 271.478 161.705 273.17 161.458L273.222 161.969C272.531 162.088 271.808 162.163 271.099 162.207V163.564H270.412V162.242C269.592 162.282 268.813 162.286 268.139 162.286L268.033 161.714ZM274.667 164.965V165.546H269.152V163.291H269.839V164.965H274.667ZM282.147 161.555V162.119H279.725V164.145H282.993V164.727H275.822V164.145H279.046V162.119H276.738V158.524H282.068V159.088H277.434V161.555H282.147ZM290.782 162.374V162.956H287.513V165.714H286.835V162.956H283.61V162.374H290.782ZM287.178 158.198C288.826 158.198 289.936 158.859 289.936 159.925C289.936 160.965 288.826 161.626 287.178 161.626C285.531 161.626 284.421 160.965 284.421 159.925C284.421 158.859 285.531 158.198 287.178 158.198ZM287.178 158.762C285.954 158.762 285.125 159.22 285.134 159.925C285.125 160.621 285.954 161.071 287.178 161.071C288.394 161.071 289.231 160.621 289.231 159.925C289.231 159.22 288.394 158.762 287.178 158.762ZM292.209 158.621L293.83 161.256H293.883L295.513 158.621H296.447L294.447 161.811L296.447 165H295.513L293.883 162.419H293.83L292.2 165H291.266L293.319 161.811L291.266 158.621H292.209ZM297.328 165V158.621H299.495C300.993 158.621 301.672 159.511 301.672 160.648C301.672 161.775 300.993 162.683 299.504 162.683H298.121V165H297.328ZM298.121 161.978H299.469C300.482 161.978 300.887 161.405 300.887 160.648C300.887 159.881 300.482 159.326 299.46 159.326H298.121V161.978Z" fill="#383C47"/>
<path d="M270.121 185.489C271.275 185.498 272.095 186.555 272.103 188.22C272.095 189.885 271.275 190.943 270.121 190.943C268.958 190.943 268.148 189.885 268.148 188.22C268.148 186.555 268.958 185.498 270.121 185.489ZM270.121 186.106C269.346 186.115 268.8 186.943 268.8 188.22C268.8 189.498 269.346 190.326 270.121 190.326C270.905 190.326 271.434 189.498 271.434 188.22C271.434 186.943 270.905 186.115 270.121 186.106ZM274.086 184.881V188.009H275.399V188.608H274.086V192.714H273.399V184.881H274.086ZM282.28 184.881V192.731H281.584V184.881H282.28ZM278.112 185.489C279.275 185.498 280.112 186.555 280.112 188.22C280.112 189.885 279.275 190.943 278.112 190.943C276.94 190.943 276.112 189.885 276.112 188.22C276.112 186.555 276.94 185.498 278.112 185.489ZM278.112 186.106C277.328 186.115 276.782 186.943 276.782 188.22C276.782 189.498 277.328 190.326 278.112 190.326C278.896 190.326 279.443 189.498 279.443 188.22C279.443 186.943 278.896 186.115 278.112 186.106ZM290.271 184.89V189.551H289.61V187.48H288.57V189.498H287.918V185.04H288.57V186.908H289.61V184.89H290.271ZM290.271 189.991V192.714H289.592V190.546H284.993V189.991H290.271ZM287.011 185.56V188.952H283.98V185.56H287.011ZM284.632 186.106V188.414H286.368V186.106H284.632Z" fill="#383C47"/>
<path d="M269.901 212.498C270.848 212.498 271.57 213.15 271.681 214.128H272.526V212.04H273.178V217.52H272.526V214.709H271.681C271.548 215.661 270.835 216.295 269.901 216.286C268.852 216.295 268.104 215.52 268.112 214.401C268.104 213.273 268.852 212.498 269.901 212.498ZM269.901 213.097C269.231 213.097 268.729 213.643 268.738 214.401C268.729 215.159 269.231 215.696 269.901 215.696C270.57 215.696 271.064 215.159 271.073 214.401C271.064 213.643 270.57 213.097 269.901 213.097ZM274.676 211.881V217.749H274.015V211.881H274.676ZM274.914 218.965V219.546H269.54V216.991H270.227V218.965H274.914ZM282.28 211.881V219.731H281.584V211.881H282.28ZM276.967 212.551V214.621H279.302V212.551H279.98V217.837H276.28V212.551H276.967ZM276.967 217.256H279.302V215.176H276.967V217.256ZM290.077 211.881V219.731H289.381V211.881H290.077ZM287.857 212.63V213.211H284.826V217.185C286.35 217.185 287.354 217.137 288.526 216.93L288.597 217.511C287.381 217.731 286.35 217.775 284.764 217.784H284.13V212.63H287.857ZM293.513 212.489C294.667 212.498 295.487 213.555 295.495 215.22C295.487 216.885 294.667 217.943 293.513 217.943C292.35 217.943 291.539 216.885 291.539 215.22C291.539 213.555 292.35 212.498 293.513 212.489ZM293.513 213.106C292.738 213.115 292.191 213.943 292.191 215.22C292.191 216.498 292.738 217.326 293.513 217.326C294.297 217.326 294.826 216.498 294.826 215.22C294.826 213.943 294.297 213.115 293.513 213.106ZM297.478 211.881V215.009H298.791V215.608H297.478V219.714H296.791V211.881H297.478Z" fill="#383C47"/>
<path d="M186.848 158.637V165H186.048V159.463H186.013L184.466 160.491V159.691L186.048 158.637H186.848ZM190.759 165.088C189.651 165.07 188.438 164.42 188.438 162.064C188.438 159.814 189.361 158.549 190.855 158.549C191.972 158.549 192.754 159.234 192.921 160.236H192.139C191.989 159.674 191.567 159.252 190.855 159.252C189.81 159.252 189.186 160.148 189.186 161.678H189.265C189.634 161.15 190.214 160.834 190.899 160.834C192.033 160.834 192.974 161.713 192.974 162.943C192.974 164.139 192.095 165.097 190.759 165.088ZM190.759 164.394C191.585 164.394 192.2 163.743 192.209 162.952C192.2 162.17 191.611 161.528 190.776 161.528C189.941 161.528 189.3 162.205 189.291 162.961C189.291 163.708 189.906 164.394 190.759 164.394ZM196.146 165.088C194.731 165.088 193.923 163.901 193.923 161.818C193.923 159.753 194.749 158.549 196.146 158.549C197.544 158.549 198.37 159.753 198.37 161.818C198.37 163.901 197.553 165.088 196.146 165.088ZM196.146 164.385C197.061 164.385 197.597 163.462 197.597 161.818C197.597 160.175 197.061 159.234 196.146 159.234C195.232 159.234 194.688 160.175 194.688 161.818C194.688 163.462 195.224 164.385 196.146 164.385ZM201.789 165V158.637H205.647V159.34H202.58V161.467H205.445V162.161H202.58V164.297H205.691V165H201.789ZM207.3 158.637L208.917 161.265H208.97L210.596 158.637H211.527L209.532 161.818L211.527 165H210.596L208.97 162.425H208.917L207.291 165H206.359L208.407 161.818L206.359 158.637H207.3ZM212.406 165V158.637H214.568C216.062 158.637 216.739 159.524 216.739 160.658C216.739 161.783 216.062 162.688 214.577 162.688H213.197V165H212.406ZM213.197 161.985H214.542C215.553 161.985 215.957 161.414 215.957 160.658C215.957 159.894 215.553 159.34 214.533 159.34H213.197V161.985Z" fill="#383C47"/>
<path d="M184.598 192L184.589 191.42L186.76 189.135C187.516 188.335 187.876 187.904 187.876 187.315C187.876 186.665 187.322 186.234 186.61 186.234C185.854 186.234 185.371 186.718 185.371 187.43H184.624C184.615 186.305 185.485 185.549 186.637 185.549C187.788 185.549 188.614 186.322 188.614 187.315C188.614 188.027 188.28 188.581 187.155 189.741L185.696 191.244V191.297H188.729V192H184.598ZM191.954 192.088C190.803 192.088 189.933 191.376 189.889 190.4H190.653C190.715 190.972 191.269 191.394 191.954 191.394C192.78 191.394 193.378 190.787 193.378 189.987C193.378 189.161 192.754 188.555 191.901 188.546C191.365 188.537 190.952 188.704 190.715 189.117H189.95L190.398 185.637H193.844V186.34H191.058L190.82 188.203H190.882C191.163 187.983 191.594 187.834 192.042 187.834C193.255 187.834 194.151 188.73 194.151 189.97C194.151 191.2 193.22 192.088 191.954 192.088ZM197.333 192.088C195.918 192.088 195.109 190.901 195.109 188.818C195.109 186.753 195.936 185.549 197.333 185.549C198.73 185.549 199.557 186.753 199.557 188.818C199.557 190.901 198.739 192.088 197.333 192.088ZM197.333 191.385C198.247 191.385 198.783 190.462 198.783 188.818C198.783 187.175 198.247 186.234 197.333 186.234C196.419 186.234 195.874 187.175 195.874 188.818C195.874 190.462 196.41 191.385 197.333 191.385ZM202.976 192V185.637H206.834V186.34H203.767V188.467H206.632V189.161H203.767V191.297H206.878V192H202.976ZM208.486 185.637L210.104 188.265H210.156L211.782 185.637H212.714L210.719 188.818L212.714 192H211.782L210.156 189.425H210.104L208.478 192H207.546L209.594 188.818L207.546 185.637H208.486ZM213.593 192V185.637H215.755C217.249 185.637 217.926 186.524 217.926 187.658C217.926 188.783 217.249 189.688 215.764 189.688H214.384V192H213.593ZM214.384 188.985H215.729C216.739 188.985 217.144 188.414 217.144 187.658C217.144 186.894 216.739 186.34 215.72 186.34H214.384V188.985Z" fill="#383C47"/>
<path d="M186.795 219.088C185.529 219.088 184.624 218.411 184.58 217.4H185.38C185.424 218.007 186.03 218.385 186.786 218.385C187.621 218.385 188.236 217.928 188.236 217.269C188.236 216.574 187.683 216.082 186.689 216.082H186.171V215.388H186.689C187.463 215.388 187.999 214.957 187.999 214.298C187.999 213.665 187.533 213.234 186.812 213.234C186.136 213.234 185.512 213.612 185.477 214.236H184.712C184.756 213.226 185.688 212.549 186.821 212.549C188.034 212.549 188.772 213.34 188.764 214.254C188.772 214.975 188.351 215.511 187.683 215.695V215.739C188.509 215.871 189.019 216.46 189.01 217.269C189.019 218.314 188.061 219.088 186.795 219.088ZM192.367 219.088C191.26 219.07 190.047 218.42 190.047 216.064C190.047 213.814 190.97 212.549 192.464 212.549C193.58 212.549 194.362 213.234 194.529 214.236H193.747C193.598 213.674 193.176 213.252 192.464 213.252C191.418 213.252 190.794 214.148 190.794 215.678H190.873C191.242 215.15 191.822 214.834 192.508 214.834C193.642 214.834 194.582 215.713 194.582 216.943C194.582 218.139 193.703 219.097 192.367 219.088ZM192.367 218.394C193.193 218.394 193.809 217.743 193.817 216.952C193.809 216.17 193.22 215.528 192.385 215.528C191.55 215.528 190.908 216.205 190.899 216.961C190.899 217.708 191.515 218.394 192.367 218.394ZM197.755 219.088C196.34 219.088 195.531 217.901 195.531 215.818C195.531 213.753 196.357 212.549 197.755 212.549C199.152 212.549 199.979 213.753 199.979 215.818C199.979 217.901 199.161 219.088 197.755 219.088ZM197.755 218.385C198.669 218.385 199.205 217.462 199.205 215.818C199.205 214.175 198.669 213.234 197.755 213.234C196.841 213.234 196.296 214.175 196.296 215.818C196.296 217.462 196.832 218.385 197.755 218.385ZM203.397 219V212.637H207.256V213.34H204.188V215.467H207.054V216.161H204.188V218.297H207.3V219H203.397ZM208.908 212.637L210.525 215.265H210.578L212.204 212.637H213.136L211.141 215.818L213.136 219H212.204L210.578 216.425H210.525L208.899 219H207.968L210.016 215.818L207.968 212.637H208.908ZM214.015 219V212.637H216.177C217.671 212.637 218.348 213.524 218.348 214.658C218.348 215.783 217.671 216.688 216.186 216.688H214.806V219H214.015ZM214.806 215.985H216.15C217.161 215.985 217.565 215.414 217.565 214.658C217.565 213.894 217.161 213.34 216.142 213.34H214.806V215.985Z" fill="#383C47"/>
<path d="M117.848 158.637V165H117.048V159.463H117.013L115.466 160.491V159.691L117.048 158.637H117.848ZM121.759 165.088C120.651 165.07 119.438 164.42 119.438 162.064C119.438 159.814 120.361 158.549 121.855 158.549C122.972 158.549 123.754 159.234 123.921 160.236H123.139C122.989 159.674 122.567 159.252 121.855 159.252C120.81 159.252 120.186 160.148 120.186 161.678H120.265C120.634 161.15 121.214 160.834 121.899 160.834C123.033 160.834 123.974 161.713 123.974 162.943C123.974 164.139 123.095 165.097 121.759 165.088ZM121.759 164.394C122.585 164.394 123.2 163.743 123.209 162.952C123.2 162.17 122.611 161.528 121.776 161.528C120.941 161.528 120.3 162.205 120.291 162.961C120.291 163.708 120.906 164.394 121.759 164.394ZM131.928 161.897V162.469H128.746V164.068H128.061V162.469H124.773V161.897H131.928ZM130.996 158.285V161.001H125.705V158.285H130.996ZM126.382 158.83V160.447H130.311V158.83H126.382ZM131.128 164.965V165.545H125.688V163.295H126.382V164.965H131.128ZM139.24 157.898V165.712H138.581V157.898H139.24ZM137.658 158.092V165.308H137.008V161.282H135.689V160.72H137.008V158.092H137.658ZM134.854 160.131C134.854 161.484 135.461 162.829 136.542 163.453L136.12 163.963C135.351 163.501 134.806 162.658 134.538 161.66C134.252 162.737 133.686 163.655 132.903 164.147L132.464 163.629C133.554 162.979 134.187 161.555 134.187 160.131V159.393H132.684V158.821H136.287V159.393H134.854V160.131Z" fill="#383C47"/>
<path d="M115.598 192L115.589 191.42L117.76 189.135C118.516 188.335 118.876 187.904 118.876 187.315C118.876 186.665 118.322 186.234 117.61 186.234C116.854 186.234 116.371 186.718 116.371 187.43H115.624C115.615 186.305 116.485 185.549 117.637 185.549C118.788 185.549 119.614 186.322 119.614 187.315C119.614 188.027 119.28 188.581 118.155 189.741L116.696 191.244V191.297H119.729V192H115.598ZM122.954 192.088C121.803 192.088 120.933 191.376 120.889 190.4H121.653C121.715 190.972 122.269 191.394 122.954 191.394C123.78 191.394 124.378 190.787 124.378 189.987C124.378 189.161 123.754 188.555 122.901 188.546C122.365 188.537 121.952 188.704 121.715 189.117H120.95L121.398 185.637H124.844V186.34H122.058L121.82 188.203H121.882C122.163 187.983 122.594 187.834 123.042 187.834C124.255 187.834 125.151 188.73 125.151 189.97C125.151 191.2 124.22 192.088 122.954 192.088ZM133.114 188.897V189.469H129.933V191.068H129.247V189.469H125.96V188.897H133.114ZM132.183 185.285V188.001H126.892V185.285H132.183ZM127.568 185.83V187.447H131.497V185.83H127.568ZM132.314 191.965V192.545H126.874V190.295H127.568V191.965H132.314ZM140.427 184.898V192.712H139.768V184.898H140.427ZM138.845 185.092V192.308H138.194V188.282H136.876V187.72H138.194V185.092H138.845ZM136.041 187.131C136.041 188.484 136.647 189.829 137.729 190.453L137.307 190.963C136.538 190.501 135.993 189.658 135.725 188.66C135.439 189.737 134.872 190.655 134.09 191.147L133.65 190.629C134.74 189.979 135.373 188.555 135.373 187.131V186.393H133.87V185.821H137.474V186.393H136.041V187.131Z" fill="#383C47"/>
<path d="M117.795 219.088C116.529 219.088 115.624 218.411 115.58 217.4H116.38C116.424 218.007 117.03 218.385 117.786 218.385C118.621 218.385 119.236 217.928 119.236 217.269C119.236 216.574 118.683 216.082 117.689 216.082H117.171V215.388H117.689C118.463 215.388 118.999 214.957 118.999 214.298C118.999 213.665 118.533 213.234 117.812 213.234C117.136 213.234 116.512 213.612 116.477 214.236H115.712C115.756 213.226 116.688 212.549 117.821 212.549C119.034 212.549 119.772 213.34 119.764 214.254C119.772 214.975 119.351 215.511 118.683 215.695V215.739C119.509 215.871 120.019 216.46 120.01 217.269C120.019 218.314 119.061 219.088 117.795 219.088ZM123.367 219.088C122.26 219.07 121.047 218.42 121.047 216.064C121.047 213.814 121.97 212.549 123.464 212.549C124.58 212.549 125.362 213.234 125.529 214.236H124.747C124.598 213.674 124.176 213.252 123.464 213.252C122.418 213.252 121.794 214.148 121.794 215.678H121.873C122.242 215.15 122.822 214.834 123.508 214.834C124.642 214.834 125.582 215.713 125.582 216.943C125.582 218.139 124.703 219.097 123.367 219.088ZM123.367 218.394C124.193 218.394 124.809 217.743 124.817 216.952C124.809 216.17 124.22 215.528 123.385 215.528C122.55 215.528 121.908 216.205 121.899 216.961C121.899 217.708 122.515 218.394 123.367 218.394ZM133.536 215.897V216.469H130.354V218.068H129.669V216.469H126.382V215.897H133.536ZM132.604 212.285V215.001H127.313V212.285H132.604ZM127.99 212.83V214.447H131.919V212.83H127.99ZM132.736 218.965V219.545H127.296V217.295H127.99V218.965H132.736ZM140.849 211.898V219.712H140.189V211.898H140.849ZM139.267 212.092V219.308H138.616V215.282H137.298V214.72H138.616V212.092H139.267ZM136.463 214.131C136.463 215.484 137.069 216.829 138.15 217.453L137.729 217.963C136.959 217.501 136.415 216.658 136.146 215.66C135.861 216.737 135.294 217.655 134.512 218.147L134.072 217.629C135.162 216.979 135.795 215.555 135.795 214.131V213.393H134.292V212.821H137.896V213.393H136.463V214.131Z" fill="#383C47"/>
<path d="M52.3623 158.637V165H51.6064V158.637H52.3623ZM55.5703 165.097C54.1904 165.097 53.3379 164.121 53.3379 162.653C53.3379 161.186 54.1992 160.166 55.5 160.166C56.502 160.166 57.5566 160.781 57.5566 162.548V162.864H54.0938C54.1289 163.875 54.7178 164.429 55.5703 164.429C56.1416 164.429 56.502 164.183 56.6777 163.884H57.4863C57.2578 164.604 56.5547 165.097 55.5703 165.097ZM54.1025 162.223H56.792C56.792 161.423 56.2822 160.834 55.5 160.834C54.6738 160.834 54.1465 161.484 54.1025 162.223ZM62.3203 160.228L60.5537 165H59.7715L58.0137 160.228H58.8398L60.1406 164.016H60.1934L61.4941 160.228H62.3203ZM64.9834 165.097C63.6035 165.097 62.751 164.121 62.751 162.653C62.751 161.186 63.6123 160.166 64.9131 160.166C65.915 160.166 66.9697 160.781 66.9697 162.548V162.864H63.5068C63.542 163.875 64.1309 164.429 64.9834 164.429C65.5547 164.429 65.915 164.183 66.0908 163.884H66.8994C66.6709 164.604 65.9678 165.097 64.9834 165.097ZM63.5156 162.223H66.2051C66.2051 161.423 65.6953 160.834 64.9131 160.834C64.0869 160.834 63.5596 161.484 63.5156 162.223ZM68.71 158.637V165H67.9541V158.637H68.71ZM72.1641 165L72.1553 164.42L74.3262 162.135C75.082 161.335 75.4424 160.904 75.4424 160.315C75.4424 159.665 74.8887 159.234 74.1768 159.234C73.4209 159.234 72.9375 159.718 72.9375 160.43H72.1904C72.1816 159.305 73.0518 158.549 74.2031 158.549C75.3545 158.549 76.1807 159.322 76.1807 160.315C76.1807 161.027 75.8467 161.581 74.7217 162.741L73.2627 164.244V164.297H76.2949V165H72.1641Z" fill="#383C47"/>
<path d="M52.3623 185.637V192H51.6064V185.637H52.3623ZM55.5703 192.097C54.1904 192.097 53.3379 191.121 53.3379 189.653C53.3379 188.186 54.1992 187.166 55.5 187.166C56.502 187.166 57.5566 187.781 57.5566 189.548V189.864H54.0938C54.1289 190.875 54.7178 191.429 55.5703 191.429C56.1416 191.429 56.502 191.183 56.6777 190.884H57.4863C57.2578 191.604 56.5547 192.097 55.5703 192.097ZM54.1025 189.223H56.792C56.792 188.423 56.2822 187.834 55.5 187.834C54.6738 187.834 54.1465 188.484 54.1025 189.223ZM62.3203 187.228L60.5537 192H59.7715L58.0137 187.228H58.8398L60.1406 191.016H60.1934L61.4941 187.228H62.3203ZM64.9834 192.097C63.6035 192.097 62.751 191.121 62.751 189.653C62.751 188.186 63.6123 187.166 64.9131 187.166C65.915 187.166 66.9697 187.781 66.9697 189.548V189.864H63.5068C63.542 190.875 64.1309 191.429 64.9834 191.429C65.5547 191.429 65.915 191.183 66.0908 190.884H66.8994C66.6709 191.604 65.9678 192.097 64.9834 192.097ZM63.5156 189.223H66.2051C66.2051 188.423 65.6953 187.834 64.9131 187.834C64.0869 187.834 63.5596 188.484 63.5156 189.223ZM68.71 185.637V192H67.9541V185.637H68.71ZM74.3613 192.088C73.0957 192.088 72.1904 191.411 72.1465 190.4H72.9463C72.9902 191.007 73.5967 191.385 74.3525 191.385C75.1875 191.385 75.8027 190.928 75.8027 190.269C75.8027 189.574 75.249 189.082 74.2559 189.082H73.7373V188.388H74.2559C75.0293 188.388 75.5654 187.957 75.5654 187.298C75.5654 186.665 75.0996 186.234 74.3789 186.234C73.7021 186.234 73.0781 186.612 73.043 187.236H72.2783C72.3223 186.226 73.2539 185.549 74.3877 185.549C75.6006 185.549 76.3389 186.34 76.3301 187.254C76.3389 187.975 75.917 188.511 75.249 188.695V188.739C76.0752 188.871 76.585 189.46 76.5762 190.269C76.585 191.314 75.627 192.088 74.3613 192.088Z" fill="#383C47"/>
<path d="M52.3623 212.637V219H51.6064V212.637H52.3623ZM55.5703 219.097C54.1904 219.097 53.3379 218.121 53.3379 216.653C53.3379 215.186 54.1992 214.166 55.5 214.166C56.502 214.166 57.5566 214.781 57.5566 216.548V216.864H54.0938C54.1289 217.875 54.7178 218.429 55.5703 218.429C56.1416 218.429 56.502 218.183 56.6777 217.884H57.4863C57.2578 218.604 56.5547 219.097 55.5703 219.097ZM54.1025 216.223H56.792C56.792 215.423 56.2822 214.834 55.5 214.834C54.6738 214.834 54.1465 215.484 54.1025 216.223ZM62.3203 214.228L60.5537 219H59.7715L58.0137 214.228H58.8398L60.1406 218.016H60.1934L61.4941 214.228H62.3203ZM64.9834 219.097C63.6035 219.097 62.751 218.121 62.751 216.653C62.751 215.186 63.6123 214.166 64.9131 214.166C65.915 214.166 66.9697 214.781 66.9697 216.548V216.864H63.5068C63.542 217.875 64.1309 218.429 64.9834 218.429C65.5547 218.429 65.915 218.183 66.0908 217.884H66.8994C66.6709 218.604 65.9678 219.097 64.9834 219.097ZM63.5156 216.223H66.2051C66.2051 215.423 65.6953 214.834 64.9131 214.834C64.0869 214.834 63.5596 215.484 63.5156 216.223ZM68.71 212.637V219H67.9541V212.637H68.71ZM72.0059 217.699V217.049L74.8711 212.637H75.8467V217.005H76.7344V217.699H75.8467V219H75.0908V217.699H72.0059ZM72.8584 217.005H75.0908V213.639H75.0117L72.8584 216.952V217.005Z" fill="#383C47"/>
<path d="M122.515 106.81V107.592H119.447V109.051H118.48V107.592H115.255V106.81H122.515ZM121.583 103.197V106.071H116.178V103.197H121.583ZM117.127 103.962V105.307H120.616V103.962H117.127ZM121.715 109.833V110.624H116.134V108.321H117.109V109.833H121.715ZM129.88 102.837V110.782H128.948V102.837H129.88ZM128.263 102.986V110.396H127.34V106.396H126.197V105.605H127.34V102.986H128.263ZM125.494 105.008C125.494 106.353 125.978 107.697 127.111 108.348L126.531 109.068C125.797 108.629 125.31 107.873 125.037 106.968C124.756 107.948 124.25 108.783 123.499 109.253L122.901 108.523C124.053 107.829 124.554 106.388 124.554 105.008V104.48H123.174V103.689H126.777V104.48H125.494V105.008ZM137.096 103.496C137.096 104.498 138.212 105.509 139.908 105.729L139.521 106.52C138.172 106.317 137.1 105.654 136.586 104.753C136.063 105.654 134.995 106.317 133.659 106.52L133.272 105.729C134.951 105.509 136.067 104.498 136.067 103.496V103.092H137.096V103.496ZM140.198 107.205V108.014H137.043V110.782H136.076V108.014H132.956V107.205H140.198Z" fill="#313944"/>
<path d="M190.917 102.846V107.486H189.941V106.607H188.052V105.816H189.941V104.964H188.131C187.625 106.229 186.47 107.113 184.738 107.592L184.343 106.818C186.202 106.313 187.19 105.373 187.349 104.19H184.765V103.399H188.412C188.412 103.676 188.39 103.94 188.342 104.19H189.941V102.846H190.917ZM188.289 107.574C189.897 107.574 190.97 108.181 190.97 109.156C190.97 110.132 189.897 110.738 188.289 110.738C186.663 110.738 185.591 110.132 185.591 109.156C185.591 108.181 186.663 107.574 188.289 107.574ZM188.289 108.339C187.217 108.339 186.566 108.629 186.566 109.156C186.566 109.675 187.217 109.965 188.289 109.965C189.335 109.965 189.994 109.675 189.994 109.156C189.994 108.629 189.335 108.339 188.289 108.339ZM198.695 102.837V107.645H197.72V106.001H196.586V105.192H197.72V102.837H198.695ZM198.695 108.005V110.686H193.413V108.005H198.695ZM194.389 108.778V109.895H197.737V108.778H194.389ZM196.718 103.575V104.366H192.06V103.575H193.905V102.775H194.872V103.575H196.718ZM194.389 104.674C195.496 104.674 196.27 105.263 196.278 106.098C196.27 106.959 195.496 107.521 194.389 107.521C193.29 107.521 192.508 106.959 192.508 106.098C192.508 105.263 193.29 104.674 194.389 104.674ZM194.389 105.412C193.817 105.412 193.439 105.676 193.439 106.098C193.439 106.537 193.817 106.792 194.389 106.792C194.96 106.792 195.338 106.537 195.338 106.098C195.338 105.676 194.96 105.412 194.389 105.412ZM206.421 102.837V110.782H205.445V102.837H206.421ZM202.87 105.359C202.87 106.572 203.608 107.864 204.892 108.4L204.355 109.147C203.441 108.765 202.76 107.97 202.396 107.012C202.04 108.027 201.354 108.875 200.427 109.279L199.899 108.523C201.165 107.961 201.895 106.625 201.895 105.359V104.946H200.146V104.164H201.895V103.004H202.861V104.164H204.575V104.946H202.87V105.359Z" fill="#313944"/>
<path d="M275.119 102.837V110.782H274.17V106.73H273.317V110.413H272.412V103.021H273.317V105.939H274.17V102.837H275.119ZM271.814 103.777C271.806 105.966 271.226 107.855 268.835 109.209L268.264 108.515C269.367 107.895 270.043 107.17 270.435 106.335L268.431 106.555L268.308 105.72L270.698 105.579C270.782 105.258 270.834 104.92 270.865 104.568H268.721V103.777H271.814ZM282.66 102.846V107.706H281.676V102.846H282.66ZM282.66 108.075V110.782H281.676V108.875H277.237V108.075H282.66ZM280.111 103.294V105.649H277.422V106.537C278.784 106.533 279.747 106.489 280.885 106.317L281.008 107.1C279.751 107.302 278.679 107.337 277.141 107.337H276.464V104.894H279.145V104.085H276.446V103.294H280.111ZM290.482 102.837V110.791H289.516V106.502H288.021V105.711H289.516V102.837H290.482ZM287.898 103.522V104.322H285.165V105.746H287.582V106.52H285.165V108.154C286.374 108.15 287.279 108.11 288.303 107.943L288.399 108.734C287.239 108.91 286.229 108.954 284.805 108.963H284.181V103.522H287.898ZM300.977 106.994V107.759H293.717V106.994H300.977ZM300.062 108.365V110.782H299.078V109.147H294.534V108.365H300.062ZM300.168 105.658V106.405H294.648V103.03H300.106V103.795H295.624V104.34H299.913V105.069H295.624V105.658H300.168ZM308.131 102.846V107.583H307.146V102.846H308.131ZM305.441 107.741C307.111 107.741 308.148 108.304 308.148 109.271C308.148 110.246 307.111 110.8 305.441 110.791C303.763 110.8 302.726 110.246 302.726 109.271C302.726 108.304 303.763 107.741 305.441 107.741ZM305.441 108.506C304.325 108.506 303.71 108.778 303.71 109.271C303.71 109.771 304.325 110.044 305.441 110.035C306.549 110.044 307.182 109.771 307.19 109.271C307.182 108.778 306.549 108.506 305.441 108.506ZM304.527 104.208C304.527 105.184 305.204 106.124 306.47 106.52L305.969 107.284C305.072 107.003 304.422 106.423 304.062 105.676C303.701 106.511 303.029 107.174 302.084 107.495L301.574 106.722C302.857 106.291 303.534 105.271 303.543 104.208V104.199H301.829V103.408H306.197V104.199H304.527V104.208Z" fill="#313944"/>
<path d="M44.7192 59.4619C44.1743 59.4619 43.7261 59.0137 43.7261 58.46C43.7261 57.915 44.1743 57.4668 44.7192 57.4668C45.2729 57.4668 45.7212 57.915 45.7212 58.46C45.7212 59.0137 45.2729 59.4619 44.7192 59.4619ZM54.8398 54.7158V57.5195H52.8447V59.1367C53.7017 59.1323 54.519 59.1016 55.4902 58.9258L55.5605 59.6113C54.4707 59.8047 53.5742 59.8311 52.5811 59.8398H52.0361V56.8516H54.04V55.3926H52.0273V54.7158H54.8398ZM58.5488 53.8721V61.7471H57.749V53.8721H58.5488ZM56.9316 54.0479V61.3428H56.1406V57.335H55.209V56.6582H56.1406V54.0479H56.9316ZM66.2832 53.8809V57.9941H65.4922V53.8809H66.2832ZM64.7012 54.0303V57.9502H63.9189V56.2979H62.9873V57.6602H59.9023V54.3291H60.6934V55.3135H62.2139V54.3291H62.9873V55.6123H63.9189V54.0303H64.7012ZM66.2832 58.3457V60.2793H61.8535V61.0176H66.582V61.668H61.0186V59.6553H65.457V59.0049H61.001V58.3457H66.2832ZM60.6934 57.001H62.2139V55.9463H60.6934V57.001ZM73.8682 53.8721V61.7646H73.0332V53.8721H73.8682ZM69.6582 54.4609C70.8271 54.4609 71.6885 55.5332 71.6885 57.2207C71.6885 58.917 70.8271 59.9893 69.6582 59.9893C68.4717 59.9893 67.6191 58.917 67.6191 57.2207C67.6191 55.5332 68.4717 54.4609 69.6582 54.4609ZM69.6582 55.208C68.9287 55.208 68.4277 55.9814 68.4277 57.2207C68.4277 58.4688 68.9287 59.2422 69.6582 59.2422C70.3789 59.2422 70.8799 58.4688 70.8799 57.2207C70.8799 55.9814 70.3789 55.208 69.6582 55.208ZM80.9082 53.96C82.6836 53.96 83.7207 54.4434 83.7207 55.3135C83.7207 56.1265 82.8374 56.6011 81.3037 56.667V57.2207H84.5029V57.8887H77.3223V57.2207H80.4863V56.667C78.9702 56.5923 78.0957 56.1221 78.0957 55.3135C78.0957 54.4434 79.1328 53.96 80.9082 53.96ZM80.9082 54.584C79.6514 54.5928 78.957 54.8477 78.9658 55.3135C78.957 55.8057 79.6514 56.0518 80.9082 56.0518C82.165 56.0518 82.8594 55.8057 82.8594 55.3135C82.8594 54.8477 82.165 54.5928 80.9082 54.584ZM83.5977 58.4775V60.3232H79.0098V61.0264H83.8174V61.668H78.1924V59.7256H82.7715V59.1104H78.1836V58.4775H83.5977ZM91.2354 53.8721V56.9482H92.501V57.6514H91.2354V61.7646H90.4092V53.8721H91.2354ZM89.0117 54.584V57.4756H86.252V59.1807C87.6055 59.1763 88.6074 59.1279 89.7588 58.917L89.8379 59.5938C88.6074 59.8223 87.5439 59.875 86.0674 59.8838H85.4258V56.7988H88.1855V55.2607H85.4082V54.584H89.0117ZM99.0664 53.8721V55.5771H100.209V56.2715H99.0664V57.8535H98.2314V53.8721H99.0664ZM96.9219 54.2236C96.9219 56.2451 95.5156 57.5371 93.1865 58.0645L92.8701 57.3701C94.8037 56.957 95.876 56.0386 95.999 54.9092H93.2393V54.2236H96.9219ZM99.0664 58.1963V60.2178H94.8125V61H99.3389V61.668H93.9951V59.5762H98.2402V58.8643H93.9775V58.1963H99.0664ZM108.093 54.0303V57.0361H108.928V53.8721H109.719V61.7471H108.928V57.7217H108.093V61.3691H107.319V54.0303H108.093ZM104.762 54.8477V55.5332H103.821V59.0312C104.098 59.0181 104.428 58.9829 104.788 58.8906L104.858 59.5938C104.226 59.7344 103.742 59.7432 103.382 59.7432H103.057V54.8477H104.762ZM106.836 54.8477V55.5332H105.843V59.0312C106.181 59.0225 106.55 58.9873 106.968 58.873L107.038 59.5762C106.405 59.7344 105.887 59.7432 105.421 59.7432H105.087V54.8477H106.836ZM114.614 54.6543V59.7695H110.932V54.6543H114.614ZM111.749 55.3135V59.0928H113.788V55.3135H111.749ZM116.768 53.8721V56.957H118.033V57.6602H116.768V61.7471H115.933V53.8721H116.768ZM124.546 53.8721V56.9219H125.812V57.6074H124.546V61.7646H123.711V53.8721H124.546ZM122.428 54.6279V55.3047H119.58V59.1104C120.903 59.106 121.896 59.0488 123.017 58.8467L123.122 59.5498C121.892 59.7695 120.846 59.8135 119.378 59.8047H118.745V54.6279H122.428ZM134.759 53.8721V55.542H135.726V56.2275H134.759V58.0469H133.933V53.8721H134.759ZM130.294 54.6543C130.294 55.2563 130.435 56.1133 130.988 56.7197C131.529 56.1265 131.674 55.2871 131.674 54.6631V54.1973H131.858V54.1797H132.447V54.6543C132.447 55.5156 132.772 56.5176 133.678 56.9922L133.229 57.5898C132.632 57.2734 132.271 56.7373 132.078 56.1309C131.889 56.7461 131.56 57.3262 130.979 57.6777L130.971 57.6602C130.395 57.313 130.065 56.7197 129.89 56.0957C129.688 56.7109 129.327 57.2646 128.747 57.5898L128.299 56.9922C129.187 56.4912 129.503 55.4453 129.503 54.6543V54.1797H130.294V54.6543ZM135.049 58.4688V59.1191H129.433V58.4688H131.832V57.7305H132.667V58.4688H135.049ZM132.245 59.4443C133.722 59.4531 134.574 59.8662 134.574 60.5869C134.574 61.3428 133.722 61.7383 132.245 61.7295C130.76 61.7383 129.898 61.3428 129.907 60.5869C129.898 59.8662 130.76 59.4531 132.245 59.4443ZM132.245 60.0508C131.252 60.0508 130.725 60.2441 130.733 60.5869C130.725 60.9473 131.252 61.1406 132.245 61.1318C133.221 61.1406 133.757 60.9473 133.757 60.5869C133.757 60.2441 133.221 60.0508 132.245 60.0508ZM138.274 54.4609C139.452 54.4609 140.287 55.5332 140.296 57.2207C140.287 58.917 139.452 59.9893 138.274 59.9893C137.097 59.9893 136.253 58.917 136.262 57.2207C136.253 55.5332 137.097 54.4609 138.274 54.4609ZM138.274 55.208C137.554 55.208 137.062 55.9814 137.062 57.2207C137.062 58.4688 137.554 59.2422 138.274 59.2422C139.004 59.2422 139.496 58.4688 139.496 57.2207C139.496 55.9814 139.004 55.208 138.274 55.208ZM142.3 53.8721V56.957H143.565V57.6602H142.3V61.7471H141.465V53.8721H142.3ZM146.053 54.4609C147.23 54.4609 148.065 55.5332 148.074 57.2207C148.065 58.917 147.23 59.9893 146.053 59.9893C144.875 59.9893 144.031 58.917 144.04 57.2207C144.031 55.5332 144.875 54.4609 146.053 54.4609ZM146.053 55.208C145.332 55.208 144.84 55.9814 144.84 57.2207C144.84 58.4688 145.332 59.2422 146.053 59.2422C146.782 59.2422 147.274 58.4688 147.274 57.2207C147.274 55.9814 146.782 55.208 146.053 55.208ZM151.3 55.7969V56.5088H150.078V58.1436H151.3V58.8291H150.078V61.7471H149.243V53.8721H150.078V55.7969H151.3ZM160.054 53.8721V57.0625H161.319V57.7568H160.054V61.7471H159.228V53.8721H160.054ZM158.542 55.1025V55.7881H153.875V55.1025H155.817V53.9775H156.652V55.1025H158.542ZM156.239 56.3682C157.364 56.3682 158.19 57.124 158.199 58.1963C158.19 59.2773 157.364 60.0244 156.239 60.0332C155.105 60.0244 154.279 59.2773 154.279 58.1963C154.279 57.124 155.105 56.3682 156.239 56.3682ZM156.239 57.0537C155.571 57.0537 155.07 57.5195 155.079 58.1963C155.07 58.8818 155.571 59.3389 156.239 59.3301C156.907 59.3389 157.399 58.8818 157.399 58.1963C157.399 57.5195 156.907 57.0537 156.239 57.0537ZM168.069 56.1748V56.8428H162.646V54.1533H163.473V56.1748H168.069ZM168.896 57.8359V58.5039H161.688V57.8359H168.896ZM168.122 60.877V61.5625H162.585V59.251H163.42V60.877H168.122ZM178.238 53.8809V58.5391H177.403V57.5811H175.417V56.8955H177.403V55.9375H175.496C174.991 57.2031 173.809 58.0952 172.104 58.583L171.77 57.9326C173.633 57.3965 174.723 56.3989 174.872 55.1289H172.174V54.4434H175.777C175.777 54.7334 175.747 55.0146 175.698 55.2783H177.403V53.8809H178.238ZM175.646 58.627C177.236 58.627 178.282 59.207 178.291 60.165C178.282 61.123 177.236 61.7119 175.646 61.7119C174.028 61.7119 172.991 61.123 172.991 60.165C172.991 59.207 174.028 58.627 175.646 58.627ZM175.646 59.2861C174.521 59.2861 173.817 59.6025 173.817 60.165C173.817 60.7188 174.521 61.0439 175.646 61.0439C176.753 61.0439 177.447 60.7188 177.456 60.165C177.447 59.6025 176.753 59.2861 175.646 59.2861ZM186.017 53.8721V58.6445H185.182V56.9307H183.951V56.2363H185.182V53.8721H186.017ZM186.017 59.0312V61.6504H180.822V59.0312H186.017ZM181.648 59.6904V60.9736H185.199V59.6904H181.648ZM184.074 54.6543V55.3223H179.46V54.6543H181.358V53.8018H182.185V54.6543H184.074ZM181.771 55.6826C182.853 55.6826 183.617 56.2627 183.617 57.0889C183.617 57.9414 182.853 58.4951 181.771 58.5039C180.69 58.4951 179.917 57.9414 179.917 57.0889C179.917 56.2627 180.69 55.6826 181.771 55.6826ZM181.771 56.3242C181.139 56.3154 180.717 56.623 180.717 57.0889C180.717 57.5723 181.139 57.8711 181.771 57.8711C182.396 57.8711 182.817 57.5723 182.817 57.0889C182.817 56.623 182.396 56.3154 181.771 56.3242ZM193.751 53.8721V61.7471H192.916V53.8721H193.751ZM190.191 56.4033C190.191 57.6602 191.026 58.9434 192.248 59.4619L191.791 60.1035C190.886 59.708 190.161 58.8906 189.796 57.8975C189.44 58.9478 188.728 59.8223 187.81 60.2354L187.344 59.5938C188.565 59.0488 189.374 57.7217 189.374 56.4033V55.8848H187.581V55.2168H189.365V54.0303H190.191V55.2168H191.958V55.8848H190.191V56.4033ZM201.143 53.8721V57.0098H202.364V57.7041H201.143V61.7383H200.308V53.8721H201.143ZM199.086 54.6982C199.077 56.9746 198.075 59.0049 195.482 60.2881L195.017 59.6377C196.99 58.6533 198.062 57.2295 198.233 55.3926H195.412V54.6982H199.086ZM211.373 55.8232V56.4912H208.991V57.3877H212.164V58.0645H204.983V57.3877H208.156V56.4912H205.941V54.0391H206.768V55.8232H211.373ZM211.382 58.7764V59.4268H210.213V60.9736H211.452V61.6504H205.704V60.9736H206.943V59.4268H205.774V58.7764H211.382ZM207.77 60.9736H209.387V59.4268H207.77V60.9736ZM214.871 54.4609C216.049 54.4609 216.884 55.5332 216.893 57.2207C216.884 58.917 216.049 59.9893 214.871 59.9893C213.693 59.9893 212.85 58.917 212.858 57.2207C212.85 55.5332 213.693 54.4609 214.871 54.4609ZM214.871 55.208C214.15 55.208 213.658 55.9814 213.658 57.2207C213.658 58.4688 214.15 59.2422 214.871 59.2422C215.601 59.2422 216.093 58.4688 216.093 57.2207C216.093 55.9814 215.601 55.208 214.871 55.208ZM218.896 53.8721V56.957H220.162V57.6602H218.896V61.7471H218.062V53.8721H218.896ZM227.114 53.8721V61.7471H226.279V58.4336H224.768V57.7393H226.279V56.7637H224.768V56.0693H226.279V53.8721H227.114ZM223.353 56.0869C223.353 57.3174 224.196 58.8203 225.374 59.4092L224.873 60.0508C224.007 59.6069 223.309 58.6621 222.957 57.5986C222.605 58.7632 221.898 59.7607 221.023 60.2441L220.47 59.6113C221.656 59.0225 222.5 57.502 222.509 56.0869V55.3486H220.769V54.6631H225.084V55.3486H223.353V56.0869ZM235.525 60.0684V60.7627H228.318V60.0684H230.041V58.0117C229.395 57.6558 229.004 57.0889 229.004 56.3857C229.004 55.1465 230.217 54.3291 231.904 54.3291C233.601 54.3291 234.813 55.1465 234.813 56.3857C234.813 57.0801 234.436 57.6382 233.803 57.9941V60.0684H235.525ZM231.904 54.9971C230.665 54.9971 229.812 55.5332 229.812 56.3857C229.812 57.2295 230.665 57.7832 231.904 57.7832C233.135 57.7832 234.005 57.2295 234.005 56.3857C234.005 55.5332 233.135 54.9971 231.904 54.9971ZM230.867 60.0684H232.959V58.3105C232.638 58.394 232.282 58.4336 231.904 58.4336C231.535 58.4336 231.184 58.394 230.867 58.3193V60.0684ZM236.993 61.0615C236.65 61.0615 236.36 60.7803 236.369 60.4375C236.36 60.0947 236.65 59.8135 236.993 59.8135C237.327 59.8135 237.617 60.0947 237.617 60.4375C237.617 60.7803 237.327 61.0615 236.993 61.0615Z" fill="#222222"/>
<path d="M44.7192 73.4619C44.1743 73.4619 43.7261 73.0137 43.7261 72.46C43.7261 71.915 44.1743 71.4668 44.7192 71.4668C45.2729 71.4668 45.7212 71.915 45.7212 72.46C45.7212 73.0137 45.2729 73.4619 44.7192 73.4619ZM54.8398 72.0557V73.418C55.5605 73.3784 56.29 73.3169 56.9756 73.2158L57.0371 73.8311C55.2529 74.1562 53.3457 74.1738 51.9395 74.1738L51.834 73.4883C52.4668 73.4839 53.2139 73.4795 54.0049 73.4531V72.0557H54.8398ZM56.6064 68.874V69.5508H54.8398C54.8838 70.4736 55.6309 71.2734 56.8086 71.5898L56.4219 72.2402C55.4814 71.9722 54.7783 71.4009 54.4268 70.6494C54.0796 71.4404 53.3896 72.0381 52.4404 72.3105L52.0449 71.6777C53.2183 71.3438 53.9565 70.5176 53.9961 69.5508H52.2559V68.874H54.0049V67.9336H54.8398V68.874H56.6064ZM58.3027 67.8721V75.7646H57.4678V67.8721H58.3027ZM65.9404 68.6279V69.4014C65.9404 70.377 65.9404 71.4668 65.6416 73.0752L64.7979 72.9873C65.1055 71.4668 65.1055 70.3506 65.1055 69.4014V69.3047H60.3242V68.6279H65.9404ZM66.749 73.9893V74.6836H59.5684V73.9893H62.3018V71.2119H63.1279V73.9893H66.749ZM72.5938 68.7158V71.5195H70.5986V73.1367C71.4556 73.1323 72.2729 73.1016 73.2441 72.9258L73.3145 73.6113C72.2246 73.8047 71.3281 73.8311 70.335 73.8398H69.79V70.8516H71.7939V69.3926H69.7812V68.7158H72.5938ZM76.3027 67.8721V75.7471H75.5029V67.8721H76.3027ZM74.6855 68.0479V75.3428H73.8945V71.335H72.9629V70.6582H73.8945V68.0479H74.6855ZM84.0371 67.8809V71.9941H83.2461V67.8809H84.0371ZM82.4551 68.0303V71.9502H81.6729V70.2979H80.7412V71.6602H77.6562V68.3291H78.4473V69.3135H79.9678V68.3291H80.7412V69.6123H81.6729V68.0303H82.4551ZM84.0371 72.3457V74.2793H79.6074V75.0176H84.3359V75.668H78.7725V73.6553H83.2109V73.0049H78.7549V72.3457H84.0371ZM78.4473 71.001H79.9678V69.9463H78.4473V71.001ZM92.2812 71.9854V72.6533H85.1006V71.9854H92.2812ZM91.4727 74.9033V75.5801H86.0059V73.2949H86.8496V74.9033H91.4727ZM88.6865 68.1357C90.3916 68.127 91.499 68.7246 91.499 69.709C91.499 70.7021 90.3916 71.2998 88.6865 71.3086C86.9727 71.2998 85.874 70.7021 85.874 69.709C85.874 68.7246 86.9727 68.127 88.6865 68.1357ZM88.6865 68.8037C87.4824 68.8037 86.7266 69.1465 86.7354 69.709C86.7266 70.2891 87.4824 70.623 88.6865 70.623C89.8906 70.623 90.6377 70.2891 90.6377 69.709C90.6377 69.1465 89.8906 68.8037 88.6865 68.8037ZM95.4365 75V68.6367H96.4033V74.165H99.2773V75H95.4365ZM100.271 75V68.6367H104.261V69.4717H101.237V71.3965H104.05V72.2227H101.237V74.165H104.296V75H100.271ZM106.01 68.6367L107.776 73.8135H107.847L109.613 68.6367H110.659L108.365 75H107.249L104.964 68.6367H106.01ZM111.468 75V68.6367H115.458V69.4717H112.435V71.3965H115.247V72.2227H112.435V74.165H115.493V75H111.468ZM116.645 75V68.6367H117.611V74.165H120.485V75H116.645ZM123.447 73.7607V72.9785L126.26 68.6367H127.455V72.9434H128.325V73.7607H127.455V75H126.541V73.7607H123.447ZM124.467 72.9434H126.541V69.7881H126.471L124.467 72.8906V72.9434ZM135.286 67.8721V71.0713H136.429V71.7568H135.286V75.7471H134.451V67.8721H135.286ZM131.401 68.7158C131.401 70.6846 131.041 72.4775 129.617 73.998L128.958 73.5322C130.109 72.3369 130.527 70.979 130.61 69.4014H129.239V68.7158H131.401ZM133.572 68.7158C133.572 70.7109 133.326 72.8027 131.876 74.5166L131.208 74.0596C132.377 72.6929 132.729 71.0845 132.79 69.4014H131.656V68.7158H133.572ZM139.707 70.1924C139.707 71.5107 140.568 72.873 141.781 73.3916L141.324 74.042C140.397 73.6333 139.659 72.7676 139.294 71.7129C138.929 72.8379 138.187 73.7959 137.272 74.2441L136.789 73.585C137.976 73.0312 138.854 71.5459 138.863 70.1924V69.3574H137.062V68.6631H141.5V69.3574H139.707V70.1924ZM143.328 67.8721V75.7471H142.493V67.8721H143.328ZM149.516 73.0752C149.516 73.752 149.85 74.4683 150.562 74.8945C151.287 74.4331 151.643 73.6772 151.643 73.0752V72.6973H152.46V73.0752C152.46 73.8926 152.996 74.6836 154.024 75.0176L153.611 75.6328C152.833 75.3647 152.306 74.8418 152.029 74.1914C151.779 74.8286 151.309 75.4043 150.588 75.7031C149.832 75.4175 149.353 74.8594 149.111 74.2178C148.826 74.8374 148.307 75.3604 147.564 75.6328L147.143 75.0176C148.153 74.6572 148.698 73.8398 148.707 73.0752V72.6973H149.516V73.0752ZM153.312 67.8809V72.3633H152.478V67.8809H153.312ZM149.041 68.3115C150.245 68.3115 151.133 69.0762 151.133 70.1748C151.133 71.2646 150.245 72.0205 149.041 72.0205C147.837 72.0205 146.94 71.2646 146.94 70.1748C146.94 69.0762 147.837 68.3115 149.041 68.3115ZM149.041 69.0234C148.294 69.0146 147.758 69.4805 147.758 70.1748C147.758 70.8604 148.294 71.3262 149.041 71.3262C149.779 71.3262 150.315 70.8604 150.315 70.1748C150.315 69.4805 149.779 69.0146 149.041 69.0234ZM156.696 68.4609C157.764 68.4609 158.546 69.3662 158.674 70.8252H160.3V67.8721H161.126V75.7646H160.3V71.502H158.683C158.59 73.0356 157.791 73.9893 156.696 73.9893C155.519 73.9893 154.692 72.917 154.701 71.2207C154.692 69.5332 155.519 68.4609 156.696 68.4609ZM156.696 69.208C155.984 69.208 155.492 69.9814 155.492 71.2207C155.492 72.4688 155.984 73.2422 156.696 73.2422C157.408 73.2422 157.9 72.4688 157.9 71.2207C157.9 69.9814 157.408 69.208 156.696 69.208ZM169.546 74.0684V74.7627H162.339V74.0684H164.062V72.0117C163.416 71.6558 163.024 71.0889 163.024 70.3857C163.024 69.1465 164.237 68.3291 165.925 68.3291C167.621 68.3291 168.834 69.1465 168.834 70.3857C168.834 71.0801 168.456 71.6382 167.823 71.9941V74.0684H169.546ZM165.925 68.9971C164.686 68.9971 163.833 69.5332 163.833 70.3857C163.833 71.2295 164.686 71.7832 165.925 71.7832C167.155 71.7832 168.025 71.2295 168.025 70.3857C168.025 69.5332 167.155 68.9971 165.925 68.9971ZM164.888 74.0684H166.979V72.3105C166.659 72.394 166.303 72.4336 165.925 72.4336C165.556 72.4336 165.204 72.394 164.888 72.3193V74.0684ZM171.014 75.0615C170.671 75.0615 170.381 74.7803 170.39 74.4375C170.381 74.0947 170.671 73.8135 171.014 73.8135C171.348 73.8135 171.638 74.0947 171.638 74.4375C171.638 74.7803 171.348 75.0615 171.014 75.0615Z" fill="#222222"/>
<defs>
<filter id="filter0_d_834_1992" x="0" y="0" width="366" height="256" filterUnits="userSpaceOnUse" color-interpolation-filters="sRGB">
<feFlood flood-opacity="0" result="BackgroundImageFix"/>
<feColorMatrix in="SourceAlpha" type="matrix" values="0 0 0 0 0 0 0 0 0 0 0 0 0 0 0 0 0 0 127 0" result="hardAlpha"/>
<feOffset/>
<feGaussianBlur stdDeviation="4"/>
<feComposite in2="hardAlpha" operator="out"/>
<feColorMatrix type="matrix" values="0 0 0 0 0 0 0 0 0 0 0 0 0 0 0 0 0 0 0.1 0"/>
<feBlend mode="normal" in2="BackgroundImageFix" result="effect1_dropShadow_834_1992"/>
<feBlend mode="normal" in="SourceGraphic" in2="effect1_dropShadow_834_1992" result="shape"/>
</filter>
</defs>
</svg>
